<svg version="1.1" id="Layer_1" xmlns="http://www.w3.org/2000/svg" xmlns:xlink="http://www.w3.org/1999/xlink" x="0px" y="0px"
	 width="100%" viewBox="0 0 512 512" enable-background="new 0 0 512 512" xml:space="preserve">
<path fill="#000000" opacity="1.000000" stroke="none" 
	d="
M286.000000,513.000000 
	C190.689804,513.000000 95.879608,513.000000 1.034703,513.000000 
	C1.034703,342.398102 1.034703,171.796219 1.034703,1.097158 
	C171.560211,1.097158 342.120514,1.097158 512.840393,1.097158 
	C512.840393,171.666550 512.840393,342.333252 512.840393,513.000000 
	C437.462860,513.000000 361.981415,513.000000 286.000000,513.000000 
M275.585602,262.705536 
	C276.949158,252.368790 272.169617,245.931992 263.552246,240.455948 
	C251.572388,232.843124 233.655167,244.678284 233.015137,257.143707 
	C232.481232,267.542236 240.184937,276.786926 251.030563,278.780365 
	C261.722473,280.745544 271.409515,274.632660 275.585602,262.705536 
M472.976562,158.461899 
	C480.515625,149.269730 479.843384,139.378723 471.154816,131.657135 
	C464.655029,125.880745 454.898590,125.570999 447.155640,130.895142 
	C440.222595,135.662399 437.281433,144.595612 440.336700,152.473145 
	C445.636383,166.137497 464.554962,167.300537 472.976562,158.461899 
M441.591278,380.644135 
	C447.504974,388.462097 455.010651,391.637939 464.749207,388.891602 
	C472.786896,386.624878 477.409424,380.336151 478.127838,372.324921 
	C478.972046,362.910706 471.046570,355.832642 464.986847,353.897552 
	C456.137024,351.071472 448.521667,353.571808 442.735229,360.814880 
	C437.983185,366.763214 438.138214,373.338684 441.591278,380.644135 
M67.511665,155.792496 
	C71.099457,148.526855 71.446655,141.435883 66.211929,134.741440 
	C60.224609,127.084557 51.508671,125.704865 43.440308,128.693100 
	C36.352394,131.318207 31.147875,138.467209 31.018179,146.316376 
	C30.912933,152.685760 36.804199,160.661682 43.296238,162.939072 
	C52.477440,166.159805 60.551243,163.937805 67.511665,155.792496 
M67.381561,361.362366 
	C56.610752,351.122803 48.128777,349.785034 38.547581,357.372559 
	C33.400639,361.448517 29.982807,366.929077 31.267885,373.838715 
	C32.636642,381.198273 36.956440,386.626099 44.304508,388.802002 
	C53.035938,391.387604 60.798172,389.552185 66.610275,382.159912 
	C71.616074,375.793152 70.561928,368.880707 67.381561,361.362366 
M266.305328,47.888687 
	C278.168030,39.159958 274.963501,24.539492 266.726929,18.552164 
	C259.453430,13.264943 251.271225,13.885060 243.593826,17.865290 
	C237.021301,21.272703 235.968689,27.558802 235.892609,34.434845 
	C235.812378,41.686253 239.366165,46.775974 245.156174,49.697575 
	C251.891769,53.096317 259.180115,53.561424 266.305328,47.888687 
M235.998337,483.595093 
	C236.325073,486.369781 236.086395,489.367920 237.079117,491.879364 
	C240.823975,501.353333 254.026932,506.253845 263.099335,501.233734 
	C272.689240,495.927246 277.818085,485.502899 270.854370,474.299835 
	C266.892883,467.926636 258.171661,464.485535 250.396255,466.385651 
	C240.425049,468.822357 236.432251,473.346344 235.998337,483.595093 
M450.004456,293.531158 
	C450.004456,296.622131 450.004456,299.713104 450.004456,302.574097 
	C456.110809,302.574097 461.494019,302.574097 466.723206,302.574097 
	C466.723206,296.855194 466.723206,291.590851 466.723206,286.319489 
	C461.051544,286.319489 455.661285,286.319489 450.004364,286.319489 
	C450.004364,288.610626 450.004364,290.587280 450.004456,293.531158 
M48.667953,303.009308 
	C52.068829,303.009308 55.469704,303.009308 58.775761,303.009308 
	C58.775761,296.984863 58.775761,291.720764 58.775761,286.358093 
	C53.181267,286.358093 47.818188,286.358093 41.986324,286.358093 
	C41.986324,290.321533 42.250774,293.965820 41.920029,297.555298 
	C41.497402,302.141876 43.550514,303.572174 48.667953,303.009308 
M59.001732,327.522827 
	C59.001732,325.096497 59.001732,322.670197 59.001732,320.388855 
	C52.961910,320.388855 47.572617,320.388855 42.017963,320.388855 
	C42.017963,324.926086 41.796844,329.096832 42.144836,333.219513 
	C42.257812,334.557953 43.771835,336.777985 44.795982,336.867523 
	C49.364071,337.266754 53.986786,337.040924 59.001347,337.040924 
	C59.001347,333.741974 59.001347,331.114990 59.001732,327.522827 
M454.775085,337.014008 
	C458.701843,337.014008 462.628601,337.014008 466.768494,337.014008 
	C466.768494,331.174530 466.768494,325.809662 466.768494,320.235596 
	C461.171661,320.235596 455.808533,320.235596 449.995667,320.235596 
	C449.995667,324.883545 449.725006,329.337799 450.171722,333.718933 
	C450.294952,334.927216 452.556885,335.917419 454.775085,337.014008 
M368.033569,191.286652 
	C367.389648,187.529907 365.362762,187.441864 362.527344,189.120911 
	C361.280457,189.859268 359.900757,190.382263 358.558563,190.949158 
	C352.124664,193.666656 350.921478,196.367264 354.033112,200.896484 
	C355.792206,203.457062 357.383636,206.132843 359.505585,209.472916 
	C364.143890,206.817780 369.179443,203.935257 374.190063,201.067017 
	C372.048340,197.690186 370.230835,194.824585 368.033569,191.286652 
M99.202057,398.749084 
	C102.835442,393.481781 102.815384,391.537048 98.323929,389.075745 
	C95.102852,387.310608 91.485657,386.268280 87.980286,384.877747 
	C85.317642,389.273132 82.771568,393.476135 79.932732,398.162384 
	C85.204468,401.070221 90.213974,403.833435 95.037697,406.494141 
	C96.475899,403.418030 97.491318,401.246185 99.202057,398.749084 
M283.746674,153.987289 
	C288.133392,153.987289 292.520111,153.987289 296.653320,153.987289 
	C296.653320,148.296799 296.653320,143.256134 296.653320,138.312256 
	C290.936279,138.312256 285.567352,138.312256 280.002167,138.312256 
	C280.002167,142.741455 279.814423,146.873901 280.130219,150.967499 
	C280.212280,152.031174 281.867645,152.973450 283.746674,153.987289 
M296.987366,369.598999 
	C296.987366,367.835480 296.987366,366.071960 296.987366,364.375793 
	C290.965118,364.375793 285.578583,364.375793 280.236267,364.375793 
	C280.236267,369.692505 280.236267,374.629608 280.236267,379.723511 
	C285.858429,379.723511 291.244690,379.723511 296.987335,379.723511 
	C296.987335,376.484619 296.987335,373.521118 296.987366,369.598999 
M466.232941,184.095596 
	C460.856567,184.095596 455.480194,184.095596 450.250122,184.095596 
	C450.250122,189.717758 450.250122,194.630875 450.250122,199.766708 
	C455.863464,199.766708 461.227692,199.766708 466.901245,199.766708 
	C466.901245,194.628799 466.901245,189.705917 466.232941,184.095596 
M58.999695,186.683212 
	C58.213913,185.789810 57.466137,184.166733 56.636082,184.123489 
	C51.877960,183.875687 47.100304,184.002991 42.205940,184.002991 
	C42.205940,189.512466 42.205940,194.571777 42.205940,199.749512 
	C47.817570,199.749512 53.204151,199.749512 59.000854,199.749512 
	C59.000854,195.550827 59.000854,191.600739 58.999695,186.683212 
M325.431152,363.999969 
	C322.024200,363.999969 318.617249,363.999969 315.325745,363.999969 
	C315.325745,369.706360 315.325745,374.741272 315.325745,379.667480 
	C321.030914,379.667480 326.401367,379.667480 331.655396,379.667480 
	C331.655396,374.300262 331.655396,369.265350 331.655396,363.999939 
	C329.673096,363.999939 328.035187,363.999939 325.431152,363.999969 
M78.475563,159.997345 
	C74.196228,166.215988 74.182495,166.234207 80.485451,170.987335 
	C81.918732,172.068176 83.393875,173.173325 85.013741,173.903412 
	C86.493179,174.570221 88.194733,174.744217 88.842842,174.902298 
	C90.911995,171.518997 92.699066,169.029755 94.000694,166.308334 
	C94.797844,164.641678 95.705551,161.372803 95.099335,160.956711 
	C90.941864,158.103012 86.397179,155.813416 81.797997,153.241959 
	C80.567596,155.877884 79.752686,157.623688 78.475563,159.997345 
M362.398865,138.000580 
	C358.666260,138.000580 354.933685,138.000580 351.282593,138.000580 
	C351.282593,143.738831 351.282593,148.783340 351.282593,153.648560 
	C356.950562,153.648560 362.319550,153.648560 367.822083,153.648560 
	C367.822083,148.380630 367.822083,143.471985 367.822083,138.243134 
	C366.233063,138.156738 364.798065,138.078705 362.398865,138.000580 
M315.007935,147.454315 
	C315.007935,149.539520 315.007935,151.624741 315.007935,153.685486 
	C320.949310,153.685486 326.318512,153.685486 331.686340,153.685486 
	C331.686340,148.337875 331.686340,143.304413 331.686340,138.301102 
	C325.998413,138.301102 320.628754,138.301102 315.007935,138.301102 
	C315.007935,141.227127 315.007935,143.854538 315.007935,147.454315 
M367.996155,366.714417 
	C367.199097,365.812897 366.441315,364.176605 365.598511,364.131561 
	C360.870392,363.878845 356.121796,364.009857 351.280396,364.009857 
	C351.280396,369.582428 351.280396,374.608429 351.280396,379.739685 
	C356.933777,379.739685 362.299194,379.739685 367.999023,379.739685 
	C367.999023,375.549042 367.999023,371.612946 367.996155,366.714417 
M177.108017,138.774612 
	C177.108017,143.716995 177.108017,148.659378 177.108017,153.661713 
	C182.895920,153.661713 188.415039,153.661713 193.622040,153.661713 
	C193.622040,148.238968 193.622040,143.170593 193.622040,138.106995 
	C188.092987,138.106995 182.943832,138.106995 177.108017,138.774612 
M41.999626,223.575134 
	C41.999626,227.001648 41.999626,230.428177 41.999626,233.676361 
	C48.007324,233.676361 53.405605,233.676361 58.662212,233.676361 
	C58.662212,228.264099 58.662212,223.201218 58.662212,218.143524 
	C53.044270,218.143524 47.763084,218.143524 41.999607,218.143524 
	C41.999607,219.722916 41.999607,221.162140 41.999626,223.575134 
M105.998901,146.471329 
	C105.998901,148.895950 105.998901,151.320557 105.998901,153.757172 
	C111.984390,153.757172 117.249603,153.757172 122.738190,153.757172 
	C122.738190,148.458389 122.738190,143.402023 122.738190,138.295685 
	C117.075806,138.295685 111.680321,138.295685 105.998878,138.295685 
	C105.998878,140.896729 105.998878,143.203857 105.998901,146.471329 
M466.205444,218.130295 
	C460.932465,218.130295 455.659454,218.130295 450.317352,218.130295 
	C450.317352,223.570190 450.317352,228.622314 450.317352,233.642487 
	C456.035370,233.642487 461.426971,233.642487 466.874054,233.642487 
	C466.874054,228.445221 466.874054,223.628555 466.205444,218.130295 
M184.534698,379.980865 
	C187.626572,379.980865 190.718445,379.980865 193.603241,379.980865 
	C193.603241,374.232635 193.603241,369.166992 193.603241,364.269073 
	C187.929382,364.269073 182.654297,364.269073 177.312561,364.269073 
	C177.312561,369.598297 177.312561,374.652832 177.312561,379.980957 
	C179.613022,379.980957 181.590302,379.980957 184.534698,379.980865 
M391.601135,379.989716 
	C395.333405,379.989716 399.065704,379.989716 402.647156,379.989716 
	C402.647156,374.285980 402.647156,369.248749 402.647156,364.341736 
	C396.919006,364.341736 391.548676,364.341736 386.180176,364.341736 
	C386.180176,369.602661 386.180176,374.520294 386.180176,379.755737 
	C387.766052,379.839233 389.201355,379.914825 391.601135,379.989716 
M153.359467,379.996643 
	C154.799179,379.912476 156.238876,379.828308 157.652557,379.745667 
	C157.652557,374.330475 157.652557,369.276489 157.652557,364.244690 
	C152.035339,364.244690 146.767685,364.244690 141.247559,364.244690 
	C141.247559,369.543396 141.247559,374.594971 141.247559,379.996338 
	C145.127335,379.996338 148.759827,379.996338 153.359467,379.996643 
M106.000854,373.452087 
	C106.000854,375.549103 106.000854,377.646149 106.000854,379.622437 
	C112.038216,379.622437 117.434837,379.622437 122.755531,379.622437 
	C122.755531,374.299072 122.755531,369.358521 122.755531,364.287842 
	C117.117874,364.287842 111.726456,364.287842 106.000671,364.287842 
	C106.000671,367.204803 106.000671,369.843170 106.000854,373.452087 
M317.267303,71.925262 
	C316.773254,73.926483 315.354797,77.323196 315.932800,77.706078 
	C320.200989,80.533455 324.867157,82.760048 329.195343,85.062416 
	C330.436279,82.514259 331.119995,80.060387 332.600250,78.262253 
	C337.574127,72.220230 337.249817,70.260414 330.171722,67.027946 
	C321.686005,63.152626 321.686005,63.152622 317.267303,71.925262 
M451.938477,267.965027 
	C456.843842,267.965027 461.749207,267.965027 466.684998,267.965027 
	C466.684998,262.408752 466.684998,257.384369 466.684998,252.313812 
	C461.005371,252.313812 455.647736,252.313812 449.509216,252.313812 
	C450.060913,257.654541 450.574219,262.623688 451.938477,267.965027 
M94.901146,236.597763 
	C99.013313,234.178864 103.125481,231.759964 107.511436,229.180008 
	C105.506226,225.509140 103.480301,222.422607 102.089134,219.072510 
	C100.788216,215.939743 99.308838,215.036087 96.302864,216.929321 
	C93.070030,218.965424 89.708473,220.797150 85.312485,223.351837 
	C87.806198,227.667892 90.492210,232.331451 93.222717,236.968811 
	C93.301163,237.102051 93.851768,236.957306 94.901146,236.597763 
M304.530670,285.995605 
	C306.133545,283.248627 307.736420,280.501648 309.288177,277.842255 
	C304.944916,275.372375 301.359131,273.175385 297.611755,271.301453 
	C296.532959,270.761993 294.139435,270.634521 293.793121,271.201080 
	C291.236847,275.383118 289.046204,279.788666 286.941223,283.746552 
	C289.658386,285.528961 292.009918,287.034882 294.323669,288.596741 
	C299.582947,292.146973 301.583679,291.751312 304.530670,285.995605 
M221.546661,281.166718 
	C219.682587,278.055481 218.043930,274.767090 215.820496,271.938293 
	C215.131241,271.061371 212.530670,270.777618 211.363251,271.353516 
	C207.633682,273.193481 204.166092,275.564484 200.328217,277.893799 
	C202.662949,282.073456 205.146561,286.519684 208.079056,291.769531 
	C212.678833,289.282623 217.282578,286.849823 221.790604,284.251038 
	C222.157242,284.039673 221.869431,282.693054 221.546661,281.166718 
M59.000244,261.429871 
	C59.000244,258.343994 59.000244,255.258102 59.000244,252.351608 
	C52.843086,252.351608 47.440464,252.351608 41.995861,252.351608 
	C41.995861,256.541626 41.751305,260.397675 42.127621,264.192139 
	C42.260529,265.532257 43.822388,267.714661 44.882366,267.808319 
	C49.442707,268.211121 54.059006,267.980347 59.000034,267.980347 
	C59.000034,265.663696 59.000034,264.023987 59.000244,261.429871 
M386.017731,140.719315 
	C386.023804,144.025940 385.791840,147.359482 386.160828,150.625076 
	C386.296021,151.821274 387.792023,153.743469 388.776489,153.814224 
	C393.467102,154.151306 398.195282,153.965134 402.624390,153.965134 
	C402.624390,148.203766 402.624390,143.164246 402.624390,137.998032 
	C397.955872,137.998032 393.657623,137.876755 389.374695,138.079117 
	C388.233643,138.133011 387.139435,139.178391 386.017731,140.719315 
M119.924294,322.399811 
	C116.730309,323.927368 113.600853,325.615448 110.322746,326.933807 
	C107.493904,328.071503 107.531631,329.705322 108.939461,331.826965 
	C111.386787,335.515076 113.882637,339.171021 116.075325,342.421234 
	C119.663635,340.590546 122.991150,338.629211 126.525574,337.168579 
	C129.659683,335.873352 130.486221,334.145905 128.700119,331.281403 
	C126.796570,328.228516 124.922737,325.148773 122.824120,322.233185 
	C122.425247,321.679016 121.038185,321.836151 119.924294,322.399811 
M220.498856,137.999634 
	C217.751175,137.999634 215.003494,137.999634 212.013809,137.999634 
	C212.013809,142.595825 211.814270,146.565964 212.131805,150.494293 
	C212.230911,151.720413 213.658020,153.771713 214.594818,153.840347 
	C219.301437,154.185242 224.047028,153.998535 228.678009,153.998535 
	C228.678009,148.332489 228.678009,143.293121 228.678009,137.999847 
	C226.066330,137.999847 223.767670,137.999847 220.498856,137.999634 
M157.995743,151.277069 
	C157.995743,146.989822 157.995743,142.702591 157.995743,138.310791 
	C152.148148,138.310791 146.762512,138.310791 141.175720,138.310791 
	C141.114822,139.578140 141.040176,140.553513 141.025238,141.529785 
	C140.833130,154.101410 140.836319,154.157043 153.614319,153.918594 
	C155.079895,153.891235 156.525940,152.818176 157.995743,151.277069 
M228.998093,376.325226 
	C228.998093,372.269562 228.998093,368.213928 228.998093,364.381531 
	C222.868729,364.381531 217.498947,364.381531 211.992218,364.381531 
	C211.992218,368.399933 211.732773,372.064514 212.115311,375.660828 
	C212.276443,377.175629 214.211044,379.903412 214.628708,379.774658 
	C219.331848,378.324463 225.241531,383.557404 228.998093,376.325226 
M364.065582,426.370514 
	C362.601624,423.776459 361.137634,421.182373 359.815857,418.840271 
	C356.197113,420.361267 353.394409,421.269745 350.865051,422.671478 
	C347.789825,424.375732 343.866577,425.824402 347.776306,430.685608 
	C349.925598,433.358032 351.144012,436.779144 353.047028,440.361267 
	C356.080627,438.675201 359.046173,436.783600 362.209747,435.320038 
	C368.574066,432.375763 368.633636,432.417725 364.065582,426.370514 
M157.925659,83.533257 
	C157.390259,82.315018 156.854874,81.096779 156.253098,79.727501 
	C151.271530,82.511009 146.654648,85.090736 141.823563,87.790161 
	C143.574814,91.363846 145.097702,95.105820 147.221832,98.467949 
	C147.982803,99.672432 150.272110,100.659889 151.727173,100.500259 
	C153.860291,100.266251 156.078583,99.210754 157.879669,97.957771 
	C160.062683,96.439079 163.940231,95.517670 162.794952,91.862144 
	C161.935516,89.119003 159.690582,86.809959 157.925659,83.533257 
M407.341858,126.140465 
	C407.258636,126.938110 406.832306,128.237793 407.147186,128.453003 
	C409.417053,130.004333 411.704895,131.690781 414.246674,132.637238 
	C416.772217,133.577621 421.032440,135.024445 422.030975,133.942017 
	C425.156097,130.554337 427.100739,126.077705 429.363739,122.257751 
	C426.022003,120.288071 423.203430,118.772804 420.537537,117.024666 
	C415.168152,113.503784 414.870056,113.579170 411.980438,119.049896 
	C410.784119,121.314758 409.248871,123.400597 407.341858,126.140465 
M117.907616,245.687576 
	C113.091377,247.811020 108.255066,249.891861 103.495003,252.134552 
	C103.091728,252.324554 102.831688,253.799454 103.127167,254.332779 
	C105.071320,257.841858 107.084801,261.324585 109.322319,264.649933 
	C109.832260,265.407776 111.611107,266.145447 112.292404,265.819397 
	C116.790390,263.666779 121.148094,261.221008 125.842506,258.715454 
	C122.772942,253.869354 120.417892,250.151291 117.907616,245.687576 
M358.087311,323.561462 
	C359.928925,323.925842 363.000702,325.125732 363.412689,324.519135 
	C366.110748,320.546539 368.233704,316.183380 370.345215,312.313049 
	C367.449463,310.180603 365.471039,308.240234 363.105194,307.113190 
	C360.581299,305.910919 357.593842,302.580383 354.915405,306.131989 
	C352.115753,309.844208 350.187469,314.213593 348.201050,317.725128 
	C351.506439,319.621796 354.500916,321.340027 358.087311,323.561462 
M334.529327,304.923981 
	C336.222351,301.775757 337.915344,298.627563 339.992462,294.765076 
	C335.394226,292.268951 330.531555,289.629303 325.619385,286.962769 
	C322.935669,291.389252 320.348633,295.656311 317.377258,300.557281 
	C322.311035,303.391693 326.881653,306.017487 331.465210,308.650726 
	C332.199249,307.719635 333.098358,306.579193 334.529327,304.923981 
M412.613190,216.934784 
	C411.176758,217.108398 408.972565,216.758011 408.435242,217.545242 
	C405.958435,221.174149 403.946106,225.120071 401.621735,229.208237 
	C406.638611,232.059601 411.336914,234.729904 415.860596,237.300964 
	C418.417511,233.389587 420.842712,230.112457 422.721313,226.547302 
	C423.299683,225.449692 422.932983,222.852325 422.051483,222.175110 
	C419.404938,220.141891 416.290710,218.717407 412.613190,216.934784 
M304.623749,56.887054 
	C304.230774,55.285698 304.360565,52.889286 303.351074,52.225483 
	C299.675049,49.808300 295.618164,47.970318 291.720215,45.922043 
	C289.026825,50.523705 286.489960,54.858028 283.571533,59.844215 
	C288.411621,62.484661 293.125977,65.056503 298.173340,67.810028 
	C300.410736,63.899128 302.250702,60.682877 304.623749,56.887054 
M390.628448,247.855759 
	C388.898651,250.597229 387.040894,253.269974 385.510345,256.118530 
	C384.993561,257.080322 384.837189,259.288239 385.312592,259.566650 
	C389.718597,262.146790 394.298798,264.429504 398.309692,266.527252 
	C400.915161,262.428253 402.996674,259.278046 404.944000,256.047028 
	C406.274078,253.840042 406.827209,252.076370 403.355133,250.864212 
	C400.200226,249.762802 397.355499,247.713272 394.466278,245.932098 
	C392.637085,244.804428 391.133240,243.863907 390.628448,247.855759 
M119.013885,100.482056 
	C118.162407,100.949669 117.310242,101.416046 116.459557,101.885101 
	C110.996239,104.897484 110.844673,105.270622 113.973351,110.615883 
	C115.649094,113.478836 117.547096,116.211693 119.477539,119.209389 
	C121.425514,117.897125 123.228348,116.568810 125.140320,115.422546 
	C127.709381,113.882355 131.622101,113.030540 132.572495,110.845589 
	C133.303482,109.165054 130.333908,105.892075 129.042130,103.311104 
	C125.928154,97.089447 125.935768,97.085640 119.013885,100.482056 
M428.400055,396.902771 
	C425.328339,386.109650 421.077881,383.808716 412.910370,388.584137 
	C410.915924,389.750305 409.037354,391.114624 406.821014,392.575317 
	C408.372437,395.044830 410.012573,397.323059 411.308411,399.782745 
	C414.743439,406.303101 414.663452,406.298737 420.620270,402.811890 
	C422.436737,401.748596 424.466461,401.047760 426.274017,399.971802 
	C427.273132,399.377106 428.014374,398.349274 428.400055,396.902771 
M179.125595,207.616791 
	C177.370453,206.032318 175.699738,203.151505 173.222260,206.532883 
	C171.290070,209.169998 169.897995,212.198532 168.018219,214.879440 
	C165.681442,218.212097 167.838730,220.264893 170.353485,220.809769 
	C174.522293,221.713013 177.864914,227.979126 182.880814,223.260620 
	C184.638016,221.607574 185.801895,219.244949 186.968719,217.063049 
	C188.446732,214.299225 189.174835,211.514893 185.202423,210.014465 
	C183.405121,209.335587 181.615784,208.635620 179.125595,207.616791 
M221.474014,468.021301 
	C222.951019,465.549744 224.428040,463.078217 226.049469,460.364990 
	C221.240356,457.802216 216.504791,455.278595 211.312439,452.511566 
	C208.549454,457.346680 206.010437,461.789856 203.387451,466.379974 
	C208.514328,469.281982 212.776886,471.694794 217.242096,474.222260 
	C218.609940,472.234039 219.837341,470.449951 221.474014,468.021301 
M73.018517,203.256760 
	C74.476341,205.185516 74.839844,208.989746 78.825645,206.488556 
	C82.397415,204.247177 86.040855,202.120010 90.044998,199.705933 
	C88.135757,196.281891 86.059410,192.258286 83.641449,188.451645 
	C83.098129,187.596268 81.024315,186.792007 80.229591,187.170502 
	C75.865936,189.248856 71.680939,191.702332 66.795792,194.376740 
	C69.376907,197.818558 71.138710,200.167847 73.018517,203.256760 
M298.007172,428.554626 
	C295.025757,426.897980 291.942108,425.398163 289.091949,423.540100 
	C286.305664,421.723755 284.475830,421.936249 282.931946,425.067841 
	C281.208160,428.564301 279.184845,431.913055 277.157196,435.568970 
	C281.767090,438.089996 286.528961,440.694153 291.219421,443.259247 
	C293.088867,440.717468 294.870148,438.839478 295.988495,436.626495 
	C297.174896,434.278870 297.731812,431.613068 298.007172,428.554626 
M359.614380,83.914291 
	C357.267303,82.969604 353.203857,80.781723 352.845001,81.277153 
	C350.008789,85.192780 347.878845,89.619972 345.458252,94.023476 
	C349.491913,96.241348 352.866760,98.402679 356.503906,99.945885 
	C357.951904,100.560257 360.996307,100.457222 361.568085,99.563644 
	C364.020477,95.731079 365.822815,91.482567 367.725037,87.660995 
	C365.274506,86.459991 362.825653,85.259819 359.614380,83.914291 
M140.075409,314.452332 
	C141.859055,317.584778 143.479263,320.832306 145.544785,323.766296 
	C146.041946,324.472504 148.249588,324.655304 149.268723,324.192932 
	C153.223801,322.398590 157.016846,320.247070 161.298996,318.003906 
	C159.290451,314.512756 156.808167,310.978455 155.163513,307.089874 
	C153.873489,304.039764 152.420975,304.105499 150.089508,305.428284 
	C146.768936,307.312195 143.379181,309.081268 140.142639,311.097839 
	C139.707947,311.368713 139.993698,312.795868 140.075409,314.452332 
M351.450684,344.051819 
	C351.990692,342.915802 352.530731,341.779785 352.853699,341.100342 
	C348.994446,338.868744 345.488678,336.629578 341.775177,334.815643 
	C340.566071,334.224976 337.894928,334.165802 337.463715,334.851532 
	C335.025604,338.728973 333.065094,342.906738 330.786560,347.280396 
	C336.107330,349.688538 340.218781,354.542236 346.024658,353.955536 
	C347.937531,350.460815 349.504456,347.598145 351.450684,344.051819 
M399.568573,332.926819 
	C399.603210,331.063995 400.373779,328.066315 399.547760,327.530640 
	C395.517639,324.917084 391.061157,322.961029 387.237091,321.017151 
	C385.199493,324.266754 383.507538,327.183472 381.601135,329.952606 
	C378.973602,333.769104 379.501648,335.454834 383.909729,337.459534 
	C386.263336,338.529938 388.551270,339.806091 390.707794,341.232849 
	C393.413147,343.022736 394.797302,341.921875 395.939728,339.402435 
	C396.859680,337.373688 397.985992,335.438477 399.568573,332.926819 
M200.939804,229.263062 
	C199.920273,231.263672 198.900742,233.264282 197.838242,235.349197 
	C200.859680,237.382141 203.740646,239.225632 206.518402,241.213333 
	C210.071869,243.756073 212.524872,242.458832 214.407242,239.099426 
	C216.171219,235.951279 217.844467,232.752304 219.700241,229.311279 
	C215.334305,226.919952 210.584183,224.318207 205.713882,221.650650 
	C203.992218,224.154541 202.499863,226.324905 200.939804,229.263062 
M382.512878,100.005226 
	C380.546021,102.955254 378.433319,105.824493 376.720825,108.915436 
	C376.321594,109.636017 376.935120,111.711105 377.674377,112.137817 
	C381.864685,114.556465 386.234863,116.663544 390.539368,118.874405 
	C393.042664,114.482918 395.577271,110.036491 398.033508,105.727554 
	C396.657959,104.421288 395.795166,103.002220 394.576324,102.556305 
	C390.836884,101.188240 387.922485,96.500175 382.512878,100.005226 
M164.603577,353.990814 
	C169.402588,351.994263 174.201599,349.997681 179.426239,347.824036 
	C176.662552,343.114258 174.549530,339.107269 171.967010,335.430054 
	C171.401337,334.624603 168.864166,334.386261 167.749985,334.934143 
	C164.170181,336.694519 160.831482,338.945129 156.545715,341.519653 
	C158.808823,345.396545 161.309006,349.679565 164.603577,353.990814 
M185.319336,438.093567 
	C183.524078,437.233704 181.728836,436.373840 180.267090,435.673737 
	C177.496368,440.597565 175.115631,444.828339 172.689514,449.139771 
	C178.006653,452.169281 182.422363,456.365265 188.432709,455.923920 
	C189.192474,454.042206 189.623108,452.641388 190.294266,451.367279 
	C194.855759,442.707825 194.872116,442.716431 185.319336,438.093567 
M172.589691,300.083221 
	C174.318115,303.084839 176.046539,306.086426 177.339813,308.332367 
	C181.333298,306.413391 185.029999,304.930420 188.375916,302.876068 
	C189.608963,302.118958 191.051941,299.524353 190.619370,298.608093 
	C188.663239,294.464691 186.070114,290.621979 183.746124,286.737366 
	C178.448914,289.752502 173.734100,292.436127 169.093460,295.077545 
	C170.284729,296.842499 171.186356,298.178314 172.589691,300.083221 
M335.131439,445.570312 
	C333.445587,442.811493 331.854584,439.986725 330.010956,437.337708 
	C329.515472,436.625763 327.962311,435.846527 327.386475,436.122925 
	C323.290894,438.088501 317.200378,439.492706 315.945251,442.712769 
	C314.817963,445.604950 318.884949,450.675964 321.049652,454.569550 
	C321.493134,455.367340 323.930634,455.824982 324.987427,455.369171 
	C328.138855,454.010010 331.215179,452.332275 333.992004,450.324219 
	C335.018890,449.581604 335.130676,447.573456 335.131439,445.570312 
M214.588562,427.070068 
	C211.514877,428.243347 208.863190,429.491028 211.751877,433.445770 
	C213.964813,436.475433 215.897324,439.709930 218.333359,443.432129 
	C222.140167,441.181641 225.813934,438.710693 229.749481,436.770844 
	C233.386978,434.977814 231.765747,433.092560 230.304764,431.111725 
	C229.856781,430.504364 228.803833,430.333008 228.381226,429.718872 
	C226.653885,427.208679 225.290527,422.737488 223.365250,422.503113 
	C220.909058,422.204132 218.039597,425.300262 214.588562,427.070068 
M141.982452,431.575958 
	C146.620575,434.579803 151.258698,437.583618 155.464813,440.307678 
	C157.306961,437.731049 158.861710,436.083405 159.783569,434.136169 
	C160.988693,431.590607 163.176773,427.153839 162.354248,426.416199 
	C158.942444,423.356567 154.665222,421.125244 150.395554,419.325653 
	C149.838623,419.090912 147.462753,423.113495 145.963882,425.189087 
	C144.624695,427.043579 143.333237,428.932556 141.982452,431.575958 
M116.945587,405.305878 
	C115.444839,407.543610 113.647751,409.649719 112.570503,412.075500 
	C112.045303,413.258179 112.315323,415.767365 113.173912,416.411285 
	C115.905609,418.459839 119.016861,420.054108 122.124802,421.520020 
	C123.161720,422.009064 125.360069,422.094757 125.784241,421.491150 
	C128.635773,417.433472 131.152451,413.140472 133.508987,409.355225 
	C129.226257,406.976624 125.860703,405.606934 123.118431,403.446228 
	C120.281425,401.210876 118.585960,401.407623 116.945587,405.305878 
M193.015030,400.542816 
	C195.298370,405.015839 197.581711,409.488892 200.010864,414.247559 
	C205.366989,411.279785 210.142242,408.633881 214.490738,406.224426 
	C212.773834,403.059448 211.121994,399.983521 209.440720,396.923767 
	C207.735733,393.820892 205.745361,391.871033 201.999664,394.436279 
	C199.153732,396.385315 196.070679,397.988098 193.015030,400.542816 
M206.944305,60.616100 
	C207.973938,62.139732 208.859314,63.794994 210.085739,65.139069 
	C210.857361,65.984718 212.532516,67.134460 213.130997,66.829651 
	C217.610092,64.548378 221.921768,61.938385 225.586487,59.833111 
	C223.556732,55.958786 221.812378,52.843258 220.274429,49.628975 
	C218.937531,46.834896 216.938568,45.811367 214.251480,47.375286 
	C210.796387,49.386192 207.529495,51.720474 203.805420,54.162045 
	C204.628204,55.945621 205.562027,57.969917 206.944305,60.616100 
M428.484222,353.005035 
	C429.641479,350.731873 432.051208,348.152771 431.592377,346.274323 
	C431.161377,344.509918 427.721283,343.450439 425.565308,342.146759 
	C423.776215,341.064850 422.004486,339.880615 420.071503,339.145508 
	C419.269073,338.840393 417.590424,339.251953 417.128815,339.910950 
	C415.050323,342.878418 413.096191,345.967041 411.480804,349.203461 
	C411.012451,350.141754 411.366608,352.308075 412.125183,352.886383 
	C414.302612,354.546387 417.062988,355.435852 419.263306,357.072937 
	C424.217194,360.758667 426.281250,357.728363 428.484222,353.005035 
M417.072968,168.427383 
	C417.443085,169.152435 417.840485,169.865005 418.179016,170.604523 
	C420.666626,176.038895 421.522583,175.558289 425.864502,172.998154 
	C428.892975,171.212448 431.852264,169.309464 435.313995,167.167053 
	C432.680664,162.773422 430.041840,158.370621 427.091492,153.448090 
	C422.223969,156.255203 417.616272,158.912476 412.689606,161.753693 
	C414.208252,163.866058 415.576569,165.769348 417.072968,168.427383 
M438.003662,201.497025 
	C439.076599,198.986206 440.149536,196.475403 441.396240,193.557999 
	C437.561798,191.557602 433.973602,189.733505 430.432037,187.822891 
	C427.610382,186.300644 426.116211,187.265320 424.892365,190.071289 
	C423.409119,193.472046 421.465149,196.671875 419.677124,200.040451 
	C424.120331,202.578796 428.813416,205.259888 433.277130,207.809952 
	C434.940308,205.827072 436.431610,204.049072 438.003662,201.497025 
M95.918068,115.518738 
	C94.233200,115.819878 92.411072,115.811249 90.891174,116.484703 
	C87.403778,118.029945 84.063728,119.907722 80.230255,121.872772 
	C82.207573,125.433762 84.317444,129.003372 86.191971,132.692551 
	C87.385460,135.041397 88.830460,135.732971 91.169731,134.372498 
	C94.794830,132.264191 98.446594,130.201721 102.759361,127.735336 
	C100.409309,123.765747 98.204109,120.040855 95.918068,115.518738 
M184.637405,82.068214 
	C188.114243,80.507072 191.591095,78.945938 195.118423,77.362122 
	C192.836288,73.143692 190.897369,69.055817 188.407120,65.337166 
	C187.837479,64.486504 185.095108,64.295441 183.822922,64.860123 
	C180.039658,66.539391 176.490585,68.746239 172.552414,70.910431 
	C174.829361,74.878372 177.246536,78.339417 178.877533,82.138016 
	C180.610748,86.174652 182.117233,85.098282 184.637405,82.068214 
M296.125366,225.645569 
	C294.106232,227.065491 292.087097,228.485413 289.997803,229.954666 
	C292.497375,234.354660 294.979706,238.724319 297.857666,243.790375 
	C302.822632,240.690170 307.461151,237.793823 312.000122,234.959641 
	C309.237030,230.355301 306.681641,226.097107 304.007843,221.641586 
	C301.325562,222.911636 298.997406,224.014038 296.125366,225.645569 
M154.993607,202.417633 
	C155.851685,200.058762 156.709778,197.699905 157.559998,195.362610 
	C152.983398,192.723129 148.477829,190.124619 144.050858,187.571442 
	C141.280533,191.819656 138.800385,195.491196 136.503510,199.274002 
	C136.118011,199.908890 136.192230,201.576096 136.618744,201.834595 
	C140.982300,204.479263 145.462616,206.931274 149.496399,209.203934 
	C151.431122,206.786667 152.949600,204.889435 154.993607,202.417633 
M81.534172,353.984253 
	C83.660294,356.445953 84.554680,361.316284 89.630814,357.719513 
	C92.837448,355.447449 96.319710,353.564392 99.272591,351.755371 
	C98.091339,349.315521 96.773483,346.919861 95.746140,344.405518 
	C93.406540,338.679474 90.177330,337.580261 85.071724,340.985931 
	C82.730888,342.547333 80.449196,344.197388 77.769890,346.065826 
	C78.827171,348.387146 79.957779,350.869446 81.534172,353.984253 
M385.532318,403.973663 
	C382.326111,405.653900 379.119873,407.334137 376.149261,408.890930 
	C377.859741,412.357910 379.296509,415.677521 381.096710,418.786682 
	C382.475311,421.167725 384.113800,423.237061 387.543671,421.154144 
	C390.927734,419.098999 394.626801,417.562531 398.659210,415.564941 
	C396.108948,411.410339 393.788605,407.923553 391.779388,404.265900 
	C390.120361,401.245697 388.335175,401.246674 385.532318,403.973663 
M388.974121,189.801376 
	C390.485107,189.900818 392.201294,190.512527 393.469086,190.004761 
	C397.458801,188.406906 401.280090,186.388565 405.233002,184.501266 
	C402.010529,179.641388 399.076263,175.216187 396.307404,171.040421 
	C392.356995,172.939697 388.660217,174.453506 385.280396,176.492676 
	C384.177795,177.157913 382.998749,179.592285 383.412964,180.527023 
	C384.757751,183.561768 386.824493,186.276596 388.974121,189.801376 
M372.938843,277.329926 
	C370.611969,281.090729 368.285126,284.851532 366.020386,288.511932 
	C371.562134,291.382477 375.903381,293.631165 380.477753,296.000610 
	C383.180389,291.480804 385.906372,286.921906 388.586060,282.440460 
	C384.720001,280.269775 381.007538,277.990356 377.098633,276.121979 
	C376.066925,275.628845 374.428864,276.404358 372.938843,277.329926 
M337.326233,221.954987 
	C342.943481,218.643372 343.133270,217.970505 339.813446,212.499039 
	C338.564056,210.439926 337.447327,208.229752 335.833435,206.494537 
	C335.111786,205.718658 333.013855,205.343384 332.057556,205.821198 
	C328.402802,207.647247 324.958282,209.893997 320.669373,212.437943 
	C322.215179,215.161514 324.459076,218.121109 325.649872,221.456650 
	C327.254333,225.950912 329.844666,225.593185 333.143250,223.965851 
	C334.311676,223.389435 335.427185,222.705704 337.326233,221.954987 
M122.612762,175.941177 
	C119.374763,174.187332 116.136757,172.433487 112.808197,170.630585 
	C110.896469,173.996292 109.344719,177.139435 107.412865,180.028397 
	C104.827553,183.894592 106.434433,185.984665 110.053513,187.546722 
	C111.387802,188.122635 112.669899,188.819580 113.975403,189.462112 
	C119.222557,192.044800 120.441437,191.594589 122.967682,186.196808 
	C123.514320,185.028809 123.870041,183.567963 124.784615,182.810822 
	C128.772614,179.509399 126.701920,177.696838 122.612762,175.941177 
M302.643463,468.065216 
	C303.258759,466.700226 304.743317,464.949738 304.338593,464.037079 
	C302.606415,460.131042 300.317230,456.471954 297.993134,452.295044 
	C292.760468,455.229980 288.075592,457.857635 283.572083,460.383575 
	C286.429962,465.039978 289.184235,469.527557 292.101318,474.280457 
	C295.508148,472.290344 298.758209,470.391785 302.643463,468.065216 
M131.532364,294.099640 
	C133.746704,293.070740 135.866928,291.617432 138.194946,291.101105 
	C143.083038,290.017029 142.537949,287.198700 141.021545,283.852509 
	C140.300888,282.262268 139.744385,280.491943 138.642639,279.206909 
	C137.270386,277.606384 135.059174,275.017090 133.830200,275.325470 
	C130.294754,276.212616 126.869514,278.050903 123.835419,280.144958 
	C122.779877,280.873474 122.243057,283.733124 122.776382,285.115021 
	C124.152077,288.679565 126.195496,291.999908 128.180435,295.292206 
	C128.352631,295.577850 130.061951,294.936737 131.532364,294.099640 
M305.583771,393.926361 
	C304.419098,393.832703 302.482178,393.270996 302.210785,393.718750 
	C299.827820,397.650269 297.741791,401.761749 295.501251,405.944122 
	C300.361328,408.937561 304.730713,411.628754 308.890747,414.191040 
	C311.900330,409.435577 314.567719,405.220825 317.554047,400.502106 
	C314.002411,398.461029 310.177856,396.263062 305.583771,393.926361 
M247.798538,205.130951 
	C247.429993,210.607758 247.061447,216.084564 246.697464,221.493561 
	C252.499680,221.493561 257.489014,221.493561 261.845459,221.493561 
	C262.164948,216.832733 262.331207,212.704391 262.772186,208.605606 
	C263.041107,206.106003 262.416992,204.914658 259.696899,205.017899 
	C256.053040,205.156189 252.400299,205.060318 247.798538,205.130951 
M247.006104,77.521011 
	C247.006104,80.272743 247.006104,83.024467 247.006104,85.990295 
	C251.598038,85.990295 255.579865,86.226753 259.502930,85.850517 
	C260.727661,85.733070 262.673737,84.042137 262.776123,82.931923 
	C263.164459,78.720467 262.932465,74.451805 262.932465,70.321548 
	C257.320618,70.321548 252.278198,70.321548 247.006058,70.321548 
	C247.006058,72.610924 247.006058,74.580688 247.006104,77.521011 
M257.323792,153.991013 
	C259.212616,153.217300 262.597992,152.643158 262.732391,151.635452 
	C263.328003,147.169464 262.990295,142.579041 262.990295,138.224625 
	C257.290253,138.224625 252.350891,138.224625 247.253983,138.224625 
	C247.253983,143.511139 247.253983,148.562286 247.253983,153.991013 
	C250.463593,153.991013 253.418015,153.991013 257.323792,153.991013 
M262.244385,104.057793 
	C257.309479,104.057793 252.374557,104.057793 247.234436,104.057793 
	C247.234436,109.489456 247.234436,114.535904 247.234436,120.004623 
	C251.562958,120.004623 255.702469,120.283195 259.760529,119.830940 
	C260.942352,119.699226 262.657593,117.561684 262.801025,116.203423 
	C263.198975,112.434944 262.898254,108.592690 262.244385,104.057793 
M263.002350,404.463074 
	C263.002350,402.380096 263.002350,400.297089 263.002350,398.291412 
	C257.412109,398.291412 252.374512,398.291412 247.003555,398.291412 
	C247.003555,401.026886 247.003555,403.476257 247.003555,405.925659 
	C247.003555,408.515198 247.003555,411.104767 247.003555,413.610474 
	C262.827240,415.137817 262.999146,415.045837 263.002350,404.463074 
M261.828613,447.531342 
	C262.208832,443.306488 262.800690,439.081940 262.806854,434.856537 
	C262.808258,433.908203 260.821228,432.235626 259.646149,432.137695 
	C255.577667,431.798645 251.463577,432.006958 247.318375,432.006958 
	C247.318375,437.596222 247.318375,442.636078 247.318375,447.924438 
	C252.087265,447.924438 256.542511,447.924438 261.828613,447.531342 
M257.996124,171.992950 
	C254.413376,171.992950 250.830612,171.992950 247.377075,171.992950 
	C247.377075,177.441437 247.377075,182.666733 247.377075,187.318802 
	C252.766571,187.318802 257.762512,187.318802 262.438904,187.318802 
	C262.438904,182.784363 261.945160,178.833313 262.574005,175.069855 
	C263.239197,171.088669 262.068726,170.656723 257.996124,171.992950 
M253.511414,379.995056 
	C254.842484,379.995056 256.173584,380.001678 257.504608,379.993896 
	C262.833649,379.962738 262.951782,379.622009 262.135651,373.966003 
	C261.842621,371.935364 262.852844,369.722107 262.589233,367.679810 
	C262.420685,366.374207 261.095398,364.265198 260.137970,364.178375 
	C255.902328,363.794250 251.612091,364.012177 247.318726,364.012177 
	C247.318726,369.617310 247.318726,374.668823 247.318726,379.994904 
	C249.275406,379.994904 250.916855,379.994904 253.511414,379.995056 
M260.908539,345.944641 
	C261.591980,345.128754 262.902222,344.274658 262.855194,343.503296 
	C262.589111,339.137054 261.997925,334.790588 261.499878,330.278198 
	C256.798035,330.278198 252.082565,330.278198 247.310989,330.278198 
	C247.310989,335.606537 247.310989,340.654694 247.310989,345.994843 
	C251.744156,345.994843 255.873749,345.994843 260.908539,345.944641 
M247.001022,301.580231 
	C247.001022,304.653717 247.001022,307.727234 247.001022,310.637878 
	C252.416443,310.637878 257.127563,310.637878 261.557556,310.637878 
	C261.999054,306.368622 262.583466,302.487427 262.658691,298.596375 
	C262.675049,297.750397 260.914764,296.194641 259.891479,296.122772 
	C255.801254,295.835449 251.679001,296.004181 247.258881,296.004181 
	C247.161057,297.751709 247.080750,299.186523 247.001022,301.580231 
z"/>
<path fill="#1C242C" opacity="1.000000" stroke="none" 
	d="
M275.439941,263.087311 
	C271.409515,274.632660 261.722473,280.745544 251.030563,278.780365 
	C240.184937,276.786926 232.481232,267.542236 233.015137,257.143707 
	C233.655167,244.678284 251.572388,232.843124 263.552246,240.455948 
	C272.169617,245.931992 276.949158,252.368790 275.439941,263.087311 
z"/>
<path fill="#1C242C" opacity="1.000000" stroke="none" 
	d="
M472.729553,158.726440 
	C464.554962,167.300537 445.636383,166.137497 440.336700,152.473145 
	C437.281433,144.595612 440.222595,135.662399 447.155640,130.895142 
	C454.898590,125.570999 464.655029,125.880745 471.154816,131.657135 
	C479.843384,139.378723 480.515625,149.269730 472.729553,158.726440 
z"/>
<path fill="#1C242C" opacity="1.000000" stroke="none" 
	d="
M441.366028,380.343353 
	C438.138214,373.338684 437.983185,366.763214 442.735229,360.814880 
	C448.521667,353.571808 456.137024,351.071472 464.986847,353.897552 
	C471.046570,355.832642 478.972046,362.910706 478.127838,372.324921 
	C477.409424,380.336151 472.786896,386.624878 464.749207,388.891602 
	C455.010651,391.637939 447.504974,388.462097 441.366028,380.343353 
z"/>
<path fill="#1C242C" opacity="1.000000" stroke="none" 
	d="
M67.289040,156.094879 
	C60.551243,163.937805 52.477440,166.159805 43.296238,162.939072 
	C36.804199,160.661682 30.912933,152.685760 31.018179,146.316376 
	C31.147875,138.467209 36.352394,131.318207 43.440308,128.693100 
	C51.508671,125.704865 60.224609,127.084557 66.211929,134.741440 
	C71.446655,141.435883 71.099457,148.526855 67.289040,156.094879 
z"/>
<path fill="#1C242C" opacity="1.000000" stroke="none" 
	d="
M67.617905,361.655884 
	C70.561928,368.880707 71.616074,375.793152 66.610275,382.159912 
	C60.798172,389.552185 53.035938,391.387604 44.304508,388.802002 
	C36.956440,386.626099 32.636642,381.198273 31.267885,373.838715 
	C29.982807,366.929077 33.400639,361.448517 38.547581,357.372559 
	C48.128777,349.785034 56.610752,351.122803 67.617905,361.655884 
z"/>
<path fill="#1C242C" opacity="1.000000" stroke="none" 
	d="
M266.000336,48.095428 
	C259.180115,53.561424 251.891769,53.096317 245.156174,49.697575 
	C239.366165,46.775974 235.812378,41.686253 235.892609,34.434845 
	C235.968689,27.558802 237.021301,21.272703 243.593826,17.865290 
	C251.271225,13.885060 259.453430,13.264943 266.726929,18.552164 
	C274.963501,24.539492 278.168030,39.159958 266.000336,48.095428 
z"/>
<path fill="#1C242C" opacity="1.000000" stroke="none" 
	d="
M235.998871,483.146484 
	C236.432251,473.346344 240.425049,468.822357 250.396255,466.385651 
	C258.171661,464.485535 266.892883,467.926636 270.854370,474.299835 
	C277.818085,485.502899 272.689240,495.927246 263.099335,501.233734 
	C254.026932,506.253845 240.823975,501.353333 237.079117,491.879364 
	C236.086395,489.367920 236.325073,486.369781 235.998871,483.146484 
z"/>
<path fill="#158BF4" opacity="1.000000" stroke="none" 
	d="
M450.004395,293.047546 
	C450.004364,290.587280 450.004364,288.610626 450.004364,286.319489 
	C455.661285,286.319489 461.051544,286.319489 466.723206,286.319489 
	C466.723206,291.590851 466.723206,296.855194 466.723206,302.574097 
	C461.494019,302.574097 456.110809,302.574097 450.004456,302.574097 
	C450.004456,299.713104 450.004456,296.622131 450.004395,293.047546 
z"/>
<path fill="#07D4D8" opacity="1.000000" stroke="none" 
	d="
M48.194923,303.009308 
	C43.550514,303.572174 41.497402,302.141876 41.920029,297.555298 
	C42.250774,293.965820 41.986324,290.321533 41.986324,286.358093 
	C47.818188,286.358093 53.181267,286.358093 58.775761,286.358093 
	C58.775761,291.720764 58.775761,296.984863 58.775761,303.009308 
	C55.469704,303.009308 52.068829,303.009308 48.194923,303.009308 
z"/>
<path fill="#09CADC" opacity="1.000000" stroke="none" 
	d="
M59.001541,328.005402 
	C59.001347,331.114990 59.001347,333.741974 59.001347,337.040924 
	C53.986786,337.040924 49.364071,337.266754 44.795982,336.867523 
	C43.771835,336.777985 42.257812,334.557953 42.144836,333.219513 
	C41.796844,329.096832 42.017963,324.926086 42.017963,320.388855 
	C47.572617,320.388855 52.961910,320.388855 59.001732,320.388855 
	C59.001732,322.670197 59.001732,325.096497 59.001541,328.005402 
z"/>
<path fill="#167FF7" opacity="1.000000" stroke="none" 
	d="
M454.306274,337.010864 
	C452.556885,335.917419 450.294952,334.927216 450.171722,333.718933 
	C449.725006,329.337799 449.995667,324.883545 449.995667,320.235596 
	C455.808533,320.235596 461.171661,320.235596 466.768494,320.235596 
	C466.768494,325.809662 466.768494,331.174530 466.768494,337.014008 
	C462.628601,337.014008 458.701843,337.014008 454.306274,337.010864 
z"/>
<path fill="#0CB9E4" opacity="1.000000" stroke="none" 
	d="
M368.223450,191.622818 
	C370.230835,194.824585 372.048340,197.690186 374.190063,201.067017 
	C369.179443,203.935257 364.143890,206.817780 359.505585,209.472916 
	C357.383636,206.132843 355.792206,203.457062 354.033112,200.896484 
	C350.921478,196.367264 352.124664,193.666656 358.558563,190.949158 
	C359.900757,190.382263 361.280457,189.859268 362.527344,189.120911 
	C365.362762,187.441864 367.389648,187.529907 368.223450,191.622818 
z"/>
<path fill="#0DB2E5" opacity="1.000000" stroke="none" 
	d="
M98.854401,398.911682 
	C97.491318,401.246185 96.475899,403.418030 95.037697,406.494141 
	C90.213974,403.833435 85.204468,401.070221 79.932732,398.162384 
	C82.771568,393.476135 85.317642,389.273132 87.980286,384.877747 
	C91.485657,386.268280 95.102852,387.310608 98.323929,389.075745 
	C102.815384,391.537048 102.835442,393.481781 98.854401,398.911682 
z"/>
<path fill="#07D4D8" opacity="1.000000" stroke="none" 
	d="
M283.273529,153.979401 
	C281.867645,152.973450 280.212280,152.031174 280.130219,150.967499 
	C279.814423,146.873901 280.002167,142.741455 280.002167,138.312256 
	C285.567352,138.312256 290.936279,138.312256 296.653320,138.312256 
	C296.653320,143.256134 296.653320,148.296799 296.653320,153.987289 
	C292.520111,153.987289 288.133392,153.987289 283.273529,153.979401 
z"/>
<path fill="#1493F0" opacity="1.000000" stroke="none" 
	d="
M296.987366,370.078308 
	C296.987335,373.521118 296.987335,376.484619 296.987335,379.723511 
	C291.244690,379.723511 285.858429,379.723511 280.236267,379.723511 
	C280.236267,374.629608 280.236267,369.692505 280.236267,364.375793 
	C285.578583,364.375793 290.965118,364.375793 296.987366,364.375793 
	C296.987366,366.071960 296.987366,367.835480 296.987366,370.078308 
z"/>
<path fill="#10A6EA" opacity="1.000000" stroke="none" 
	d="
M466.567078,184.439316 
	C466.901245,189.705917 466.901245,194.628799 466.901245,199.766708 
	C461.227692,199.766708 455.863464,199.766708 450.250122,199.766708 
	C450.250122,194.630875 450.250122,189.717758 450.250122,184.095596 
	C455.480194,184.095596 460.856567,184.095596 466.567078,184.439316 
z"/>
<path fill="#02EFCE" opacity="1.000000" stroke="none" 
	d="
M59.000275,187.166931 
	C59.000854,191.600739 59.000854,195.550827 59.000854,199.749512 
	C53.204151,199.749512 47.817570,199.749512 42.205940,199.749512 
	C42.205940,194.571777 42.205940,189.512466 42.205940,184.002991 
	C47.100304,184.002991 51.877960,183.875687 56.636082,184.123489 
	C57.466137,184.166733 58.213913,185.789810 59.000275,187.166931 
z"/>
<path fill="#158BF4" opacity="1.000000" stroke="none" 
	d="
M325.914215,363.999939 
	C328.035187,363.999939 329.673096,363.999939 331.655396,363.999939 
	C331.655396,369.265350 331.655396,374.300262 331.655396,379.667480 
	C326.401367,379.667480 321.030914,379.667480 315.325745,379.667480 
	C315.325745,374.741272 315.325745,369.706360 315.325745,363.999969 
	C318.617249,363.999969 322.024200,363.999969 325.914215,363.999939 
z"/>
<path fill="#02EFCE" opacity="1.000000" stroke="none" 
	d="
M78.706665,159.683411 
	C79.752686,157.623688 80.567596,155.877884 81.797997,153.241959 
	C86.397179,155.813416 90.941864,158.103012 95.099335,160.956711 
	C95.705551,161.372803 94.797844,164.641678 94.000694,166.308334 
	C92.699066,169.029755 90.911995,171.518997 88.842842,174.902298 
	C88.194733,174.744217 86.493179,174.570221 85.013741,173.903412 
	C83.393875,173.173325 81.918732,172.068176 80.485451,170.987335 
	C74.182495,166.234207 74.196228,166.215988 78.706665,159.683411 
z"/>
<path fill="#0AC8DE" opacity="1.000000" stroke="none" 
	d="
M362.880981,138.000641 
	C364.798065,138.078705 366.233063,138.156738 367.822083,138.243134 
	C367.822083,143.471985 367.822083,148.380630 367.822083,153.648560 
	C362.319550,153.648560 356.950562,153.648560 351.282593,153.648560 
	C351.282593,148.783340 351.282593,143.738831 351.282593,138.000580 
	C354.933685,138.000580 358.666260,138.000580 362.880981,138.000641 
z"/>
<path fill="#08CDDB" opacity="1.000000" stroke="none" 
	d="
M315.007935,146.968124 
	C315.007935,143.854538 315.007935,141.227127 315.007935,138.301102 
	C320.628754,138.301102 325.998413,138.301102 331.686340,138.301102 
	C331.686340,143.304413 331.686340,148.337875 331.686340,153.685486 
	C326.318512,153.685486 320.949310,153.685486 315.007935,153.685486 
	C315.007935,151.624741 315.007935,149.539520 315.007935,146.968124 
z"/>
<path fill="#1585F6" opacity="1.000000" stroke="none" 
	d="
M367.997589,367.195618 
	C367.999023,371.612946 367.999023,375.549042 367.999023,379.739685 
	C362.299194,379.739685 356.933777,379.739685 351.280396,379.739685 
	C351.280396,374.608429 351.280396,369.582428 351.280396,364.009857 
	C356.121796,364.009857 360.870392,363.878845 365.598511,364.131561 
	C366.441315,364.176605 367.199097,365.812897 367.997589,367.195618 
z"/>
<path fill="#04E5D4" opacity="1.000000" stroke="none" 
	d="
M177.451355,138.440796 
	C182.943832,138.106995 188.092987,138.106995 193.622040,138.106995 
	C193.622040,143.170593 193.622040,148.238968 193.622040,153.661713 
	C188.415039,153.661713 182.895920,153.661713 177.108017,153.661713 
	C177.108017,148.659378 177.108017,143.716995 177.451355,138.440796 
z"/>
<path fill="#04E7D3" opacity="1.000000" stroke="none" 
	d="
M41.999619,223.088257 
	C41.999607,221.162140 41.999607,219.722916 41.999607,218.143524 
	C47.763084,218.143524 53.044270,218.143524 58.662212,218.143524 
	C58.662212,223.201218 58.662212,228.264099 58.662212,233.676361 
	C53.405605,233.676361 48.007324,233.676361 41.999626,233.676361 
	C41.999626,230.428177 41.999626,227.001648 41.999619,223.088257 
z"/>
<path fill="#02EFCE" opacity="1.000000" stroke="none" 
	d="
M105.998886,145.991150 
	C105.998878,143.203857 105.998878,140.896729 105.998878,138.295685 
	C111.680321,138.295685 117.075806,138.295685 122.738190,138.295685 
	C122.738190,143.402023 122.738190,148.458389 122.738190,153.757172 
	C117.249603,153.757172 111.984390,153.757172 105.998901,153.757172 
	C105.998901,151.320557 105.998901,148.895950 105.998886,145.991150 
z"/>
<path fill="#119BED" opacity="1.000000" stroke="none" 
	d="
M466.539734,218.471100 
	C466.874054,223.628555 466.874054,228.445221 466.874054,233.642487 
	C461.426971,233.642487 456.035370,233.642487 450.317352,233.642487 
	C450.317352,228.622314 450.317352,223.570190 450.317352,218.130295 
	C455.659454,218.130295 460.932465,218.130295 466.539734,218.471100 
z"/>
<path fill="#10A6EA" opacity="1.000000" stroke="none" 
	d="
M184.051132,379.980896 
	C181.590302,379.980957 179.613022,379.980957 177.312561,379.980957 
	C177.312561,374.652832 177.312561,369.598297 177.312561,364.269073 
	C182.654297,364.269073 187.929382,364.269073 193.603241,364.269073 
	C193.603241,369.166992 193.603241,374.232635 193.603241,379.980865 
	C190.718445,379.980865 187.626572,379.980865 184.051132,379.980896 
z"/>
<path fill="#167FF7" opacity="1.000000" stroke="none" 
	d="
M391.118896,379.990051 
	C389.201355,379.914825 387.766052,379.839233 386.180176,379.755737 
	C386.180176,374.520294 386.180176,369.602661 386.180176,364.341736 
	C391.548676,364.341736 396.919006,364.341736 402.647156,364.341736 
	C402.647156,369.248749 402.647156,374.285980 402.647156,379.989716 
	C399.065704,379.989716 395.333405,379.989716 391.118896,379.990051 
z"/>
<path fill="#0FABE7" opacity="1.000000" stroke="none" 
	d="
M152.875885,379.996490 
	C148.759827,379.996338 145.127335,379.996338 141.247559,379.996338 
	C141.247559,374.594971 141.247559,369.543396 141.247559,364.244690 
	C146.767685,364.244690 152.035339,364.244690 157.652557,364.244690 
	C157.652557,369.276489 157.652557,374.330475 157.652557,379.745667 
	C156.238876,379.828308 154.799179,379.912476 152.875885,379.996490 
z"/>
<path fill="#0DB2E5" opacity="1.000000" stroke="none" 
	d="
M106.000763,372.966827 
	C106.000671,369.843170 106.000671,367.204803 106.000671,364.287842 
	C111.726456,364.287842 117.117874,364.287842 122.755531,364.287842 
	C122.755531,369.358521 122.755531,374.299072 122.755531,379.622437 
	C117.434837,379.622437 112.038216,379.622437 106.000854,379.622437 
	C106.000854,377.646149 106.000854,375.549103 106.000763,372.966827 
z"/>
<path fill="#05E0D6" opacity="1.000000" stroke="none" 
	d="
M317.586304,71.690842 
	C321.686005,63.152622 321.686005,63.152626 330.171722,67.027946 
	C337.249817,70.260414 337.574127,72.220230 332.600250,78.262253 
	C331.119995,80.060387 330.436279,82.514259 329.195343,85.062416 
	C324.867157,82.760048 320.200989,80.533455 315.932800,77.706078 
	C315.354797,77.323196 316.773254,73.926483 317.586304,71.690842 
z"/>
<path fill="#1493F0" opacity="1.000000" stroke="none" 
	d="
M451.513000,267.778931 
	C450.574219,262.623688 450.060913,257.654541 449.509216,252.313812 
	C455.647736,252.313812 461.005371,252.313812 466.684998,252.313812 
	C466.684998,257.384369 466.684998,262.408752 466.684998,267.965027 
	C461.749207,267.965027 456.843842,267.965027 451.513000,267.778931 
z"/>
<path fill="#05DED5" opacity="1.000000" stroke="none" 
	d="
M94.541679,236.769958 
	C93.851768,236.957306 93.301163,237.102051 93.222717,236.968811 
	C90.492210,232.331451 87.806198,227.667892 85.312485,223.351837 
	C89.708473,220.797150 93.070030,218.965424 96.302864,216.929321 
	C99.308838,215.036087 100.788216,215.939743 102.089134,219.072510 
	C103.480301,222.422607 105.506226,225.509140 107.511436,229.180008 
	C103.125481,231.759964 99.013313,234.178864 94.541679,236.769958 
z"/>
<path fill="#0FABE7" opacity="1.000000" stroke="none" 
	d="
M304.298218,286.307220 
	C301.583679,291.751312 299.582947,292.146973 294.323669,288.596741 
	C292.009918,287.034882 289.658386,285.528961 286.941223,283.746552 
	C289.046204,279.788666 291.236847,275.383118 293.793121,271.201080 
	C294.139435,270.634521 296.532959,270.761993 297.611755,271.301453 
	C301.359131,273.175385 304.944916,275.372375 309.288177,277.842255 
	C307.736420,280.501648 306.133545,283.248627 304.298218,286.307220 
z"/>
<path fill="#0BBBE2" opacity="1.000000" stroke="none" 
	d="
M221.716187,281.520325 
	C221.869431,282.693054 222.157242,284.039673 221.790604,284.251038 
	C217.282578,286.849823 212.678833,289.282623 208.079056,291.769531 
	C205.146561,286.519684 202.662949,282.073456 200.328217,277.893799 
	C204.166092,275.564484 207.633682,273.193481 211.363251,271.353516 
	C212.530670,270.777618 215.131241,271.061371 215.820496,271.938293 
	C218.043930,274.767090 219.682587,278.055481 221.716187,281.520325 
z"/>
<path fill="#05DED5" opacity="1.000000" stroke="none" 
	d="
M59.000137,261.907043 
	C59.000034,264.023987 59.000034,265.663696 59.000034,267.980347 
	C54.059006,267.980347 49.442707,268.211121 44.882366,267.808319 
	C43.822388,267.714661 42.260529,265.532257 42.127621,264.192139 
	C41.751305,260.397675 41.995861,256.541626 41.995861,252.351608 
	C47.440464,252.351608 52.843086,252.351608 59.000244,252.351608 
	C59.000244,255.258102 59.000244,258.343994 59.000137,261.907043 
z"/>
<path fill="#0BC0DF" opacity="1.000000" stroke="none" 
	d="
M386.020721,140.243942 
	C387.139435,139.178391 388.233643,138.133011 389.374695,138.079117 
	C393.657623,137.876755 397.955872,137.998032 402.624390,137.998032 
	C402.624390,143.164246 402.624390,148.203766 402.624390,153.965134 
	C398.195282,153.965134 393.467102,154.151306 388.776489,153.814224 
	C387.792023,153.743469 386.296021,151.821274 386.160828,150.625076 
	C385.791840,147.359482 386.023804,144.025940 386.020721,140.243942 
z"/>
<path fill="#0BBEE2" opacity="1.000000" stroke="none" 
	d="
M120.015686,322.032471 
	C121.038185,321.836151 122.425247,321.679016 122.824120,322.233185 
	C124.922737,325.148773 126.796570,328.228516 128.700119,331.281403 
	C130.486221,334.145905 129.659683,335.873352 126.525574,337.168579 
	C122.991150,338.629211 119.663635,340.590546 116.075325,342.421234 
	C113.882637,339.171021 111.386787,335.515076 108.939461,331.826965 
	C107.531631,329.705322 107.493904,328.071503 110.322746,326.933807 
	C113.600853,325.615448 116.730309,323.927368 120.015686,322.032471 
z"/>
<path fill="#05E0D6" opacity="1.000000" stroke="none" 
	d="
M220.983917,137.999741 
	C223.767670,137.999847 226.066330,137.999847 228.678009,137.999847 
	C228.678009,143.293121 228.678009,148.332489 228.678009,153.998535 
	C224.047028,153.998535 219.301437,154.185242 214.594818,153.840347 
	C213.658020,153.771713 212.230911,151.720413 212.131805,150.494293 
	C211.814270,146.565964 212.013809,142.595825 212.013809,137.999634 
	C215.003494,137.999634 217.751175,137.999634 220.983917,137.999741 
z"/>
<path fill="#03EBD1" opacity="1.000000" stroke="none" 
	d="
M157.988403,151.753525 
	C156.525940,152.818176 155.079895,153.891235 153.614319,153.918594 
	C140.836319,154.157043 140.833130,154.101410 141.025238,141.529785 
	C141.040176,140.553513 141.114822,139.578140 141.175720,138.310791 
	C146.762512,138.310791 152.148148,138.310791 157.995743,138.310791 
	C157.995743,142.702591 157.995743,146.989822 157.988403,151.753525 
z"/>
<path fill="#10A0EC" opacity="1.000000" stroke="none" 
	d="
M228.997070,376.805176 
	C225.241531,383.557404 219.331848,378.324463 214.628708,379.774658 
	C214.211044,379.903412 212.276443,377.175629 212.115311,375.660828 
	C211.732773,372.064514 211.992218,368.399933 211.992218,364.381531 
	C217.498947,364.381531 222.868729,364.381531 228.998093,364.381531 
	C228.998093,368.213928 228.998093,372.269562 228.997070,376.805176 
z"/>
<path fill="#1873FC" opacity="1.000000" stroke="none" 
	d="
M364.278564,426.679749 
	C368.633636,432.417725 368.574066,432.375763 362.209747,435.320038 
	C359.046173,436.783600 356.080627,438.675201 353.047028,440.361267 
	C351.144012,436.779144 349.925598,433.358032 347.776306,430.685608 
	C343.866577,425.824402 347.789825,424.375732 350.865051,422.671478 
	C353.394409,421.269745 356.197113,420.361267 359.815857,418.840271 
	C361.137634,421.182373 362.601624,423.776459 364.278564,426.679749 
z"/>
<path fill="#01F6CC" opacity="1.000000" stroke="none" 
	d="
M157.994080,83.920456 
	C159.690582,86.809959 161.935516,89.119003 162.794952,91.862144 
	C163.940231,95.517670 160.062683,96.439079 157.879669,97.957771 
	C156.078583,99.210754 153.860291,100.266251 151.727173,100.500259 
	C150.272110,100.659889 147.982803,99.672432 147.221832,98.467949 
	C145.097702,95.105820 143.574814,91.363846 141.823563,87.790161 
	C146.654648,85.090736 151.271530,82.511009 156.253098,79.727501 
	C156.854874,81.096779 157.390259,82.315018 157.994080,83.920456 
z"/>
<path fill="#0AC2E0" opacity="1.000000" stroke="none" 
	d="
M407.604797,125.854156 
	C409.248871,123.400597 410.784119,121.314758 411.980438,119.049896 
	C414.870056,113.579170 415.168152,113.503784 420.537537,117.024666 
	C423.203430,118.772804 426.022003,120.288071 429.363739,122.257751 
	C427.100739,126.077705 425.156097,130.554337 422.030975,133.942017 
	C421.032440,135.024445 416.772217,133.577621 414.246674,132.637238 
	C411.704895,131.690781 409.417053,130.004333 407.147186,128.453003 
	C406.832306,128.237793 407.258636,126.938110 407.604797,125.854156 
z"/>
<path fill="#07D4D8" opacity="1.000000" stroke="none" 
	d="
M117.985229,246.060394 
	C120.417892,250.151291 122.772942,253.869354 125.842506,258.715454 
	C121.148094,261.221008 116.790390,263.666779 112.292404,265.819397 
	C111.611107,266.145447 109.832260,265.407776 109.322319,264.649933 
	C107.084801,261.324585 105.071320,257.841858 103.127167,254.332779 
	C102.831688,253.799454 103.091728,252.324554 103.495003,252.134552 
	C108.255066,249.891861 113.091377,247.811020 117.985229,246.060394 
z"/>
<path fill="#1295F0" opacity="1.000000" stroke="none" 
	d="
M357.791321,323.309875 
	C354.500916,321.340027 351.506439,319.621796 348.201050,317.725128 
	C350.187469,314.213593 352.115753,309.844208 354.915405,306.131989 
	C357.593842,302.580383 360.581299,305.910919 363.105194,307.113190 
	C365.471039,308.240234 367.449463,310.180603 370.345215,312.313049 
	C368.233704,316.183380 366.110748,320.546539 363.412689,324.519135 
	C363.000702,325.125732 359.928925,323.925842 357.791321,323.309875 
z"/>
<path fill="#10A0EC" opacity="1.000000" stroke="none" 
	d="
M334.263367,305.181335 
	C333.098358,306.579193 332.199249,307.719635 331.465210,308.650726 
	C326.881653,306.017487 322.311035,303.391693 317.377258,300.557281 
	C320.348633,295.656311 322.935669,291.389252 325.619385,286.962769 
	C330.531555,289.629303 335.394226,292.268951 339.992462,294.765076 
	C337.915344,298.627563 336.222351,301.775757 334.263367,305.181335 
z"/>
<path fill="#10A6EA" opacity="1.000000" stroke="none" 
	d="
M412.986084,216.995087 
	C416.290710,218.717407 419.404938,220.141891 422.051483,222.175110 
	C422.932983,222.852325 423.299683,225.449692 422.721313,226.547302 
	C420.842712,230.112457 418.417511,233.389587 415.860596,237.300964 
	C411.336914,234.729904 406.638611,232.059601 401.621735,229.208237 
	C403.946106,225.120071 405.958435,221.174149 408.435242,217.545242 
	C408.972565,216.758011 411.176758,217.108398 412.986084,216.995087 
z"/>
<path fill="#03EBD1" opacity="1.000000" stroke="none" 
	d="
M304.357208,57.176838 
	C302.250702,60.682877 300.410736,63.899128 298.173340,67.810028 
	C293.125977,65.056503 288.411621,62.484661 283.571533,59.844215 
	C286.489960,54.858028 289.026825,50.523705 291.720215,45.922043 
	C295.618164,47.970318 299.675049,49.808300 303.351074,52.225483 
	C304.360565,52.889286 304.230774,55.285698 304.357208,57.176838 
z"/>
<path fill="#10A0EC" opacity="1.000000" stroke="none" 
	d="
M390.786194,247.502045 
	C391.133240,243.863907 392.637085,244.804428 394.466278,245.932098 
	C397.355499,247.713272 400.200226,249.762802 403.355133,250.864212 
	C406.827209,252.076370 406.274078,253.840042 404.944000,256.047028 
	C402.996674,259.278046 400.915161,262.428253 398.309692,266.527252 
	C394.298798,264.429504 389.718597,262.146790 385.312592,259.566650 
	C384.837189,259.288239 384.993561,257.080322 385.510345,256.118530 
	C387.040894,253.269974 388.898651,250.597229 390.786194,247.502045 
z"/>
<path fill="#01F6CC" opacity="1.000000" stroke="none" 
	d="
M119.334305,100.267258 
	C125.935768,97.085640 125.928154,97.089447 129.042130,103.311104 
	C130.333908,105.892075 133.303482,109.165054 132.572495,110.845589 
	C131.622101,113.030540 127.709381,113.882355 125.140320,115.422546 
	C123.228348,116.568810 121.425514,117.897125 119.477539,119.209389 
	C117.547096,116.211693 115.649094,113.478836 113.973351,110.615883 
	C110.844673,105.270622 110.996239,104.897484 116.459557,101.885101 
	C117.310242,101.416046 118.162407,100.949669 119.334305,100.267258 
z"/>
<path fill="#1873FC" opacity="1.000000" stroke="none" 
	d="
M428.635925,397.209717 
	C428.014374,398.349274 427.273132,399.377106 426.274017,399.971802 
	C424.466461,401.047760 422.436737,401.748596 420.620270,402.811890 
	C414.663452,406.298737 414.743439,406.303101 411.308411,399.782745 
	C410.012573,397.323059 408.372437,395.044830 406.821014,392.575317 
	C409.037354,391.114624 410.915924,389.750305 412.910370,388.584137 
	C421.077881,383.808716 425.328339,386.109650 428.635925,397.209717 
z"/>
<path fill="#07D4D8" opacity="1.000000" stroke="none" 
	d="
M179.474213,207.781006 
	C181.615784,208.635620 183.405121,209.335587 185.202423,210.014465 
	C189.174835,211.514893 188.446732,214.299225 186.968719,217.063049 
	C185.801895,219.244949 184.638016,221.607574 182.880814,223.260620 
	C177.864914,227.979126 174.522293,221.713013 170.353485,220.809769 
	C167.838730,220.264893 165.681442,218.212097 168.018219,214.879440 
	C169.897995,212.198532 171.290070,209.169998 173.222260,206.532883 
	C175.699738,203.151505 177.370453,206.032318 179.474213,207.781006 
z"/>
<path fill="#1585F6" opacity="1.000000" stroke="none" 
	d="
M221.269379,468.343567 
	C219.837341,470.449951 218.609940,472.234039 217.242096,474.222260 
	C212.776886,471.694794 208.514328,469.281982 203.387451,466.379974 
	C206.010437,461.789856 208.549454,457.346680 211.312439,452.511566 
	C216.504791,455.278595 221.240356,457.802216 226.049469,460.364990 
	C224.428040,463.078217 222.951019,465.549744 221.269379,468.343567 
z"/>
<path fill="#03EBD1" opacity="1.000000" stroke="none" 
	d="
M72.959518,202.886948 
	C71.138710,200.167847 69.376907,197.818558 66.795792,194.376740 
	C71.680939,191.702332 75.865936,189.248856 80.229591,187.170502 
	C81.024315,186.792007 83.098129,187.596268 83.641449,188.451645 
	C86.059410,192.258286 88.135757,196.281891 90.044998,199.705933 
	C86.040855,202.120010 82.397415,204.247177 78.825645,206.488556 
	C74.839844,208.989746 74.476341,205.185516 72.959518,202.886948 
z"/>
<path fill="#167FF7" opacity="1.000000" stroke="none" 
	d="
M298.285400,428.820435 
	C297.731812,431.613068 297.174896,434.278870 295.988495,436.626495 
	C294.870148,438.839478 293.088867,440.717468 291.219421,443.259247 
	C286.528961,440.694153 281.767090,438.089996 277.157196,435.568970 
	C279.184845,431.913055 281.208160,428.564301 282.931946,425.067841 
	C284.475830,421.936249 286.305664,421.723755 289.091949,423.540100 
	C291.942108,425.398163 295.025757,426.897980 298.285400,428.820435 
z"/>
<path fill="#07D7D7" opacity="1.000000" stroke="none" 
	d="
M359.995605,83.986969 
	C362.825653,85.259819 365.274506,86.459991 367.725037,87.660995 
	C365.822815,91.482567 364.020477,95.731079 361.568085,99.563644 
	C360.996307,100.457222 357.951904,100.560257 356.503906,99.945885 
	C352.866760,98.402679 349.491913,96.241348 345.458252,94.023476 
	C347.878845,89.619972 350.008789,85.192780 352.845001,81.277153 
	C353.203857,80.781723 357.267303,82.969604 359.995605,83.986969 
z"/>
<path fill="#0BBEE2" opacity="1.000000" stroke="none" 
	d="
M140.010620,314.069946 
	C139.993698,312.795868 139.707947,311.368713 140.142639,311.097839 
	C143.379181,309.081268 146.768936,307.312195 150.089508,305.428284 
	C152.420975,304.105499 153.873489,304.039764 155.163513,307.089874 
	C156.808167,310.978455 159.290451,314.512756 161.298996,318.003906 
	C157.016846,320.247070 153.223801,322.398590 149.268723,324.192932 
	C148.249588,324.655304 146.041946,324.472504 145.544785,323.766296 
	C143.479263,320.832306 141.859055,317.584778 140.010620,314.069946 
z"/>
<path fill="#1390F1" opacity="1.000000" stroke="none" 
	d="
M351.261017,344.393646 
	C349.504456,347.598145 347.937531,350.460815 346.024658,353.955536 
	C340.218781,354.542236 336.107330,349.688538 330.786560,347.280396 
	C333.065094,342.906738 335.025604,338.728973 337.463715,334.851532 
	C337.894928,334.165802 340.566071,334.224976 341.775177,334.815643 
	C345.488678,336.629578 348.994446,338.868744 352.853699,341.100342 
	C352.530731,341.779785 351.990692,342.915802 351.261017,344.393646 
z"/>
<path fill="#158BF4" opacity="1.000000" stroke="none" 
	d="
M399.294678,333.194275 
	C397.985992,335.438477 396.859680,337.373688 395.939728,339.402435 
	C394.797302,341.921875 393.413147,343.022736 390.707794,341.232849 
	C388.551270,339.806091 386.263336,338.529938 383.909729,337.459534 
	C379.501648,335.454834 378.973602,333.769104 381.601135,329.952606 
	C383.507538,327.183472 385.199493,324.266754 387.237091,321.017151 
	C391.061157,322.961029 395.517639,324.917084 399.547760,327.530640 
	C400.373779,328.066315 399.603210,331.063995 399.294678,333.194275 
z"/>
<path fill="#09CADC" opacity="1.000000" stroke="none" 
	d="
M200.973663,228.879181 
	C202.499863,226.324905 203.992218,224.154541 205.713882,221.650650 
	C210.584183,224.318207 215.334305,226.919952 219.700241,229.311279 
	C217.844467,232.752304 216.171219,235.951279 214.407242,239.099426 
	C212.524872,242.458832 210.071869,243.756073 206.518402,241.213333 
	C203.740646,239.225632 200.859680,237.382141 197.838242,235.349197 
	C198.900742,233.264282 199.920273,231.263672 200.973663,228.879181 
z"/>
<path fill="#08CDDB" opacity="1.000000" stroke="none" 
	d="
M382.772552,99.732498 
	C387.922485,96.500175 390.836884,101.188240 394.576324,102.556305 
	C395.795166,103.002220 396.657959,104.421288 398.033508,105.727554 
	C395.577271,110.036491 393.042664,114.482918 390.539368,118.874405 
	C386.234863,116.663544 381.864685,114.556465 377.674377,112.137817 
	C376.935120,111.711105 376.321594,109.636017 376.720825,108.915436 
	C378.433319,105.824493 380.546021,102.955254 382.772552,99.732498 
z"/>
<path fill="#0DB2E5" opacity="1.000000" stroke="none" 
	d="
M164.206390,353.976685 
	C161.309006,349.679565 158.808823,345.396545 156.545715,341.519653 
	C160.831482,338.945129 164.170181,336.694519 167.749985,334.934143 
	C168.864166,334.386261 171.401337,334.624603 171.967010,335.430054 
	C174.549530,339.107269 176.662552,343.114258 179.426239,347.824036 
	C174.201599,349.997681 169.402588,351.994263 164.206390,353.976685 
z"/>
<path fill="#1390F1" opacity="1.000000" stroke="none" 
	d="
M185.644287,438.306885 
	C194.872116,442.716431 194.855759,442.707825 190.294266,451.367279 
	C189.623108,452.641388 189.192474,454.042206 188.432709,455.923920 
	C182.422363,456.365265 178.006653,452.169281 172.689514,449.139771 
	C175.115631,444.828339 177.496368,440.597565 180.267090,435.673737 
	C181.728836,436.373840 183.524078,437.233704 185.644287,438.306885 
z"/>
<path fill="#0BBEE2" opacity="1.000000" stroke="none" 
	d="
M172.338837,299.798706 
	C171.186356,298.178314 170.284729,296.842499 169.093460,295.077545 
	C173.734100,292.436127 178.448914,289.752502 183.746124,286.737366 
	C186.070114,290.621979 188.663239,294.464691 190.619370,298.608093 
	C191.051941,299.524353 189.608963,302.118958 188.375916,302.876068 
	C185.029999,304.930420 181.333298,306.413391 177.339813,308.332367 
	C176.046539,306.086426 174.318115,303.084839 172.338837,299.798706 
z"/>
<path fill="#1875FA" opacity="1.000000" stroke="none" 
	d="
M335.395630,445.856384 
	C335.130676,447.573456 335.018890,449.581604 333.992004,450.324219 
	C331.215179,452.332275 328.138855,454.010010 324.987427,455.369171 
	C323.930634,455.824982 321.493134,455.367340 321.049652,454.569550 
	C318.884949,450.675964 314.817963,445.604950 315.945251,442.712769 
	C317.200378,439.492706 323.290894,438.088501 327.386475,436.122925 
	C327.962311,435.846527 329.515472,436.625763 330.010956,437.337708 
	C331.854584,439.986725 333.445587,442.811493 335.395630,445.856384 
z"/>
<path fill="#158BF4" opacity="1.000000" stroke="none" 
	d="
M214.968414,427.001526 
	C218.039597,425.300262 220.909058,422.204132 223.365250,422.503113 
	C225.290527,422.737488 226.653885,427.208679 228.381226,429.718872 
	C228.803833,430.333008 229.856781,430.504364 230.304764,431.111725 
	C231.765747,433.092560 233.386978,434.977814 229.749481,436.770844 
	C225.813934,438.710693 222.140167,441.181641 218.333359,443.432129 
	C215.897324,439.709930 213.964813,436.475433 211.751877,433.445770 
	C208.863190,429.491028 211.514877,428.243347 214.968414,427.001526 
z"/>
<path fill="#119BED" opacity="1.000000" stroke="none" 
	d="
M142.001572,431.191132 
	C143.333237,428.932556 144.624695,427.043579 145.963882,425.189087 
	C147.462753,423.113495 149.838623,419.090912 150.395554,419.325653 
	C154.665222,421.125244 158.942444,423.356567 162.354248,426.416199 
	C163.176773,427.153839 160.988693,431.590607 159.783569,434.136169 
	C158.861710,436.083405 157.306961,437.731049 155.464813,440.307678 
	C151.258698,437.583618 146.620575,434.579803 142.001572,431.191132 
z"/>
<path fill="#10A6EA" opacity="1.000000" stroke="none" 
	d="
M117.004044,404.925415 
	C118.585960,401.407623 120.281425,401.210876 123.118431,403.446228 
	C125.860703,405.606934 129.226257,406.976624 133.508987,409.355225 
	C131.152451,413.140472 128.635773,417.433472 125.784241,421.491150 
	C125.360069,422.094757 123.161720,422.009064 122.124802,421.520020 
	C119.016861,420.054108 115.905609,418.459839 113.173912,416.411285 
	C112.315323,415.767365 112.045303,413.258179 112.570503,412.075500 
	C113.647751,409.649719 115.444839,407.543610 117.004044,404.925415 
z"/>
<path fill="#1199EE" opacity="1.000000" stroke="none" 
	d="
M193.054077,400.143860 
	C196.070679,397.988098 199.153732,396.385315 201.999664,394.436279 
	C205.745361,391.871033 207.735733,393.820892 209.440720,396.923767 
	C211.121994,399.983521 212.773834,403.059448 214.490738,406.224426 
	C210.142242,408.633881 205.366989,411.279785 200.010864,414.247559 
	C197.581711,409.488892 195.298370,405.015839 193.054077,400.143860 
z"/>
<path fill="#01F6CC" opacity="1.000000" stroke="none" 
	d="
M206.720093,60.305157 
	C205.562027,57.969917 204.628204,55.945621 203.805420,54.162045 
	C207.529495,51.720474 210.796387,49.386192 214.251480,47.375286 
	C216.938568,45.811367 218.937531,46.834896 220.274429,49.628975 
	C221.812378,52.843258 223.556732,55.958786 225.586487,59.833111 
	C221.921768,61.938385 217.610092,64.548378 213.130997,66.829651 
	C212.532516,67.134460 210.857361,65.984718 210.085739,65.139069 
	C208.859314,63.794994 207.973938,62.139732 206.720093,60.305157 
z"/>
<path fill="#167FF7" opacity="1.000000" stroke="none" 
	d="
M428.273987,353.326172 
	C426.281250,357.728363 424.217194,360.758667 419.263306,357.072937 
	C417.062988,355.435852 414.302612,354.546387 412.125183,352.886383 
	C411.366608,352.308075 411.012451,350.141754 411.480804,349.203461 
	C413.096191,345.967041 415.050323,342.878418 417.128815,339.910950 
	C417.590424,339.251953 419.269073,338.840393 420.071503,339.145508 
	C422.004486,339.880615 423.776215,341.064850 425.565308,342.146759 
	C427.721283,343.450439 431.161377,344.509918 431.592377,346.274323 
	C432.051208,348.152771 429.641479,350.731873 428.273987,353.326172 
z"/>
<path fill="#0CB7E4" opacity="1.000000" stroke="none" 
	d="
M417.008911,168.050018 
	C415.576569,165.769348 414.208252,163.866058 412.689606,161.753693 
	C417.616272,158.912476 422.223969,156.255203 427.091492,153.448090 
	C430.041840,158.370621 432.680664,162.773422 435.313995,167.167053 
	C431.852264,169.309464 428.892975,171.212448 425.864502,172.998154 
	C421.522583,175.558289 420.666626,176.038895 418.179016,170.604523 
	C417.840485,169.865005 417.443085,169.152435 417.008911,168.050018 
z"/>
<path fill="#0FABE7" opacity="1.000000" stroke="none" 
	d="
M437.963287,201.884048 
	C436.431610,204.049072 434.940308,205.827072 433.277130,207.809952 
	C428.813416,205.259888 424.120331,202.578796 419.677124,200.040451 
	C421.465149,196.671875 423.409119,193.472046 424.892365,190.071289 
	C426.116211,187.265320 427.610382,186.300644 430.432037,187.822891 
	C433.973602,189.733505 437.561798,191.557602 441.396240,193.557999 
	C440.149536,196.475403 439.076599,198.986206 437.963287,201.884048 
z"/>
<path fill="#01F6CC" opacity="1.000000" stroke="none" 
	d="
M95.958496,115.917351 
	C98.204109,120.040855 100.409309,123.765747 102.759361,127.735336 
	C98.446594,130.201721 94.794830,132.264191 91.169731,134.372498 
	C88.830460,135.732971 87.385460,135.041397 86.191971,132.692551 
	C84.317444,129.003372 82.207573,125.433762 80.230255,121.872772 
	C84.063728,119.907722 87.403778,118.029945 90.891174,116.484703 
	C92.411072,115.811249 94.233200,115.819878 95.958496,115.917351 
z"/>
<path fill="#01F6CC" opacity="1.000000" stroke="none" 
	d="
M184.355255,82.326340 
	C182.117233,85.098282 180.610748,86.174652 178.877533,82.138016 
	C177.246536,78.339417 174.829361,74.878372 172.552414,70.910431 
	C176.490585,68.746239 180.039658,66.539391 183.822922,64.860123 
	C185.095108,64.295441 187.837479,64.486504 188.407120,65.337166 
	C190.897369,69.055817 192.836288,73.143692 195.118423,77.362122 
	C191.591095,78.945938 188.114243,80.507072 184.355255,82.326340 
z"/>
<path fill="#0CB9E4" opacity="1.000000" stroke="none" 
	d="
M296.397278,225.381012 
	C298.997406,224.014038 301.325562,222.911636 304.007843,221.641586 
	C306.681641,226.097107 309.237030,230.355301 312.000122,234.959641 
	C307.461151,237.793823 302.822632,240.690170 297.857666,243.790375 
	C294.979706,238.724319 292.497375,234.354660 289.997803,229.954666 
	C292.087097,228.485413 294.106232,227.065491 296.397278,225.381012 
z"/>
<path fill="#05DED5" opacity="1.000000" stroke="none" 
	d="
M154.730850,202.704926 
	C152.949600,204.889435 151.431122,206.786667 149.496399,209.203934 
	C145.462616,206.931274 140.982300,204.479263 136.618744,201.834595 
	C136.192230,201.576096 136.118011,199.908890 136.503510,199.274002 
	C138.800385,195.491196 141.280533,191.819656 144.050858,187.571442 
	C148.477829,190.124619 152.983398,192.723129 157.559998,195.362610 
	C156.709778,197.699905 155.851685,200.058762 154.730850,202.704926 
z"/>
<path fill="#0BBEE2" opacity="1.000000" stroke="none" 
	d="
M81.311279,353.668030 
	C79.957779,350.869446 78.827171,348.387146 77.769890,346.065826 
	C80.449196,344.197388 82.730888,342.547333 85.071724,340.985931 
	C90.177330,337.580261 93.406540,338.679474 95.746140,344.405518 
	C96.773483,346.919861 98.091339,349.315521 99.272591,351.755371 
	C96.319710,353.564392 92.837448,355.447449 89.630814,357.719513 
	C84.554680,361.316284 83.660294,356.445953 81.311279,353.668030 
z"/>
<path fill="#1873FC" opacity="1.000000" stroke="none" 
	d="
M385.799988,403.696655 
	C388.335175,401.246674 390.120361,401.245697 391.779388,404.265900 
	C393.788605,407.923553 396.108948,411.410339 398.659210,415.564941 
	C394.626801,417.562531 390.927734,419.098999 387.543671,421.154144 
	C384.113800,423.237061 382.475311,421.167725 381.096710,418.786682 
	C379.296509,415.677521 377.859741,412.357910 376.149261,408.890930 
	C379.119873,407.334137 382.326111,405.653900 385.799988,403.696655 
z"/>
<path fill="#0CB7E4" opacity="1.000000" stroke="none" 
	d="
M388.793701,189.457977 
	C386.824493,186.276596 384.757751,183.561768 383.412964,180.527023 
	C382.998749,179.592285 384.177795,177.157913 385.280396,176.492676 
	C388.660217,174.453506 392.356995,172.939697 396.307404,171.040421 
	C399.076263,175.216187 402.010529,179.641388 405.233002,184.501266 
	C401.280090,186.388565 397.458801,188.406906 393.469086,190.004761 
	C392.201294,190.512527 390.485107,189.900818 388.793701,189.457977 
z"/>
<path fill="#119BED" opacity="1.000000" stroke="none" 
	d="
M373.004028,276.963623 
	C374.428864,276.404358 376.066925,275.628845 377.098633,276.121979 
	C381.007538,277.990356 384.720001,280.269775 388.586060,282.440460 
	C385.906372,286.921906 383.180389,291.480804 380.477753,296.000610 
	C375.903381,293.631165 371.562134,291.382477 366.020386,288.511932 
	C368.285126,284.851532 370.611969,281.090729 373.004028,276.963623 
z"/>
<path fill="#0CB9E4" opacity="1.000000" stroke="none" 
	d="
M336.946533,222.012970 
	C335.427185,222.705704 334.311676,223.389435 333.143250,223.965851 
	C329.844666,225.593185 327.254333,225.950912 325.649872,221.456650 
	C324.459076,218.121109 322.215179,215.161514 320.669373,212.437943 
	C324.958282,209.893997 328.402802,207.647247 332.057556,205.821198 
	C333.013855,205.343384 335.111786,205.718658 335.833435,206.494537 
	C337.447327,208.229752 338.564056,210.439926 339.813446,212.499039 
	C343.133270,217.970505 342.943481,218.643372 336.946533,222.012970 
z"/>
<path fill="#04E7D3" opacity="1.000000" stroke="none" 
	d="
M122.987610,175.998352 
	C126.701920,177.696838 128.772614,179.509399 124.784615,182.810822 
	C123.870041,183.567963 123.514320,185.028809 122.967682,186.196808 
	C120.441437,191.594589 119.222557,192.044800 113.975403,189.462112 
	C112.669899,188.819580 111.387802,188.122635 110.053513,187.546722 
	C106.434433,185.984665 104.827553,183.894592 107.412865,180.028397 
	C109.344719,177.139435 110.896469,173.996292 112.808197,170.630585 
	C116.136757,172.433487 119.374763,174.187332 122.987610,175.998352 
z"/>
<path fill="#1875FA" opacity="1.000000" stroke="none" 
	d="
M302.325867,468.279236 
	C298.758209,470.391785 295.508148,472.290344 292.101318,474.280457 
	C289.184235,469.527557 286.429962,465.039978 283.572083,460.383575 
	C288.075592,457.857635 292.760468,455.229980 297.993134,452.295044 
	C300.317230,456.471954 302.606415,460.131042 304.338593,464.037079 
	C304.743317,464.949738 303.258759,466.700226 302.325867,468.279236 
z"/>
<path fill="#0AC8DE" opacity="1.000000" stroke="none" 
	d="
M131.294815,294.412872 
	C130.061951,294.936737 128.352631,295.577850 128.180435,295.292206 
	C126.195496,291.999908 124.152077,288.679565 122.776382,285.115021 
	C122.243057,283.733124 122.779877,280.873474 123.835419,280.144958 
	C126.869514,278.050903 130.294754,276.212616 133.830200,275.325470 
	C135.059174,275.017090 137.270386,277.606384 138.642639,279.206909 
	C139.744385,280.491943 140.300888,282.262268 141.021545,283.852509 
	C142.537949,287.198700 143.083038,290.017029 138.194946,291.101105 
	C135.866928,291.617432 133.746704,293.070740 131.294815,294.412872 
z"/>
<path fill="#1585F6" opacity="1.000000" stroke="none" 
	d="
M305.968506,393.995728 
	C310.177856,396.263062 314.002411,398.461029 317.554047,400.502106 
	C314.567719,405.220825 311.900330,409.435577 308.890747,414.191040 
	C304.730713,411.628754 300.361328,408.937561 295.501251,405.944122 
	C297.741791,401.761749 299.827820,397.650269 302.210785,393.718750 
	C302.482178,393.270996 304.419098,393.832703 305.968506,393.995728 
z"/>
<path fill="#0AC8DE" opacity="1.000000" stroke="none" 
	d="
M248.274963,205.097977 
	C252.400299,205.060318 256.053040,205.156189 259.696899,205.017899 
	C262.416992,204.914658 263.041107,206.106003 262.772186,208.605606 
	C262.331207,212.704391 262.164948,216.832733 261.845459,221.493561 
	C257.489014,221.493561 252.499680,221.493561 246.697464,221.493561 
	C247.061447,216.084564 247.429993,210.607758 248.274963,205.097977 
z"/>
<path fill="#02EFCE" opacity="1.000000" stroke="none" 
	d="
M247.006073,77.035736 
	C247.006058,74.580688 247.006058,72.610924 247.006058,70.321548 
	C252.278198,70.321548 257.320618,70.321548 262.932465,70.321548 
	C262.932465,74.451805 263.164459,78.720467 262.776123,82.931923 
	C262.673737,84.042137 260.727661,85.733070 259.502930,85.850517 
	C255.579865,86.226753 251.598038,85.990295 247.006104,85.990295 
	C247.006104,83.024467 247.006104,80.272743 247.006073,77.035736 
z"/>
<path fill="#06D6D5" opacity="1.000000" stroke="none" 
	d="
M256.848114,153.991013 
	C253.418015,153.991013 250.463593,153.991013 247.253983,153.991013 
	C247.253983,148.562286 247.253983,143.511139 247.253983,138.224625 
	C252.350891,138.224625 257.290253,138.224625 262.990295,138.224625 
	C262.990295,142.579041 263.328003,147.169464 262.732391,151.635452 
	C262.597992,152.643158 259.212616,153.217300 256.848114,153.991013 
z"/>
<path fill="#04E5D1" opacity="1.000000" stroke="none" 
	d="
M262.558990,104.418686 
	C262.898254,108.592690 263.198975,112.434944 262.801025,116.203423 
	C262.657593,117.561684 260.942352,119.699226 259.760529,119.830940 
	C255.702469,120.283195 251.562958,120.004623 247.234436,120.004623 
	C247.234436,114.535904 247.234436,109.489456 247.234436,104.057793 
	C252.374557,104.057793 257.309479,104.057793 262.558990,104.418686 
z"/>
<path fill="#138EF4" opacity="1.000000" stroke="none" 
	d="
M263.002350,404.938995 
	C262.999146,415.045837 262.827240,415.137817 247.003555,413.610474 
	C247.003555,411.104767 247.003555,408.515198 247.003555,405.925659 
	C247.003555,403.476257 247.003555,401.026886 247.003555,398.291412 
	C252.374512,398.291412 257.412109,398.291412 263.002350,398.291412 
	C263.002350,400.297089 263.002350,402.380096 263.002350,404.938995 
z"/>
<path fill="#1585F6" opacity="1.000000" stroke="none" 
	d="
M261.413177,447.727905 
	C256.542511,447.924438 252.087265,447.924438 247.318375,447.924438 
	C247.318375,442.636078 247.318375,437.596222 247.318375,432.006958 
	C251.463577,432.006958 255.577667,431.798645 259.646149,432.137695 
	C260.821228,432.235626 262.808258,433.908203 262.806854,434.856537 
	C262.800690,439.081940 262.208832,443.306488 261.413177,447.727905 
z"/>
<path fill="#08CDDB" opacity="1.000000" stroke="none" 
	d="
M258.429810,171.979797 
	C262.068726,170.656723 263.239197,171.088669 262.574005,175.069855 
	C261.945160,178.833313 262.438904,182.784363 262.438904,187.318802 
	C257.762512,187.318802 252.766571,187.318802 247.377075,187.318802 
	C247.377075,182.666733 247.377075,177.441437 247.377075,171.992950 
	C250.830612,171.992950 254.413376,171.992950 258.429810,171.979797 
z"/>
<path fill="#1199EE" opacity="1.000000" stroke="none" 
	d="
M253.034866,379.994995 
	C250.916855,379.994904 249.275406,379.994904 247.318726,379.994904 
	C247.318726,374.668823 247.318726,369.617310 247.318726,364.012177 
	C251.612091,364.012177 255.902328,363.794250 260.137970,364.178375 
	C261.095398,364.265198 262.420685,366.374207 262.589233,367.679810 
	C262.852844,369.722107 261.842621,371.935364 262.135651,373.966003 
	C262.951782,379.622009 262.833649,379.962738 257.504608,379.993896 
	C256.173584,380.001678 254.842484,379.995056 253.034866,379.994995 
z"/>
<path fill="#10A4EC" opacity="1.000000" stroke="none" 
	d="
M260.455933,345.969727 
	C255.873749,345.994843 251.744156,345.994843 247.310989,345.994843 
	C247.310989,340.654694 247.310989,335.606537 247.310989,330.278198 
	C252.082565,330.278198 256.798035,330.278198 261.499878,330.278198 
	C261.997925,334.790588 262.589111,339.137054 262.855194,343.503296 
	C262.902222,344.274658 261.591980,345.128754 260.455933,345.969727 
z"/>
<path fill="#0FABE7" opacity="1.000000" stroke="none" 
	d="
M247.000732,301.100769 
	C247.080750,299.186523 247.161057,297.751709 247.258881,296.004181 
	C251.679001,296.004181 255.801254,295.835449 259.891479,296.122772 
	C260.914764,296.194641 262.675049,297.750397 262.658691,298.596375 
	C262.583466,302.487427 261.999054,306.368622 261.557556,310.637878 
	C257.127563,310.637878 252.416443,310.637878 247.001022,310.637878 
	C247.001022,307.727234 247.001022,304.653717 247.000732,301.100769 
z"/>
</svg>