<?xml version="1.0" encoding="UTF-8"?><svg id="artwork" xmlns="http://www.w3.org/2000/svg" xmlns:xlink="http://www.w3.org/1999/xlink" viewBox="0 0 1200 595"><defs><style>.cls-1{fill:url(#linear-gradient);}.cls-2{fill:#fffffd;}.cls-3{fill:url(#linear-gradient-8);}.cls-4{fill:url(#linear-gradient-9);}.cls-5{fill:url(#linear-gradient-3);}.cls-6{fill:url(#linear-gradient-4);}.cls-7{fill:url(#linear-gradient-2);}.cls-8{fill:url(#linear-gradient-6);}.cls-9{fill:url(#linear-gradient-7);}.cls-10{fill:url(#linear-gradient-5);}.cls-11{fill:url(#linear-gradient-59);}.cls-12{fill:url(#linear-gradient-57);}.cls-13{fill:url(#linear-gradient-58);}.cls-14{fill:url(#linear-gradient-55);}.cls-15{fill:url(#linear-gradient-56);}.cls-16{fill:url(#linear-gradient-53);}.cls-17{fill:url(#linear-gradient-54);}.cls-18{fill:url(#linear-gradient-51);}.cls-19{fill:url(#linear-gradient-52);}.cls-20{fill:url(#linear-gradient-50);}.cls-21{fill:url(#linear-gradient-77);}.cls-22{fill:url(#linear-gradient-78);}.cls-23{fill:url(#linear-gradient-79);}.cls-24{fill:url(#linear-gradient-74);}.cls-25{fill:url(#linear-gradient-75);}.cls-26{fill:url(#linear-gradient-76);}.cls-27{fill:url(#linear-gradient-70);}.cls-28{fill:url(#linear-gradient-71);}.cls-29{fill:url(#linear-gradient-72);}.cls-30{fill:url(#linear-gradient-73);}.cls-31{fill:url(#linear-gradient-68);}.cls-32{fill:url(#linear-gradient-67);}.cls-33{fill:url(#linear-gradient-69);}.cls-34{fill:url(#linear-gradient-64);}.cls-35{fill:url(#linear-gradient-63);}.cls-36{fill:url(#linear-gradient-66);}.cls-37{fill:url(#linear-gradient-65);}.cls-38{fill:url(#linear-gradient-60);}.cls-39{fill:url(#linear-gradient-62);}.cls-40{fill:url(#linear-gradient-61);}.cls-41{fill:url(#linear-gradient-90);}.cls-42{fill:url(#linear-gradient-81);}.cls-43{fill:url(#linear-gradient-80);}.cls-44{fill:url(#linear-gradient-88);}.cls-45{fill:url(#linear-gradient-89);}.cls-46{fill:url(#linear-gradient-87);}.cls-47{fill:url(#linear-gradient-86);}.cls-48{fill:url(#linear-gradient-85);}.cls-49{fill:url(#linear-gradient-84);}.cls-50{fill:url(#linear-gradient-83);}.cls-51{fill:url(#linear-gradient-82);}.cls-52{fill:url(#linear-gradient-41);}.cls-53{fill:url(#linear-gradient-40);}.cls-54{fill:url(#linear-gradient-43);}.cls-55{fill:url(#linear-gradient-42);}.cls-56{fill:url(#linear-gradient-45);}.cls-57{fill:url(#linear-gradient-46);}.cls-58{fill:url(#linear-gradient-44);}.cls-59{fill:url(#linear-gradient-49);}.cls-60{fill:url(#linear-gradient-47);}.cls-61{fill:url(#linear-gradient-48);}.cls-62{fill:url(#linear-gradient-14);}.cls-63{fill:url(#linear-gradient-18);}.cls-64{fill:url(#linear-gradient-22);}.cls-65{fill:url(#linear-gradient-20);}.cls-66{fill:url(#linear-gradient-21);}.cls-67{fill:url(#linear-gradient-23);}.cls-68{fill:url(#linear-gradient-15);}.cls-69{fill:url(#linear-gradient-19);}.cls-70{fill:url(#linear-gradient-16);}.cls-71{fill:url(#linear-gradient-17);}.cls-72{fill:url(#linear-gradient-13);}.cls-73{fill:url(#linear-gradient-12);}.cls-74{fill:url(#linear-gradient-10);}.cls-75{fill:url(#linear-gradient-11);}.cls-76{fill:url(#linear-gradient-27);}.cls-77{fill:url(#linear-gradient-24);}.cls-78{fill:url(#linear-gradient-26);}.cls-79{fill:url(#linear-gradient-38);}.cls-80{fill:url(#linear-gradient-35);}.cls-81{fill:url(#linear-gradient-37);}.cls-82{fill:url(#linear-gradient-34);}.cls-83{fill:url(#linear-gradient-39);}.cls-84{fill:url(#linear-gradient-36);}.cls-85{fill:url(#linear-gradient-25);}.cls-86{fill:url(#linear-gradient-28);}.cls-87{fill:url(#linear-gradient-29);}.cls-88{fill:url(#linear-gradient-33);}.cls-89{fill:url(#linear-gradient-30);}.cls-90{fill:url(#linear-gradient-32);}.cls-91{fill:url(#linear-gradient-31);}</style><linearGradient id="linear-gradient" x1="304.54" y1="40.36" x2="519.17" y2="363.42" gradientTransform="translate(196.98 678.17) rotate(-90)" gradientUnits="userSpaceOnUse"><stop offset="0" stop-color="#00ffc8"/><stop offset=".19" stop-color="#04e7d0"/><stop offset=".59" stop-color="#0faae6"/><stop offset="1" stop-color="#1b68ff"/></linearGradient><linearGradient id="linear-gradient-2" x1="291.15" y1="49.25" x2="505.79" y2="372.31" gradientTransform="translate(167.94 707.21) rotate(-90)" xlink:href="#linear-gradient"/><linearGradient id="linear-gradient-3" x1="277.77" y1="58.14" x2="492.41" y2="381.2" gradientTransform="translate(138.9 736.24) rotate(-90)" xlink:href="#linear-gradient"/><linearGradient id="linear-gradient-4" x1="264.39" y1="67.03" x2="479.02" y2="390.09" gradientTransform="translate(109.87 765.28) rotate(-90)" xlink:href="#linear-gradient"/><linearGradient id="linear-gradient-5" x1="251.01" y1="75.93" x2="465.64" y2="398.99" gradientTransform="translate(80.83 794.31) rotate(-90)" xlink:href="#linear-gradient"/><linearGradient id="linear-gradient-6" x1="105.13" y1="172.85" x2="319.76" y2="495.91" gradientTransform="translate(276.76 -88.72) rotate(30)" xlink:href="#linear-gradient"/><linearGradient id="linear-gradient-7" x1="129.26" y1="156.81" x2="343.9" y2="479.87" gradientTransform="translate(272.87 -103.24) rotate(30)" xlink:href="#linear-gradient"/><linearGradient id="linear-gradient-8" x1="153.4" y1="140.77" x2="368.04" y2="463.83" gradientTransform="translate(268.98 -117.75) rotate(30)" xlink:href="#linear-gradient"/><linearGradient id="linear-gradient-9" x1="177.54" y1="124.74" x2="392.17" y2="447.8" gradientTransform="translate(265.09 -132.27) rotate(30)" xlink:href="#linear-gradient"/><linearGradient id="linear-gradient-10" x1="201.67" y1="108.7" x2="416.31" y2="431.76" gradientTransform="translate(261.2 -146.79) rotate(30)" xlink:href="#linear-gradient"/><linearGradient id="linear-gradient-11" x1="264.98" y1="66.64" x2="479.62" y2="389.7" gradientTransform="translate(-21.91 168.75) rotate(-30)" xlink:href="#linear-gradient"/><linearGradient id="linear-gradient-12" x1="275.74" y1="59.5" x2="490.37" y2="382.56" gradientTransform="translate(-25.8 183.26) rotate(-30)" xlink:href="#linear-gradient"/><linearGradient id="linear-gradient-13" x1="286.49" y1="52.35" x2="501.12" y2="375.41" gradientTransform="translate(-29.69 197.78) rotate(-30)" xlink:href="#linear-gradient"/><linearGradient id="linear-gradient-14" x1="297.24" y1="45.21" x2="511.88" y2="368.27" gradientTransform="translate(-33.58 212.3) rotate(-30)" xlink:href="#linear-gradient"/><linearGradient id="linear-gradient-15" x1="308" y1="38.06" x2="522.63" y2="361.12" gradientTransform="translate(-37.47 226.82) rotate(-30)" xlink:href="#linear-gradient"/><linearGradient id="linear-gradient-16" x1="73.63" y1="193.77" x2="288.27" y2="516.83" gradientTransform="translate(-135.85 345.35) rotate(-90)" xlink:href="#linear-gradient"/><linearGradient id="linear-gradient-17" x1="60.25" y1="202.66" x2="274.89" y2="525.72" gradientTransform="translate(-164.89 374.38) rotate(-90)" xlink:href="#linear-gradient"/><linearGradient id="linear-gradient-18" x1="46.87" y1="211.55" x2="261.5" y2="534.61" gradientTransform="translate(-193.92 403.42) rotate(-90)" xlink:href="#linear-gradient"/><linearGradient id="linear-gradient-19" x1="33.49" y1="220.44" x2="248.12" y2="543.5" gradientTransform="translate(-222.96 432.45) rotate(-90)" xlink:href="#linear-gradient"/><linearGradient id="linear-gradient-20" x1="20.1" y1="229.34" x2="234.74" y2="552.4" gradientTransform="translate(-251.99 461.49) rotate(-90)" xlink:href="#linear-gradient"/><linearGradient id="linear-gradient-21" x1="59.66" y1="203.05" x2="274.29" y2="526.11" gradientTransform="translate(680.88 761.71) rotate(150)" xlink:href="#linear-gradient"/><linearGradient id="linear-gradient-22" x1="48.9" y1="210.2" x2="263.54" y2="533.26" gradientTransform="translate(626.7 747.19) rotate(150)" xlink:href="#linear-gradient"/><linearGradient id="linear-gradient-23" x1="38.15" y1="217.34" x2="252.79" y2="540.4" gradientTransform="translate(572.52 732.67) rotate(150)" xlink:href="#linear-gradient"/><linearGradient id="linear-gradient-24" x1="27.4" y1="224.49" x2="242.03" y2="547.55" gradientTransform="translate(518.34 718.16) rotate(150)" xlink:href="#linear-gradient"/><linearGradient id="linear-gradient-25" x1="16.64" y1="231.63" x2="231.28" y2="554.69" gradientTransform="translate(464.16 703.64) rotate(150)" xlink:href="#linear-gradient"/><linearGradient id="linear-gradient-26" x1="219.51" y1="96.85" x2="434.15" y2="419.91" gradientTransform="translate(382.21 352.94) rotate(-150)" xlink:href="#linear-gradient"/><linearGradient id="linear-gradient-27" x1="195.38" y1="112.88" x2="410.01" y2="435.94" gradientTransform="translate(328.03 367.46) rotate(-150)" xlink:href="#linear-gradient"/><linearGradient id="linear-gradient-28" x1="171.24" y1="128.92" x2="385.88" y2="451.98" gradientTransform="translate(273.85 381.97) rotate(-150)" xlink:href="#linear-gradient"/><linearGradient id="linear-gradient-29" x1="147.1" y1="144.96" x2="361.74" y2="468.02" gradientTransform="translate(219.67 396.49) rotate(-150)" xlink:href="#linear-gradient"/><linearGradient id="linear-gradient-30" x1="122.97" y1="160.99" x2="337.6" y2="484.05" gradientTransform="translate(165.49 411.01) rotate(-150)" xlink:href="#linear-gradient"/><linearGradient id="linear-gradient-31" x1="226.48" y1="92.22" x2="441.11" y2="415.28" gradientTransform="matrix(1, 0, 0, 1, 0, 0)" xlink:href="#linear-gradient"/><linearGradient id="linear-gradient-32" x1="246.62" y1="78.84" x2="461.26" y2="401.9" gradientTransform="matrix(1, 0, 0, 1, 0, 0)" xlink:href="#linear-gradient"/><linearGradient id="linear-gradient-33" x1="266.77" y1="65.45" x2="481.4" y2="388.51" gradientTransform="matrix(1, 0, 0, 1, 0, 0)" xlink:href="#linear-gradient"/><linearGradient id="linear-gradient-34" x1="286.91" y1="52.07" x2="501.55" y2="375.13" gradientTransform="matrix(1, 0, 0, 1, 0, 0)" xlink:href="#linear-gradient"/><linearGradient id="linear-gradient-35" x1="137.58" y1="151.28" x2="352.22" y2="474.34" gradientTransform="matrix(1, 0, 0, 1, 0, 0)" xlink:href="#linear-gradient"/><linearGradient id="linear-gradient-36" x1="157.73" y1="137.9" x2="372.36" y2="460.96" gradientTransform="matrix(1, 0, 0, 1, 0, 0)" xlink:href="#linear-gradient"/><linearGradient id="linear-gradient-37" x1="177.87" y1="124.51" x2="392.51" y2="447.57" gradientTransform="matrix(1, 0, 0, 1, 0, 0)" xlink:href="#linear-gradient"/><linearGradient id="linear-gradient-38" x1="198.02" y1="111.13" x2="412.65" y2="434.19" gradientTransform="matrix(1, 0, 0, 1, 0, 0)" xlink:href="#linear-gradient"/><linearGradient id="linear-gradient-39" x1="234.02" y1="87.21" x2="448.65" y2="410.27" gradientTransform="translate(128.14 413.78) rotate(-90)" xlink:href="#linear-gradient"/><linearGradient id="linear-gradient-40" x1="220.63" y1="96.1" x2="435.27" y2="419.16" gradientTransform="translate(99.11 442.81) rotate(-90)" xlink:href="#linear-gradient"/><linearGradient id="linear-gradient-41" x1="207.25" y1="105" x2="421.89" y2="428.06" gradientTransform="translate(70.07 471.85) rotate(-90)" xlink:href="#linear-gradient"/><linearGradient id="linear-gradient-42" x1="193.87" y1="113.89" x2="408.5" y2="436.95" gradientTransform="translate(41.04 500.88) rotate(-90)" xlink:href="#linear-gradient"/><linearGradient id="linear-gradient-43" x1="180.48" y1="122.78" x2="395.12" y2="445.84" gradientTransform="translate(12 529.92) rotate(-90)" xlink:href="#linear-gradient"/><linearGradient id="linear-gradient-44" x1="145.12" y1="146.27" x2="359.76" y2="469.33" gradientTransform="translate(-64.72 606.64) rotate(-90)" xlink:href="#linear-gradient"/><linearGradient id="linear-gradient-45" x1="131.74" y1="155.16" x2="346.38" y2="478.22" gradientTransform="translate(-93.75 635.67) rotate(-90)" xlink:href="#linear-gradient"/><linearGradient id="linear-gradient-46" x1="118.36" y1="164.06" x2="332.99" y2="487.12" gradientTransform="translate(-122.79 664.71) rotate(-90)" xlink:href="#linear-gradient"/><linearGradient id="linear-gradient-47" x1="104.97" y1="172.95" x2="319.61" y2="496.01" gradientTransform="translate(-151.82 693.74) rotate(-90)" xlink:href="#linear-gradient"/><linearGradient id="linear-gradient-48" x1="91.59" y1="181.84" x2="306.23" y2="504.9" gradientTransform="translate(-180.86 722.78) rotate(-90)" xlink:href="#linear-gradient"/><linearGradient id="linear-gradient-49" x1="200.2" y1="109.68" x2="414.83" y2="432.74" gradientTransform="translate(236.16 826.95) rotate(-120.01)" xlink:href="#linear-gradient"/><linearGradient id="linear-gradient-50" x1="178.53" y1="124.08" x2="393.17" y2="447.14" gradientTransform="translate(192.6 852.09) rotate(-120.01)" xlink:href="#linear-gradient"/><linearGradient id="linear-gradient-51" x1="135.2" y1="152.86" x2="349.84" y2="475.92" gradientTransform="translate(105.49 902.38) rotate(-120.01)" xlink:href="#linear-gradient"/><linearGradient id="linear-gradient-52" x1="113.54" y1="167.26" x2="328.17" y2="490.32" gradientTransform="translate(61.93 927.52) rotate(-120.01)" xlink:href="#linear-gradient"/><linearGradient id="linear-gradient-53" x1="286.85" y1="52.11" x2="501.49" y2="375.17" gradientTransform="translate(410.39 726.38) rotate(-120.01)" xlink:href="#linear-gradient"/><linearGradient id="linear-gradient-54" x1="265.19" y1="66.5" x2="479.82" y2="389.56" gradientTransform="translate(366.83 751.52) rotate(-120.01)" xlink:href="#linear-gradient"/><linearGradient id="linear-gradient-55" x1="243.52" y1="80.9" x2="458.16" y2="403.96" gradientTransform="translate(323.27 776.66) rotate(-120.01)" xlink:href="#linear-gradient"/><linearGradient id="linear-gradient-56" x1="221.86" y1="95.29" x2="436.5" y2="418.35" gradientTransform="translate(279.72 801.81) rotate(-120.01)" xlink:href="#linear-gradient"/><linearGradient id="linear-gradient-57" x1="178.69" y1="123.97" x2="393.32" y2="447.03" gradientTransform="translate(-117.08 195.6) rotate(-30)" xlink:href="#linear-gradient"/><linearGradient id="linear-gradient-58" x1="189.44" y1="116.83" x2="404.08" y2="439.89" gradientTransform="translate(-120.97 210.12) rotate(-30)" xlink:href="#linear-gradient"/><linearGradient id="linear-gradient-59" x1="210.95" y1="102.54" x2="425.58" y2="425.6" gradientTransform="translate(-128.75 239.15) rotate(-30)" xlink:href="#linear-gradient"/><linearGradient id="linear-gradient-60" x1="221.7" y1="95.39" x2="436.34" y2="418.45" gradientTransform="translate(-132.64 253.67) rotate(-30)" xlink:href="#linear-gradient"/><linearGradient id="linear-gradient-61" x1="199.37" y1="110.23" x2="414" y2="433.29" gradientTransform="translate(178.93 -117.59) rotate(30)" xlink:href="#linear-gradient"/><linearGradient id="linear-gradient-62" x1="223.5" y1="94.2" x2="438.14" y2="417.26" gradientTransform="translate(175.04 -132.11) rotate(30)" xlink:href="#linear-gradient"/><linearGradient id="linear-gradient-63" x1="247.64" y1="78.16" x2="462.28" y2="401.22" gradientTransform="translate(171.15 -146.63) rotate(30)" xlink:href="#linear-gradient"/><linearGradient id="linear-gradient-64" x1="271.78" y1="62.13" x2="486.41" y2="385.19" gradientTransform="translate(167.26 -161.14) rotate(30)" xlink:href="#linear-gradient"/><linearGradient id="linear-gradient-65" x1="295.91" y1="46.09" x2="510.55" y2="369.15" gradientTransform="translate(163.37 -175.66) rotate(30)" xlink:href="#linear-gradient"/><linearGradient id="linear-gradient-66" x1="188.3" y1="117.59" x2="402.94" y2="440.65" gradientTransform="translate(487.29 401.78) rotate(180)" xlink:href="#linear-gradient"/><linearGradient id="linear-gradient-67" x1="168.16" y1="130.97" x2="382.79" y2="454.03" gradientTransform="translate(429.22 401.78) rotate(180)" xlink:href="#linear-gradient"/><linearGradient id="linear-gradient-68" x1="148.01" y1="144.35" x2="362.65" y2="467.41" gradientTransform="translate(371.15 401.78) rotate(180)" xlink:href="#linear-gradient"/><linearGradient id="linear-gradient-69" x1="127.87" y1="157.73" x2="342.51" y2="480.79" gradientTransform="translate(313.08 401.78) rotate(180)" xlink:href="#linear-gradient"/><linearGradient id="linear-gradient-70" x1="99.41" y1="176.65" x2="314.04" y2="499.7" gradientTransform="translate(487.29 787.49) rotate(180)" xlink:href="#linear-gradient"/><linearGradient id="linear-gradient-71" x1="79.26" y1="190.03" x2="293.9" y2="513.09" gradientTransform="translate(429.22 787.49) rotate(180)" xlink:href="#linear-gradient"/><linearGradient id="linear-gradient-72" x1="59.12" y1="203.41" x2="273.76" y2="526.47" gradientTransform="translate(371.15 787.49) rotate(180)" xlink:href="#linear-gradient"/><linearGradient id="linear-gradient-73" x1="38.98" y1="216.79" x2="253.61" y2="539.85" gradientTransform="translate(313.08 787.49) rotate(180)" xlink:href="#linear-gradient"/><linearGradient id="linear-gradient-74" x1="81.44" y1="188.58" x2="296.08" y2="511.64" gradientTransform="translate(-206.26 333.3) rotate(-59.99)" xlink:href="#linear-gradient"/><linearGradient id="linear-gradient-75" x1="79.93" y1="189.59" x2="294.57" y2="512.65" gradientTransform="translate(-220.78 358.44) rotate(-59.99)" xlink:href="#linear-gradient"/><linearGradient id="linear-gradient-76" x1="76.9" y1="191.6" x2="291.54" y2="514.66" gradientTransform="translate(-249.8 408.72) rotate(-59.99)" xlink:href="#linear-gradient"/><linearGradient id="linear-gradient-77" x1="75.39" y1="192.6" x2="290.02" y2="515.66" gradientTransform="translate(-264.31 433.87) rotate(-59.99)" xlink:href="#linear-gradient"/><linearGradient id="linear-gradient-78" x1="87.5" y1="184.56" x2="302.13" y2="507.62" gradientTransform="translate(-148.21 232.73) rotate(-59.99)" xlink:href="#linear-gradient"/><linearGradient id="linear-gradient-79" x1="85.98" y1="185.56" x2="300.62" y2="508.62" gradientTransform="translate(-162.72 257.87) rotate(-59.99)" xlink:href="#linear-gradient"/><linearGradient id="linear-gradient-80" x1="84.47" y1="186.57" x2="299.11" y2="509.63" gradientTransform="translate(-177.24 283.01) rotate(-59.99)" xlink:href="#linear-gradient"/><linearGradient id="linear-gradient-81" x1="82.96" y1="187.57" x2="297.59" y2="510.63" gradientTransform="translate(-191.75 308.15) rotate(-59.99)" xlink:href="#linear-gradient"/><linearGradient id="linear-gradient-82" x1="129.72" y1="156.51" x2="344.35" y2="479.57" gradientTransform="translate(281.99 708.12) rotate(-150)" xlink:href="#linear-gradient"/><linearGradient id="linear-gradient-83" x1="105.58" y1="172.54" x2="320.22" y2="495.6" gradientTransform="translate(227.81 722.64) rotate(-150)" xlink:href="#linear-gradient"/><linearGradient id="linear-gradient-84" x1="57.31" y1="204.62" x2="271.94" y2="527.68" gradientTransform="translate(119.45 751.67) rotate(-150)" xlink:href="#linear-gradient"/><linearGradient id="linear-gradient-85" x1="33.17" y1="220.65" x2="247.81" y2="543.71" gradientTransform="translate(65.27 766.19) rotate(-150)" xlink:href="#linear-gradient"/><linearGradient id="linear-gradient-86" x1="147.02" y1="145.02" x2="361.65" y2="468.08" gradientTransform="translate(573.13 396.6) rotate(150)" xlink:href="#linear-gradient"/><linearGradient id="linear-gradient-87" x1="136.26" y1="152.16" x2="350.9" y2="475.22" gradientTransform="translate(518.95 382.08) rotate(150)" xlink:href="#linear-gradient"/><linearGradient id="linear-gradient-88" x1="125.51" y1="159.3" x2="340.14" y2="482.36" gradientTransform="translate(464.77 367.56) rotate(150)" xlink:href="#linear-gradient"/><linearGradient id="linear-gradient-89" x1="114.75" y1="166.45" x2="329.39" y2="489.51" gradientTransform="translate(410.59 353.04) rotate(150)" xlink:href="#linear-gradient"/><linearGradient id="linear-gradient-90" x1="104" y1="173.59" x2="318.64" y2="496.65" gradientTransform="translate(356.41 338.53) rotate(150)" xlink:href="#linear-gradient"/></defs><g><path class="cls-2" d="M615.59,173.59v96.89h-11.35l-58.13-72.25v72.25h-13.84v-96.89h11.35l58.13,72.25v-72.25h13.84Z"/><path class="cls-2" d="M703.21,238.23h-59.52c1.66,12.87,12.04,21.46,26.58,21.46,8.58,0,15.78-2.91,21.18-8.86l7.34,8.58c-6.64,7.75-16.75,11.9-28.93,11.9-23.67,0-39.45-15.64-39.45-37.51s15.64-37.37,36.82-37.37,36.27,15.23,36.27,37.79c0,1.11-.14,2.77-.28,4.01Zm-59.52-9.55h47.06c-1.38-12.32-10.66-21.04-23.53-21.04s-22.15,8.58-23.53,21.04Z"/><path class="cls-2" d="M763.15,266.19c-4.01,3.46-10.1,5.12-16.06,5.12-14.81,0-23.25-8.17-23.25-22.98v-40.28h-12.46v-10.94h12.46v-16.06h13.29v16.06h21.04v10.94h-21.04v39.73c0,7.89,4.15,12.32,11.49,12.32,3.88,0,7.61-1.25,10.38-3.46l4.15,9.55Z"/><path class="cls-2" d="M891.6,197.12l-27.41,73.36h-12.73l-21.18-55.64-21.45,55.64h-12.73l-27.27-73.36h12.6l21.32,58.41,22.15-58.41h11.21l21.73,58.69,21.87-58.69h11.9Z"/><path class="cls-2" d="M893.4,233.8c0-21.87,16.19-37.37,38.2-37.37s38.06,15.5,38.06,37.37-16.06,37.51-38.06,37.51-38.2-15.64-38.2-37.51Zm62.84,0c0-15.64-10.52-25.75-24.64-25.75s-24.78,10.1-24.78,25.75,10.66,25.88,24.78,25.88,24.64-10.24,24.64-25.88Z"/><path class="cls-2" d="M1022.82,196.43v12.87c-1.11-.14-2.08-.14-3.05-.14-14.26,0-23.12,8.72-23.12,24.78v36.54h-13.29v-73.36h12.73v12.32c4.71-8.58,13.84-13.01,26.71-13.01Z"/><path class="cls-2" d="M1066.42,236.29l-15.23,14.12v20.07h-13.29v-102.71h13.29v65.89l40-36.54h16.06l-30.87,30.31,33.91,43.05h-16.33l-27.55-34.19Z"/><path class="cls-2" d="M532.27,330.8h13.84v96.89h-13.84v-96.89Z"/><path class="cls-2" d="M633.17,385.48v42.22h-13.29v-40.69c0-14.4-7.2-21.46-19.79-21.46-14.12,0-23.25,8.44-23.25,24.36v37.79h-13.29v-73.36h12.73v11.07c5.4-7.47,14.81-11.76,26.44-11.76,17.86,0,30.45,10.24,30.45,31.84Z"/><path class="cls-2" d="M722.73,324.99v102.71h-12.73v-11.63c-5.95,8.31-15.36,12.46-26.16,12.46-21.46,0-37.1-15.09-37.1-37.51s15.64-37.37,37.1-37.37c10.38,0,19.52,3.88,25.61,11.76v-40.42h13.29Zm-13.15,66.03c0-15.64-10.66-25.75-24.64-25.75s-24.78,10.1-24.78,25.75,10.66,25.88,24.78,25.88,24.64-10.24,24.64-25.88Z"/><path class="cls-2" d="M809.1,395.44h-59.52c1.66,12.87,12.04,21.45,26.58,21.45,8.58,0,15.78-2.91,21.18-8.86l7.34,8.58c-6.64,7.75-16.75,11.9-28.93,11.9-23.67,0-39.45-15.64-39.45-37.51s15.64-37.37,36.82-37.37,36.27,15.23,36.27,37.79c0,1.11-.14,2.77-.28,4.01Zm-59.52-9.55h47.06c-1.38-12.32-10.66-21.04-23.53-21.04s-22.15,8.58-23.53,21.04Z"/><path class="cls-2" d="M870.7,427.69l-21.18-28.1-21.45,28.1h-14.81l28.93-37.51-27.55-35.85h14.81l20.21,26.44,20.07-26.44h14.53l-27.68,35.85,29.21,37.51h-15.09Z"/><path class="cls-2" d="M959.7,395.44h-59.52c1.66,12.87,12.04,21.45,26.58,21.45,8.58,0,15.78-2.91,21.18-8.86l7.34,8.58c-6.64,7.75-16.75,11.9-28.93,11.9-23.67,0-39.45-15.64-39.45-37.51s15.64-37.37,36.82-37.37,36.27,15.23,36.27,37.79c0,1.11-.14,2.77-.28,4.01Zm-59.52-9.55h47.06c-1.38-12.32-10.66-21.04-23.53-21.04s-22.15,8.58-23.53,21.04Z"/><path class="cls-2" d="M1013.69,353.64v12.87c-1.11-.14-2.08-.14-3.05-.14-14.26,0-23.12,8.72-23.12,24.78v36.54h-13.29v-73.36h12.73v12.32c4.71-8.58,13.84-13.01,26.71-13.01Z"/></g><g><rect class="cls-1" x="431.77" y="234.79" width="11.61" height="11.61" transform="translate(678.17 -196.98) rotate(90)"/><rect class="cls-7" x="431.77" y="263.83" width="11.61" height="11.61" transform="translate(707.21 -167.94) rotate(90)"/><rect class="cls-5" x="431.77" y="292.86" width="11.61" height="11.61" transform="translate(736.24 -138.9) rotate(90)"/><rect class="cls-6" x="431.77" y="321.9" width="11.61" height="11.61" transform="translate(765.28 -109.87) rotate(90)"/><rect class="cls-10" x="431.77" y="350.93" width="11.61" height="11.61" transform="translate(794.31 -80.83) rotate(90)"/><rect class="cls-8" x="298.12" y="466.27" width="11.61" height="11.61" transform="translate(-195.32 215.21) rotate(-30)"/><rect class="cls-9" x="323.27" y="451.75" width="11.61" height="11.61" transform="translate(-184.69 225.84) rotate(-30)"/><rect class="cls-3" x="348.41" y="437.23" width="11.61" height="11.61" transform="translate(-174.06 236.47) rotate(-30)"/><rect class="cls-4" x="373.56" y="422.71" width="11.61" height="11.61" transform="translate(-163.44 247.09) rotate(-30)"/><rect class="cls-74" x="398.7" y="408.2" width="11.61" height="11.61" transform="translate(-152.81 257.72) rotate(-30)"/><rect class="cls-75" x="298.12" y="119.46" width="11.61" height="11.61" transform="translate(103.35 -135.18) rotate(30)"/><rect class="cls-73" x="323.27" y="133.97" width="11.61" height="11.61" transform="translate(113.98 -145.81) rotate(30)"/><rect class="cls-72" x="348.41" y="148.49" width="11.61" height="11.61" transform="translate(124.61 -156.44) rotate(30)"/><rect class="cls-62" x="373.56" y="163.01" width="11.61" height="11.61" transform="translate(135.23 -167.07) rotate(30)"/><rect class="cls-68" x="398.7" y="177.53" width="11.61" height="11.61" transform="translate(145.86 -177.69) rotate(30)"/><rect class="cls-70" x="98.94" y="234.79" width="11.61" height="11.61" transform="translate(345.35 135.85) rotate(90)"/><rect class="cls-71" x="98.94" y="263.83" width="11.61" height="11.61" transform="translate(374.38 164.89) rotate(90)"/><rect class="cls-63" x="98.94" y="292.86" width="11.61" height="11.61" transform="translate(403.42 193.92) rotate(90)"/><rect class="cls-69" x="98.94" y="321.9" width="11.61" height="11.61" transform="translate(432.45 222.96) rotate(90)"/><rect class="cls-65" x="98.94" y="350.93" width="11.61" height="11.61" transform="translate(461.49 251.99) rotate(90)"/><rect class="cls-66" x="232.58" y="466.27" width="11.61" height="11.61" transform="translate(208.81 1000.1) rotate(-150)"/><rect class="cls-64" x="207.44" y="451.75" width="11.61" height="11.61" transform="translate(169.14 960.44) rotate(-150)"/><rect class="cls-67" x="182.29" y="437.23" width="11.61" height="11.61" transform="translate(129.48 920.77) rotate(-150)"/><rect class="cls-77" x="157.15" y="422.71" width="11.61" height="11.61" transform="translate(89.82 881.11) rotate(-150)"/><rect class="cls-85" x="132" y="408.2" width="11.61" height="11.61" transform="translate(50.15 841.45) rotate(-150)"/><rect class="cls-78" x="232.58" y="119.46" width="11.61" height="11.61" transform="translate(507.48 114.55) rotate(150)"/><rect class="cls-76" x="207.44" y="133.97" width="11.61" height="11.61" transform="translate(467.81 154.21) rotate(150)"/><rect class="cls-86" x="182.29" y="148.49" width="11.61" height="11.61" transform="translate(428.15 193.87) rotate(150)"/><rect class="cls-87" x="157.15" y="163.01" width="11.61" height="11.61" transform="translate(388.49 233.54) rotate(150)"/><rect class="cls-89" x="132" y="177.53" width="11.61" height="11.61" transform="translate(348.82 273.2) rotate(150)"/></g><g><rect class="cls-91" x="292.87" y="195.08" width="11.61" height="11.61"/><rect class="cls-90" x="321.9" y="195.08" width="11.61" height="11.61"/><rect class="cls-88" x="350.94" y="195.08" width="11.61" height="11.61"/><rect class="cls-82" x="379.97" y="195.08" width="11.61" height="11.61"/><rect class="cls-80" x="292.87" y="387.94" width="11.61" height="11.61"/><rect class="cls-84" x="321.9" y="387.94" width="11.61" height="11.61"/><rect class="cls-81" x="350.94" y="387.94" width="11.61" height="11.61"/><rect class="cls-79" x="379.97" y="387.94" width="11.61" height="11.61"/><rect class="cls-83" x="265.15" y="137.01" width="11.61" height="11.61" transform="translate(413.78 -128.14) rotate(90)"/><rect class="cls-53" x="265.15" y="166.05" width="11.61" height="11.61" transform="translate(442.81 -99.11) rotate(90)"/><rect class="cls-52" x="265.15" y="195.08" width="11.61" height="11.61" transform="translate(471.85 -70.07) rotate(90)"/><rect class="cls-55" x="265.15" y="224.12" width="11.61" height="11.61" transform="translate(500.88 -41.04) rotate(90)"/><rect class="cls-54" x="265.15" y="253.15" width="11.61" height="11.61" transform="translate(529.92 -12) rotate(90)"/><rect class="cls-58" x="265.15" y="329.87" width="11.61" height="11.61" transform="translate(606.64 64.72) rotate(90)"/><rect class="cls-56" x="265.15" y="358.9" width="11.61" height="11.61" transform="translate(635.67 93.75) rotate(90)"/><rect class="cls-57" x="265.15" y="387.94" width="11.61" height="11.61" transform="translate(664.71 122.79) rotate(90)"/><rect class="cls-60" x="265.15" y="416.98" width="11.61" height="11.61" transform="translate(693.74 151.82) rotate(90)"/><rect class="cls-61" x="265.15" y="446.01" width="11.61" height="11.61" transform="translate(722.78 180.86) rotate(90)"/><rect class="cls-59" x="350.94" y="339.51" width="11.61" height="11.61" transform="translate(834.2 209.11) rotate(120.01)"/><rect class="cls-20" x="336.42" y="364.65" width="11.61" height="11.61" transform="translate(834.18 259.41) rotate(120.01)"/><rect class="cls-18" x="307.37" y="414.94" width="11.61" height="11.61" transform="translate(834.15 360) rotate(120.01)"/><rect class="cls-19" x="292.85" y="440.08" width="11.61" height="11.61" transform="translate(834.14 410.29) rotate(120.01)"/><rect class="cls-16" x="409.03" y="238.94" width="11.61" height="11.61" transform="translate(834.26 7.94) rotate(120.01)"/><rect class="cls-17" x="394.51" y="264.08" width="11.61" height="11.61" transform="translate(834.24 58.23) rotate(120.01)"/><rect class="cls-14" x="379.98" y="289.22" width="11.61" height="11.61" transform="translate(834.23 108.53) rotate(120.01)"/><rect class="cls-15" x="365.46" y="314.37" width="11.61" height="11.61" transform="translate(834.21 158.82) rotate(120.01)"/><rect class="cls-12" x="300.65" y="310.47" width="11.61" height="11.61" transform="translate(199.2 -110.85) rotate(30)"/><rect class="cls-13" x="325.79" y="324.99" width="11.61" height="11.61" transform="translate(209.83 -121.48) rotate(30)"/><rect class="cls-11" x="376.08" y="354.03" width="11.61" height="11.61" transform="translate(231.08 -142.74) rotate(30)"/><rect class="cls-38" x="401.23" y="368.54" width="11.61" height="11.61" transform="translate(241.71 -153.36) rotate(30)"/><rect class="cls-40" x="303.08" y="269.28" width="11.61" height="11.61" transform="translate(-96.16 191.3) rotate(-30)"/><rect class="cls-39" x="328.23" y="254.76" width="11.61" height="11.61" transform="translate(-85.53 201.93) rotate(-30)"/><rect class="cls-35" x="353.37" y="240.24" width="11.61" height="11.61" transform="translate(-74.9 212.56) rotate(-30)"/><rect class="cls-34" x="378.52" y="225.72" width="11.61" height="11.61" transform="translate(-64.28 223.18) rotate(-30)"/><rect class="cls-37" x="403.67" y="211.21" width="11.61" height="11.61" transform="translate(-53.65 233.81) rotate(-30)"/><rect class="cls-36" x="237.84" y="195.08" width="11.61" height="11.61" transform="translate(487.29 401.78) rotate(-180)"/><rect class="cls-32" x="208.8" y="195.08" width="11.61" height="11.61" transform="translate(429.22 401.78) rotate(-180)"/><rect class="cls-31" x="179.77" y="195.08" width="11.61" height="11.61" transform="translate(371.15 401.78) rotate(-180)"/><rect class="cls-33" x="150.73" y="195.08" width="11.61" height="11.61" transform="translate(313.08 401.78) rotate(-180)"/><rect class="cls-27" x="237.84" y="387.94" width="11.61" height="11.61" transform="translate(487.29 787.49) rotate(-180)"/><rect class="cls-28" x="208.8" y="387.94" width="11.61" height="11.61" transform="translate(429.22 787.49) rotate(-180)"/><rect class="cls-29" x="179.77" y="387.94" width="11.61" height="11.61" transform="translate(371.15 787.49) rotate(-180)"/><rect class="cls-30" x="150.73" y="387.94" width="11.61" height="11.61" transform="translate(313.08 787.49) rotate(-180)"/><rect class="cls-24" x="179.77" y="339.51" width="11.61" height="11.61" transform="translate(391.78 11.91) rotate(59.99)"/><rect class="cls-25" x="194.29" y="364.65" width="11.61" height="11.61" transform="translate(420.81 11.9) rotate(59.99)"/><rect class="cls-26" x="223.34" y="414.94" width="11.61" height="11.61" transform="translate(478.87 11.88) rotate(59.99)"/><rect class="cls-21" x="237.86" y="440.08" width="11.61" height="11.61" transform="translate(507.9 11.87) rotate(59.99)"/><rect class="cls-22" x="121.68" y="238.94" width="11.61" height="11.61" transform="translate(275.65 11.94) rotate(59.99)"/><rect class="cls-23" x="136.2" y="264.08" width="11.61" height="11.61" transform="translate(304.68 11.93) rotate(59.99)"/><rect class="cls-43" x="150.72" y="289.22" width="11.61" height="11.61" transform="translate(333.72 11.92) rotate(59.99)"/><rect class="cls-42" x="165.25" y="314.37" width="11.61" height="11.61" transform="translate(362.75 11.91) rotate(59.99)"/><rect class="cls-51" x="230.06" y="310.47" width="11.61" height="11.61" transform="translate(598.27 472.25) rotate(150)"/><rect class="cls-50" x="204.91" y="324.99" width="11.61" height="11.61" transform="translate(558.61 511.92) rotate(150)"/><rect class="cls-49" x="154.62" y="354.03" width="11.61" height="11.61" transform="translate(479.28 591.24) rotate(150)"/><rect class="cls-48" x="129.48" y="368.54" width="11.61" height="11.61" transform="translate(439.62 630.91) rotate(150)"/><rect class="cls-47" x="227.62" y="269.28" width="11.61" height="11.61" transform="translate(298.05 630.03) rotate(-150)"/><rect class="cls-46" x="202.48" y="254.76" width="11.61" height="11.61" transform="translate(258.38 590.36) rotate(-150)"/><rect class="cls-44" x="177.33" y="240.24" width="11.61" height="11.61" transform="translate(218.72 550.7) rotate(-150)"/><rect class="cls-45" x="152.19" y="225.72" width="11.61" height="11.61" transform="translate(179.06 511.04) rotate(-150)"/><rect class="cls-41" x="127.04" y="211.21" width="11.61" height="11.61" transform="translate(139.39 471.38) rotate(-150)"/></g><g><circle class="cls-2" cx="270.96" cy="105.01" r="14.95"/><circle class="cls-2" cx="270.96" cy="297.5" r="16.37"/><circle class="cls-2" cx="270.96" cy="489.99" r="14.95"/><circle class="cls-2" cx="437.66" cy="393.75" r="14.95"/><circle class="cls-2" cx="437.66" cy="201.25" r="14.95"/><circle class="cls-2" cx="104.66" cy="393.75" r="14.95"/><circle class="cls-2" cx="104.66" cy="201.25" r="14.95"/></g></svg>