<?xml version="1.0" encoding="UTF-8"?><svg id="artwork" xmlns="http://www.w3.org/2000/svg" viewBox="0 0 1200 595"><g><path d="M615.59,173.59v96.89h-11.35l-58.13-72.25v72.25h-13.84v-96.89h11.35l58.13,72.25v-72.25h13.84Z"/><path d="M703.21,238.23h-59.52c1.66,12.87,12.04,21.46,26.58,21.46,8.58,0,15.78-2.91,21.18-8.86l7.34,8.58c-6.64,7.75-16.75,11.9-28.93,11.9-23.67,0-39.45-15.64-39.45-37.51s15.64-37.37,36.82-37.37,36.27,15.23,36.27,37.79c0,1.11-.14,2.77-.28,4.01Zm-59.52-9.55h47.06c-1.38-12.32-10.66-21.04-23.53-21.04s-22.15,8.58-23.53,21.04Z"/><path d="M763.15,266.19c-4.01,3.46-10.1,5.12-16.06,5.12-14.81,0-23.25-8.17-23.25-22.98v-40.28h-12.46v-10.94h12.46v-16.06h13.29v16.06h21.04v10.94h-21.04v39.73c0,7.89,4.15,12.32,11.49,12.32,3.88,0,7.61-1.25,10.38-3.46l4.15,9.55Z"/><path d="M891.6,197.12l-27.41,73.36h-12.73l-21.18-55.64-21.45,55.64h-12.73l-27.27-73.36h12.6l21.32,58.41,22.15-58.41h11.21l21.73,58.69,21.87-58.69h11.9Z"/><path d="M893.4,233.8c0-21.87,16.19-37.37,38.2-37.37s38.06,15.5,38.06,37.37-16.06,37.51-38.06,37.51-38.2-15.64-38.2-37.51Zm62.84,0c0-15.64-10.52-25.75-24.64-25.75s-24.78,10.1-24.78,25.75,10.66,25.88,24.78,25.88,24.64-10.24,24.64-25.88Z"/><path d="M1022.82,196.43v12.87c-1.11-.14-2.08-.14-3.05-.14-14.26,0-23.12,8.72-23.12,24.78v36.54h-13.29v-73.36h12.73v12.32c4.71-8.58,13.84-13.01,26.71-13.01Z"/><path d="M1066.42,236.29l-15.23,14.12v20.07h-13.29v-102.71h13.29v65.89l40-36.54h16.06l-30.87,30.31,33.91,43.05h-16.33l-27.55-34.19Z"/><path d="M532.27,330.8h13.84v96.89h-13.84v-96.89Z"/><path d="M633.17,385.48v42.22h-13.29v-40.69c0-14.4-7.2-21.46-19.79-21.46-14.12,0-23.25,8.44-23.25,24.36v37.79h-13.29v-73.36h12.73v11.07c5.4-7.47,14.81-11.76,26.44-11.76,17.86,0,30.45,10.24,30.45,31.84Z"/><path d="M722.73,324.99v102.71h-12.73v-11.63c-5.95,8.31-15.36,12.46-26.16,12.46-21.46,0-37.1-15.09-37.1-37.51s15.64-37.37,37.1-37.37c10.38,0,19.52,3.88,25.61,11.76v-40.42h13.29Zm-13.15,66.03c0-15.64-10.66-25.75-24.64-25.75s-24.78,10.1-24.78,25.75,10.66,25.88,24.78,25.88,24.64-10.24,24.64-25.88Z"/><path d="M809.1,395.44h-59.52c1.66,12.87,12.04,21.45,26.58,21.45,8.58,0,15.78-2.91,21.18-8.86l7.34,8.58c-6.64,7.75-16.75,11.9-28.93,11.9-23.67,0-39.45-15.64-39.45-37.51s15.64-37.37,36.82-37.37,36.27,15.23,36.27,37.79c0,1.11-.14,2.77-.28,4.01Zm-59.52-9.55h47.06c-1.38-12.32-10.66-21.04-23.53-21.04s-22.15,8.58-23.53,21.04Z"/><path d="M870.7,427.69l-21.18-28.1-21.45,28.1h-14.81l28.93-37.51-27.55-35.85h14.81l20.21,26.44,20.07-26.44h14.53l-27.68,35.85,29.21,37.51h-15.09Z"/><path d="M959.7,395.44h-59.52c1.66,12.87,12.04,21.45,26.58,21.45,8.58,0,15.78-2.91,21.18-8.86l7.34,8.58c-6.64,7.75-16.75,11.9-28.93,11.9-23.67,0-39.45-15.64-39.45-37.51s15.64-37.37,36.82-37.37,36.27,15.23,36.27,37.79c0,1.11-.14,2.77-.28,4.01Zm-59.52-9.55h47.06c-1.38-12.32-10.66-21.04-23.53-21.04s-22.15,8.58-23.53,21.04Z"/><path d="M1013.69,353.64v12.87c-1.11-.14-2.08-.14-3.05-.14-14.26,0-23.12,8.72-23.12,24.78v36.54h-13.29v-73.36h12.73v12.32c4.71-8.58,13.84-13.01,26.71-13.01Z"/></g><g><rect x="431.77" y="234.79" width="11.61" height="11.61" transform="translate(678.17 -196.98) rotate(90)"/><rect x="431.77" y="263.83" width="11.61" height="11.61" transform="translate(707.21 -167.94) rotate(90)"/><rect x="431.77" y="292.86" width="11.61" height="11.61" transform="translate(736.24 -138.9) rotate(90)"/><rect x="431.77" y="321.9" width="11.61" height="11.61" transform="translate(765.28 -109.87) rotate(90)"/><rect x="431.77" y="350.93" width="11.61" height="11.61" transform="translate(794.31 -80.83) rotate(90)"/><rect x="298.12" y="466.27" width="11.61" height="11.61" transform="translate(-195.32 215.21) rotate(-30)"/><rect x="323.27" y="451.75" width="11.61" height="11.61" transform="translate(-184.69 225.84) rotate(-30)"/><rect x="348.41" y="437.23" width="11.61" height="11.61" transform="translate(-174.06 236.47) rotate(-30)"/><rect x="373.56" y="422.71" width="11.61" height="11.61" transform="translate(-163.44 247.09) rotate(-30)"/><rect x="398.7" y="408.2" width="11.61" height="11.61" transform="translate(-152.81 257.72) rotate(-30)"/><rect x="298.12" y="119.46" width="11.61" height="11.61" transform="translate(103.35 -135.18) rotate(30)"/><rect x="323.27" y="133.97" width="11.61" height="11.61" transform="translate(113.98 -145.81) rotate(30)"/><rect x="348.41" y="148.49" width="11.61" height="11.61" transform="translate(124.61 -156.44) rotate(30)"/><rect x="373.56" y="163.01" width="11.61" height="11.61" transform="translate(135.23 -167.07) rotate(30)"/><rect x="398.7" y="177.53" width="11.61" height="11.61" transform="translate(145.86 -177.69) rotate(30)"/><rect x="98.94" y="234.79" width="11.61" height="11.61" transform="translate(345.35 135.85) rotate(90)"/><rect x="98.94" y="263.83" width="11.61" height="11.61" transform="translate(374.38 164.89) rotate(90)"/><rect x="98.94" y="292.86" width="11.61" height="11.61" transform="translate(403.42 193.92) rotate(90)"/><rect x="98.94" y="321.9" width="11.61" height="11.61" transform="translate(432.45 222.96) rotate(90)"/><rect x="98.94" y="350.93" width="11.61" height="11.61" transform="translate(461.49 251.99) rotate(90)"/><rect x="232.58" y="466.27" width="11.61" height="11.61" transform="translate(208.81 1000.1) rotate(-150)"/><rect x="207.44" y="451.75" width="11.61" height="11.61" transform="translate(169.14 960.44) rotate(-150)"/><rect x="182.29" y="437.23" width="11.61" height="11.61" transform="translate(129.48 920.77) rotate(-150)"/><rect x="157.15" y="422.71" width="11.61" height="11.61" transform="translate(89.82 881.11) rotate(-150)"/><rect x="132" y="408.2" width="11.61" height="11.61" transform="translate(50.15 841.45) rotate(-150)"/><rect x="232.58" y="119.46" width="11.61" height="11.61" transform="translate(507.48 114.55) rotate(150)"/><rect x="207.44" y="133.97" width="11.61" height="11.61" transform="translate(467.81 154.21) rotate(150)"/><rect x="182.29" y="148.49" width="11.61" height="11.61" transform="translate(428.15 193.87) rotate(150)"/><rect x="157.15" y="163.01" width="11.61" height="11.61" transform="translate(388.49 233.54) rotate(150)"/><rect x="132" y="177.53" width="11.61" height="11.61" transform="translate(348.82 273.2) rotate(150)"/></g><g><rect x="292.87" y="195.08" width="11.61" height="11.61"/><rect x="321.9" y="195.08" width="11.61" height="11.61"/><rect x="350.94" y="195.08" width="11.61" height="11.61"/><rect x="379.97" y="195.08" width="11.61" height="11.61"/><rect x="292.87" y="387.94" width="11.61" height="11.61"/><rect x="321.9" y="387.94" width="11.61" height="11.61"/><rect x="350.94" y="387.94" width="11.61" height="11.61"/><rect x="379.97" y="387.94" width="11.61" height="11.61"/><rect x="265.15" y="137.01" width="11.61" height="11.61" transform="translate(413.78 -128.14) rotate(90)"/><rect x="265.15" y="166.05" width="11.61" height="11.61" transform="translate(442.81 -99.11) rotate(90)"/><rect x="265.15" y="195.08" width="11.61" height="11.61" transform="translate(471.85 -70.07) rotate(90)"/><rect x="265.15" y="224.12" width="11.61" height="11.61" transform="translate(500.88 -41.04) rotate(90)"/><rect x="265.15" y="253.15" width="11.61" height="11.61" transform="translate(529.92 -12) rotate(90)"/><rect x="265.15" y="329.87" width="11.61" height="11.61" transform="translate(606.64 64.72) rotate(90)"/><rect x="265.15" y="358.9" width="11.61" height="11.61" transform="translate(635.67 93.75) rotate(90)"/><rect x="265.15" y="387.94" width="11.61" height="11.61" transform="translate(664.71 122.79) rotate(90)"/><rect x="265.15" y="416.98" width="11.61" height="11.61" transform="translate(693.74 151.82) rotate(90)"/><rect x="265.15" y="446.01" width="11.61" height="11.61" transform="translate(722.78 180.86) rotate(90)"/><rect x="350.94" y="339.51" width="11.61" height="11.61" transform="translate(834.2 209.11) rotate(120.01)"/><rect x="336.42" y="364.65" width="11.61" height="11.61" transform="translate(834.18 259.41) rotate(120.01)"/><rect x="307.37" y="414.94" width="11.61" height="11.61" transform="translate(834.15 360) rotate(120.01)"/><rect x="292.85" y="440.08" width="11.61" height="11.61" transform="translate(834.14 410.29) rotate(120.01)"/><rect x="409.03" y="238.94" width="11.61" height="11.61" transform="translate(834.26 7.94) rotate(120.01)"/><rect x="394.51" y="264.08" width="11.61" height="11.61" transform="translate(834.24 58.23) rotate(120.01)"/><rect x="379.98" y="289.22" width="11.61" height="11.61" transform="translate(834.23 108.53) rotate(120.01)"/><rect x="365.46" y="314.37" width="11.61" height="11.61" transform="translate(834.21 158.82) rotate(120.01)"/><rect x="300.65" y="310.47" width="11.61" height="11.61" transform="translate(199.2 -110.85) rotate(30)"/><rect x="325.79" y="324.99" width="11.61" height="11.61" transform="translate(209.83 -121.48) rotate(30)"/><rect x="376.08" y="354.03" width="11.61" height="11.61" transform="translate(231.08 -142.74) rotate(30)"/><rect x="401.23" y="368.54" width="11.61" height="11.61" transform="translate(241.71 -153.36) rotate(30)"/><rect x="303.08" y="269.28" width="11.61" height="11.61" transform="translate(-96.16 191.3) rotate(-30)"/><rect x="328.23" y="254.76" width="11.61" height="11.61" transform="translate(-85.53 201.93) rotate(-30)"/><rect x="353.37" y="240.24" width="11.61" height="11.61" transform="translate(-74.9 212.56) rotate(-30)"/><rect x="378.52" y="225.72" width="11.61" height="11.61" transform="translate(-64.28 223.18) rotate(-30)"/><rect x="403.67" y="211.21" width="11.61" height="11.61" transform="translate(-53.65 233.81) rotate(-30)"/><rect x="237.84" y="195.08" width="11.61" height="11.61" transform="translate(487.29 401.78) rotate(-180)"/><rect x="208.8" y="195.08" width="11.61" height="11.61" transform="translate(429.22 401.78) rotate(-180)"/><rect x="179.77" y="195.08" width="11.61" height="11.61" transform="translate(371.15 401.78) rotate(-180)"/><rect x="150.73" y="195.08" width="11.61" height="11.61" transform="translate(313.08 401.78) rotate(-180)"/><rect x="237.84" y="387.94" width="11.61" height="11.61" transform="translate(487.29 787.49) rotate(-180)"/><rect x="208.8" y="387.94" width="11.61" height="11.61" transform="translate(429.22 787.49) rotate(-180)"/><rect x="179.77" y="387.94" width="11.61" height="11.61" transform="translate(371.15 787.49) rotate(-180)"/><rect x="150.73" y="387.94" width="11.61" height="11.61" transform="translate(313.08 787.49) rotate(-180)"/><rect x="179.77" y="339.51" width="11.61" height="11.61" transform="translate(391.78 11.91) rotate(59.99)"/><rect x="194.29" y="364.65" width="11.61" height="11.61" transform="translate(420.81 11.9) rotate(59.99)"/><rect x="223.34" y="414.94" width="11.61" height="11.61" transform="translate(478.87 11.88) rotate(59.99)"/><rect x="237.86" y="440.08" width="11.61" height="11.61" transform="translate(507.9 11.87) rotate(59.99)"/><rect x="121.68" y="238.94" width="11.61" height="11.61" transform="translate(275.65 11.94) rotate(59.99)"/><rect x="136.2" y="264.08" width="11.61" height="11.61" transform="translate(304.68 11.93) rotate(59.99)"/><rect x="150.72" y="289.22" width="11.61" height="11.61" transform="translate(333.72 11.92) rotate(59.99)"/><rect x="165.25" y="314.37" width="11.61" height="11.61" transform="translate(362.75 11.91) rotate(59.99)"/><rect x="230.06" y="310.47" width="11.61" height="11.61" transform="translate(598.27 472.25) rotate(150)"/><rect x="204.91" y="324.99" width="11.61" height="11.61" transform="translate(558.61 511.92) rotate(150)"/><rect x="154.62" y="354.03" width="11.61" height="11.61" transform="translate(479.28 591.24) rotate(150)"/><rect x="129.48" y="368.54" width="11.61" height="11.61" transform="translate(439.62 630.91) rotate(150)"/><rect x="227.62" y="269.28" width="11.61" height="11.61" transform="translate(298.05 630.03) rotate(-150)"/><rect x="202.48" y="254.76" width="11.61" height="11.61" transform="translate(258.38 590.36) rotate(-150)"/><rect x="177.33" y="240.24" width="11.61" height="11.61" transform="translate(218.72 550.7) rotate(-150)"/><rect x="152.19" y="225.72" width="11.61" height="11.61" transform="translate(179.06 511.04) rotate(-150)"/><rect x="127.04" y="211.21" width="11.61" height="11.61" transform="translate(139.39 471.38) rotate(-150)"/></g><g><circle cx="270.96" cy="105.01" r="14.95"/><circle cx="270.96" cy="297.5" r="16.37"/><circle cx="270.96" cy="489.99" r="14.95"/><circle cx="437.66" cy="393.75" r="14.95"/><circle cx="437.66" cy="201.25" r="14.95"/><circle cx="104.66" cy="393.75" r="14.95"/><circle cx="104.66" cy="201.25" r="14.95"/></g></svg>