<?xml version="1.0" encoding="UTF-8"?><svg id="artwork" xmlns="http://www.w3.org/2000/svg" viewBox="0 0 767 1000"><g><g><path d="M164.59,652.83v103.12h-12.08l-61.87-76.9v76.9h-14.73v-103.12h12.08l61.87,76.9v-76.9h14.73Z"/><path d="M257.84,721.62h-63.35c1.77,13.7,12.82,22.83,28.28,22.83,9.13,0,16.79-3.09,22.54-9.43l7.81,9.13c-7.07,8.25-17.82,12.67-30.79,12.67-25.19,0-41.98-16.65-41.98-39.92s16.65-39.77,39.18-39.77,38.6,16.2,38.6,40.22c0,1.18-.15,2.95-.29,4.27Zm-63.35-10.16h50.09c-1.47-13.11-11.34-22.39-25.04-22.39s-23.57,9.13-25.04,22.39Z"/><path d="M321.63,751.38c-4.27,3.68-10.75,5.45-17.09,5.45-15.76,0-24.75-8.69-24.75-24.46v-42.87h-13.26v-11.64h13.26v-17.09h14.14v17.09h22.39v11.64h-22.39v42.28c0,8.4,4.42,13.11,12.23,13.11,4.12,0,8.1-1.33,11.05-3.68l4.42,10.16Z"/><path d="M458.34,677.87l-29.17,78.08h-13.55l-22.54-59.22-22.83,59.22h-13.55l-29.02-78.08h13.41l22.69,62.17,23.57-62.17h11.93l23.13,62.46,23.28-62.46h12.67Z"/><path d="M460.25,716.91c0-23.28,17.24-39.77,40.66-39.77s40.51,16.5,40.51,39.77-17.09,39.92-40.51,39.92-40.66-16.65-40.66-39.92Zm66.88,0c0-16.65-11.2-27.4-26.22-27.4s-26.37,10.75-26.37,27.4,11.34,27.55,26.37,27.55,26.22-10.9,26.22-27.55Z"/><path d="M597.99,677.13v13.7c-1.18-.15-2.21-.15-3.24-.15-15.17,0-24.6,9.28-24.6,26.37v38.89h-14.14v-78.08h13.55v13.11c5.01-9.13,14.73-13.85,28.43-13.85Z"/><path d="M644.39,719.56l-16.2,15.03v21.36h-14.14v-109.31h14.14v70.12l42.57-38.89h17.09l-32.85,32.26,36.09,45.81h-17.38l-29.32-36.39Z"/></g><g><path d="M127.32,820.15h14.73v103.12h-14.73v-103.12Z"/><path d="M234.71,878.34v44.93h-14.14v-43.31c0-15.32-7.66-22.83-21.07-22.83-15.03,0-24.75,8.99-24.75,25.93v40.22h-14.14v-78.08h13.55v11.78c5.75-7.95,15.76-12.52,28.14-12.52,19,0,32.41,10.9,32.41,33.88Z"/><path d="M330.02,813.96v109.31h-13.55v-12.37c-6.34,8.84-16.35,13.26-27.84,13.26-22.83,0-39.48-16.06-39.48-39.92s16.65-39.77,39.48-39.77c11.05,0,20.77,4.12,27.25,12.52v-43.02h14.14Zm-14,70.27c0-16.65-11.34-27.4-26.22-27.4s-26.37,10.75-26.37,27.4,11.34,27.55,26.37,27.55,26.22-10.9,26.22-27.55Z"/><path d="M421.95,888.94h-63.35c1.77,13.7,12.82,22.83,28.28,22.83,9.13,0,16.79-3.09,22.54-9.43l7.81,9.13c-7.07,8.25-17.82,12.67-30.79,12.67-25.19,0-41.98-16.65-41.98-39.92s16.65-39.77,39.18-39.77,38.6,16.2,38.6,40.22c0,1.18-.15,2.95-.29,4.27Zm-63.35-10.16h50.09c-1.47-13.11-11.34-22.39-25.04-22.39s-23.57,9.13-25.04,22.39Z"/><path d="M487.5,923.27l-22.54-29.9-22.83,29.9h-15.76l30.79-39.92-29.32-38.15h15.76l21.51,28.14,21.36-28.14h15.47l-29.46,38.15,31.08,39.92h-16.06Z"/><path d="M582.23,888.94h-63.35c1.77,13.7,12.82,22.83,28.28,22.83,9.13,0,16.79-3.09,22.54-9.43l7.81,9.13c-7.07,8.25-17.82,12.67-30.79,12.67-25.19,0-41.98-16.65-41.98-39.92s16.65-39.77,39.18-39.77,38.6,16.2,38.6,40.22c0,1.18-.15,2.95-.29,4.27Zm-63.35-10.16h50.09c-1.47-13.11-11.34-22.39-25.04-22.39s-23.57,9.13-25.04,22.39Z"/><path d="M639.68,844.45v13.7c-1.18-.15-2.21-.15-3.24-.15-15.17,0-24.6,9.28-24.6,26.37v38.89h-14.14v-78.08h13.55v13.11c5.01-9.13,14.73-13.85,28.43-13.85Z"/></g></g><g><g><rect x="587.2" y="259.42" width="14.73" height="14.73" transform="translate(861.34 -327.78) rotate(90)"/><rect x="587.2" y="296.24" width="14.73" height="14.73" transform="translate(898.17 -290.95) rotate(90)"/><rect x="587.2" y="333.07" width="14.73" height="14.73" transform="translate(935 -254.13) rotate(90)"/><rect x="587.2" y="369.89" width="14.73" height="14.73" transform="translate(971.82 -217.3) rotate(90)"/><rect x="587.2" y="406.72" width="14.73" height="14.73" transform="translate(1008.65 -180.48) rotate(90)"/><rect x="417.7" y="553" width="14.73" height="14.73" transform="translate(-223.24 287.61) rotate(-30)"/><rect x="449.59" y="534.59" width="14.73" height="14.73" transform="translate(-209.76 301.08) rotate(-30)"/><rect x="481.48" y="516.17" width="14.73" height="14.73" transform="translate(-196.28 314.56) rotate(-30)"/><rect x="513.37" y="497.76" width="14.73" height="14.73" transform="translate(-182.8 328.04) rotate(-30)"/><rect x="545.26" y="479.35" width="14.73" height="14.73" transform="translate(-169.32 341.52) rotate(-30)"/><rect x="417.7" y="113.14" width="14.73" height="14.73" transform="translate(117.2 -196.39) rotate(30)"/><rect x="449.59" y="131.55" width="14.73" height="14.73" transform="translate(130.68 -209.87) rotate(30)"/><rect x="481.48" y="149.96" width="14.73" height="14.73" transform="translate(144.16 -223.34) rotate(30)"/><rect x="513.37" y="168.37" width="14.73" height="14.73" transform="translate(157.64 -236.82) rotate(30)"/><rect x="545.26" y="186.79" width="14.73" height="14.73" transform="translate(171.11 -250.3) rotate(30)"/><rect x="165.07" y="259.42" width="14.73" height="14.73" transform="translate(439.22 94.34) rotate(90)"/><rect x="165.07" y="296.24" width="14.73" height="14.73" transform="translate(476.05 131.17) rotate(90)"/><rect x="165.07" y="333.07" width="14.73" height="14.73" transform="translate(512.87 168) rotate(90)"/><rect x="165.07" y="369.89" width="14.73" height="14.73" transform="translate(549.7 204.82) rotate(90)"/><rect x="165.07" y="406.72" width="14.73" height="14.73" transform="translate(586.52 241.65) rotate(90)"/><rect x="334.57" y="553" width="14.73" height="14.73" transform="translate(357.88 1216.63) rotate(-150)"/><rect x="302.68" y="534.59" width="14.73" height="14.73" transform="translate(307.58 1166.32) rotate(-150)"/><rect x="270.79" y="516.17" width="14.73" height="14.73" transform="translate(257.27 1116.02) rotate(-150)"/><rect x="238.9" y="497.76" width="14.73" height="14.73" transform="translate(206.97 1065.71) rotate(-150)"/><rect x="207.01" y="479.35" width="14.73" height="14.73" transform="translate(156.66 1015.41) rotate(-150)"/><rect x="334.57" y="113.14" width="14.73" height="14.73" transform="translate(698.32 53.89) rotate(150)"/><rect x="302.68" y="131.55" width="14.73" height="14.73" transform="translate(648.01 104.19) rotate(150)"/><rect x="270.79" y="149.96" width="14.73" height="14.73" transform="translate(597.71 154.5) rotate(150)"/><rect x="238.9" y="168.37" width="14.73" height="14.73" transform="translate(547.4 204.8) rotate(150)"/><rect x="207.01" y="186.79" width="14.73" height="14.73" transform="translate(497.1 255.11) rotate(150)"/></g><g><rect x="411.03" y="209.05" width="14.73" height="14.73"/><rect x="447.86" y="209.05" width="14.73" height="14.73"/><rect x="484.68" y="209.05" width="14.73" height="14.73"/><rect x="521.51" y="209.05" width="14.73" height="14.73"/><rect x="411.03" y="453.66" width="14.73" height="14.73"/><rect x="447.86" y="453.66" width="14.73" height="14.73"/><rect x="484.68" y="453.66" width="14.73" height="14.73"/><rect x="521.51" y="453.66" width="14.73" height="14.73"/><rect x="375.88" y="135.4" width="14.73" height="14.73" transform="translate(526.01 -240.48) rotate(90)"/><rect x="375.88" y="172.23" width="14.73" height="14.73" transform="translate(562.84 -203.65) rotate(90)"/><rect x="375.88" y="209.05" width="14.73" height="14.73" transform="translate(599.66 -166.83) rotate(90)"/><rect x="375.88" y="245.88" width="14.73" height="14.73" transform="translate(636.49 -130) rotate(90)"/><rect x="375.88" y="282.7" width="14.73" height="14.73" transform="translate(673.31 -93.18) rotate(90)"/><rect x="375.88" y="380.01" width="14.73" height="14.73" transform="translate(770.62 4.13) rotate(90)"/><rect x="375.88" y="416.83" width="14.73" height="14.73" transform="translate(807.44 40.95) rotate(90)"/><rect x="375.88" y="453.66" width="14.73" height="14.73" transform="translate(844.27 77.78) rotate(90)"/><rect x="375.88" y="490.48" width="14.73" height="14.73" transform="translate(881.09 114.6) rotate(90)"/><rect x="375.88" y="527.31" width="14.73" height="14.73" transform="translate(917.92 151.43) rotate(90)"/><rect x="484.68" y="392.23" width="14.73" height="14.73" transform="translate(1084.18 173.38) rotate(120.01)"/><rect x="466.26" y="424.12" width="14.73" height="14.73" transform="translate(1084.16 237.17) rotate(120.01)"/><rect x="429.43" y="487.9" width="14.73" height="14.73" transform="translate(1084.12 364.74) rotate(120.01)"/><rect x="411.01" y="519.79" width="14.73" height="14.73" transform="translate(1084.1 428.53) rotate(120.01)"/><rect x="558.36" y="264.68" width="14.73" height="14.73" transform="translate(1084.25 -81.77) rotate(120.01)"/><rect x="539.94" y="296.57" width="14.73" height="14.73" transform="translate(1084.23 -17.98) rotate(120.01)"/><rect x="521.52" y="328.45" width="14.73" height="14.73" transform="translate(1084.21 45.81) rotate(120.01)"/><rect x="503.1" y="360.34" width="14.73" height="14.73" transform="translate(1084.19 109.59) rotate(120.01)"/><rect x="420.9" y="355.41" width="14.73" height="14.73" transform="translate(238.76 -165.53) rotate(30)"/><rect x="452.79" y="373.82" width="14.73" height="14.73" transform="translate(252.24 -179.01) rotate(30)"/><rect x="516.57" y="410.64" width="14.73" height="14.73" transform="translate(279.2 -205.97) rotate(30)"/><rect x="548.47" y="429.06" width="14.73" height="14.73" transform="translate(292.68 -219.45) rotate(30)"/><rect x="423.99" y="303.15" width="14.73" height="14.73" transform="translate(-97.47 257.28) rotate(-30)"/><rect x="455.88" y="284.74" width="14.73" height="14.73" transform="translate(-83.99 270.76) rotate(-30)"/><rect x="487.77" y="266.33" width="14.73" height="14.73" transform="translate(-70.51 284.24) rotate(-30)"/><rect x="519.66" y="247.92" width="14.73" height="14.73" transform="translate(-57.03 297.72) rotate(-30)"/><rect x="551.56" y="229.5" width="14.73" height="14.73" transform="translate(-43.55 311.2) rotate(-30)"/><rect x="341.24" y="209.05" width="14.73" height="14.73" transform="translate(697.21 432.84) rotate(-180)"/><rect x="304.41" y="209.05" width="14.73" height="14.73" transform="translate(623.56 432.84) rotate(-180)"/><rect x="267.59" y="209.05" width="14.73" height="14.73" transform="translate(549.9 432.84) rotate(-180)"/><rect x="230.76" y="209.05" width="14.73" height="14.73" transform="translate(476.25 432.84) rotate(-180)"/><rect x="341.24" y="453.66" width="14.73" height="14.73" transform="translate(697.21 922.04) rotate(-180)"/><rect x="304.41" y="453.66" width="14.73" height="14.73" transform="translate(623.56 922.04) rotate(-180)"/><rect x="267.59" y="453.66" width="14.73" height="14.73" transform="translate(549.9 922.04) rotate(-180)"/><rect x="230.76" y="453.66" width="14.73" height="14.73" transform="translate(476.25 922.04) rotate(-180)"/><rect x="267.59" y="392.23" width="14.73" height="14.73" transform="translate(483.45 -38.36) rotate(59.99)"/><rect x="286.01" y="424.12" width="14.73" height="14.73" transform="translate(520.27 -38.37) rotate(59.99)"/><rect x="322.84" y="487.9" width="14.73" height="14.73" transform="translate(593.91 -38.39) rotate(59.99)"/><rect x="341.26" y="519.79" width="14.73" height="14.73" transform="translate(630.73 -38.4) rotate(59.99)"/><rect x="193.91" y="264.68" width="14.73" height="14.73" transform="translate(336.17 -38.31) rotate(59.99)"/><rect x="212.33" y="296.57" width="14.73" height="14.73" transform="translate(372.99 -38.33) rotate(59.99)"/><rect x="230.75" y="328.45" width="14.73" height="14.73" transform="translate(409.81 -38.34) rotate(59.99)"/><rect x="249.17" y="360.34" width="14.73" height="14.73" transform="translate(446.63 -38.35) rotate(59.99)"/><rect x="331.37" y="355.41" width="14.73" height="14.73" transform="translate(813.48 507.57) rotate(150)"/><rect x="299.48" y="373.82" width="14.73" height="14.73" transform="translate(763.17 557.88) rotate(150)"/><rect x="235.69" y="410.64" width="14.73" height="14.73" transform="translate(662.56 658.49) rotate(150)"/><rect x="203.8" y="429.06" width="14.73" height="14.73" transform="translate(612.26 708.79) rotate(150)"/><rect x="328.28" y="303.15" width="14.73" height="14.73" transform="translate(471.06 747.26) rotate(-150)"/><rect x="296.39" y="284.74" width="14.73" height="14.73" transform="translate(420.76 696.96) rotate(-150)"/><rect x="264.5" y="266.33" width="14.73" height="14.73" transform="translate(370.45 646.65) rotate(-150)"/><rect x="232.61" y="247.92" width="14.73" height="14.73" transform="translate(320.15 596.35) rotate(-150)"/><rect x="200.71" y="229.5" width="14.73" height="14.73" transform="translate(269.85 546.04) rotate(-150)"/></g><g><circle cx="383.25" cy="94.81" r="18.96"/><circle cx="383.25" cy="338.95" r="20.76"/><circle cx="383.25" cy="583.09" r="18.96"/><circle cx="594.68" cy="461.02" r="18.96"/><circle cx="594.68" cy="216.88" r="18.96"/><circle cx="172.32" cy="461.02" r="18.96"/><circle cx="172.32" cy="216.88" r="18.96"/></g></g></svg>