<?xml version="1.0" encoding="UTF-8"?><svg id="artwork" xmlns="http://www.w3.org/2000/svg" xmlns:xlink="http://www.w3.org/1999/xlink" viewBox="0 0 767 1000"><defs><style>.cls-1{fill:url(#linear-gradient);}.cls-2{fill:#fff;}.cls-3{fill:url(#linear-gradient-8);}.cls-4{fill:url(#linear-gradient-9);}.cls-5{fill:url(#linear-gradient-3);}.cls-6{fill:url(#linear-gradient-4);}.cls-7{fill:url(#linear-gradient-2);}.cls-8{fill:url(#linear-gradient-6);}.cls-9{fill:url(#linear-gradient-7);}.cls-10{fill:url(#linear-gradient-5);}.cls-11{fill:url(#linear-gradient-59);}.cls-12{fill:url(#linear-gradient-57);}.cls-13{fill:url(#linear-gradient-58);}.cls-14{fill:url(#linear-gradient-55);}.cls-15{fill:url(#linear-gradient-56);}.cls-16{fill:url(#linear-gradient-53);}.cls-17{fill:url(#linear-gradient-54);}.cls-18{fill:url(#linear-gradient-51);}.cls-19{fill:url(#linear-gradient-52);}.cls-20{fill:url(#linear-gradient-50);}.cls-21{fill:url(#linear-gradient-77);}.cls-22{fill:url(#linear-gradient-78);}.cls-23{fill:url(#linear-gradient-79);}.cls-24{fill:url(#linear-gradient-74);}.cls-25{fill:url(#linear-gradient-75);}.cls-26{fill:url(#linear-gradient-76);}.cls-27{fill:url(#linear-gradient-70);}.cls-28{fill:url(#linear-gradient-71);}.cls-29{fill:url(#linear-gradient-72);}.cls-30{fill:url(#linear-gradient-73);}.cls-31{fill:url(#linear-gradient-68);}.cls-32{fill:url(#linear-gradient-67);}.cls-33{fill:url(#linear-gradient-69);}.cls-34{fill:url(#linear-gradient-64);}.cls-35{fill:url(#linear-gradient-63);}.cls-36{fill:url(#linear-gradient-66);}.cls-37{fill:url(#linear-gradient-65);}.cls-38{fill:url(#linear-gradient-60);}.cls-39{fill:url(#linear-gradient-62);}.cls-40{fill:url(#linear-gradient-61);}.cls-41{fill:url(#linear-gradient-90);}.cls-42{fill:url(#linear-gradient-81);}.cls-43{fill:url(#linear-gradient-80);}.cls-44{fill:url(#linear-gradient-88);}.cls-45{fill:url(#linear-gradient-89);}.cls-46{fill:url(#linear-gradient-87);}.cls-47{fill:url(#linear-gradient-86);}.cls-48{fill:url(#linear-gradient-85);}.cls-49{fill:url(#linear-gradient-84);}.cls-50{fill:url(#linear-gradient-83);}.cls-51{fill:url(#linear-gradient-82);}.cls-52{fill:url(#linear-gradient-41);}.cls-53{fill:url(#linear-gradient-40);}.cls-54{fill:url(#linear-gradient-43);}.cls-55{fill:url(#linear-gradient-42);}.cls-56{fill:url(#linear-gradient-45);}.cls-57{fill:url(#linear-gradient-46);}.cls-58{fill:url(#linear-gradient-44);}.cls-59{fill:url(#linear-gradient-49);}.cls-60{fill:url(#linear-gradient-47);}.cls-61{fill:url(#linear-gradient-48);}.cls-62{fill:url(#linear-gradient-14);}.cls-63{fill:url(#linear-gradient-18);}.cls-64{fill:url(#linear-gradient-22);}.cls-65{fill:url(#linear-gradient-20);}.cls-66{fill:url(#linear-gradient-21);}.cls-67{fill:url(#linear-gradient-23);}.cls-68{fill:url(#linear-gradient-15);}.cls-69{fill:url(#linear-gradient-19);}.cls-70{fill:url(#linear-gradient-16);}.cls-71{fill:url(#linear-gradient-17);}.cls-72{fill:url(#linear-gradient-13);}.cls-73{fill:url(#linear-gradient-12);}.cls-74{fill:url(#linear-gradient-10);}.cls-75{fill:url(#linear-gradient-11);}.cls-76{fill:url(#linear-gradient-27);}.cls-77{fill:url(#linear-gradient-24);}.cls-78{fill:url(#linear-gradient-26);}.cls-79{fill:url(#linear-gradient-38);}.cls-80{fill:url(#linear-gradient-35);}.cls-81{fill:url(#linear-gradient-37);}.cls-82{fill:url(#linear-gradient-34);}.cls-83{fill:url(#linear-gradient-39);}.cls-84{fill:url(#linear-gradient-36);}.cls-85{fill:url(#linear-gradient-25);}.cls-86{fill:url(#linear-gradient-28);}.cls-87{fill:url(#linear-gradient-29);}.cls-88{fill:url(#linear-gradient-33);}.cls-89{fill:url(#linear-gradient-30);}.cls-90{fill:url(#linear-gradient-32);}.cls-91{fill:url(#linear-gradient-31);}</style><linearGradient id="linear-gradient" x1="425.83" y1="12.82" x2="698.06" y2="422.56" gradientTransform="translate(327.78 861.34) rotate(-90)" gradientUnits="userSpaceOnUse"><stop offset="0" stop-color="#00ffc8"/><stop offset=".19" stop-color="#04e7d0"/><stop offset=".59" stop-color="#0faae6"/><stop offset="1" stop-color="#1b68ff"/></linearGradient><linearGradient id="linear-gradient-2" x1="408.86" y1="24.1" x2="681.08" y2="433.83" gradientTransform="translate(290.95 898.17) rotate(-90)" xlink:href="#linear-gradient"/><linearGradient id="linear-gradient-3" x1="391.88" y1="35.37" x2="664.11" y2="445.11" gradientTransform="translate(254.13 935) rotate(-90)" xlink:href="#linear-gradient"/><linearGradient id="linear-gradient-4" x1="374.91" y1="46.65" x2="647.13" y2="456.39" gradientTransform="translate(217.3 971.82) rotate(-90)" xlink:href="#linear-gradient"/><linearGradient id="linear-gradient-5" x1="357.94" y1="57.93" x2="630.16" y2="467.67" gradientTransform="translate(180.48 1008.65) rotate(-90)" xlink:href="#linear-gradient"/><linearGradient id="linear-gradient-6" x1="172.92" y1="180.85" x2="445.14" y2="590.59" gradientTransform="translate(337.13 -137.46) rotate(30)" xlink:href="#linear-gradient"/><linearGradient id="linear-gradient-7" x1="203.53" y1="160.51" x2="475.75" y2="570.25" gradientTransform="translate(332.2 -155.87) rotate(30)" xlink:href="#linear-gradient"/><linearGradient id="linear-gradient-8" x1="234.14" y1="140.17" x2="506.37" y2="549.91" gradientTransform="translate(327.26 -174.28) rotate(30)" xlink:href="#linear-gradient"/><linearGradient id="linear-gradient-9" x1="264.76" y1="119.84" x2="536.98" y2="529.57" gradientTransform="translate(322.33 -192.69) rotate(30)" xlink:href="#linear-gradient"/><linearGradient id="linear-gradient-10" x1="295.37" y1="99.5" x2="567.59" y2="509.24" gradientTransform="translate(317.4 -211.11) rotate(30)" xlink:href="#linear-gradient"/><linearGradient id="linear-gradient-11" x1="375.66" y1="46.15" x2="647.89" y2="455.89" gradientTransform="translate(-3.3 228.67) rotate(-30)" xlink:href="#linear-gradient"/><linearGradient id="linear-gradient-12" x1="389.3" y1="37.09" x2="661.53" y2="446.83" gradientTransform="translate(-8.24 247.09) rotate(-30)" xlink:href="#linear-gradient"/><linearGradient id="linear-gradient-13" x1="402.94" y1="28.03" x2="675.16" y2="437.77" gradientTransform="translate(-13.17 265.5) rotate(-30)" xlink:href="#linear-gradient"/><linearGradient id="linear-gradient-14" x1="416.58" y1="18.97" x2="688.8" y2="428.7" gradientTransform="translate(-18.1 283.91) rotate(-30)" xlink:href="#linear-gradient"/><linearGradient id="linear-gradient-15" x1="430.22" y1="9.91" x2="702.44" y2="419.64" gradientTransform="translate(-23.04 302.33) rotate(-30)" xlink:href="#linear-gradient"/><linearGradient id="linear-gradient-16" x1="132.98" y1="207.39" x2="405.2" y2="617.13" gradientTransform="translate(-94.34 439.22) rotate(-90)" xlink:href="#linear-gradient"/><linearGradient id="linear-gradient-17" x1="116" y1="218.66" x2="388.23" y2="628.4" gradientTransform="translate(-131.17 476.05) rotate(-90)" xlink:href="#linear-gradient"/><linearGradient id="linear-gradient-18" x1="99.03" y1="229.94" x2="371.25" y2="639.68" gradientTransform="translate(-168 512.87) rotate(-90)" xlink:href="#linear-gradient"/><linearGradient id="linear-gradient-19" x1="82.06" y1="241.22" x2="354.28" y2="650.96" gradientTransform="translate(-204.82 549.7) rotate(-90)" xlink:href="#linear-gradient"/><linearGradient id="linear-gradient-20" x1="65.08" y1="252.5" x2="337.31" y2="662.24" gradientTransform="translate(-241.65 586.52) rotate(-90)" xlink:href="#linear-gradient"/><linearGradient id="linear-gradient-21" x1="115.25" y1="219.16" x2="387.47" y2="628.9" gradientTransform="translate(918.25 874.69) rotate(150)" xlink:href="#linear-gradient"/><linearGradient id="linear-gradient-22" x1="101.61" y1="228.23" x2="373.84" y2="637.96" gradientTransform="translate(849.53 856.27) rotate(150)" xlink:href="#linear-gradient"/><linearGradient id="linear-gradient-23" x1="87.97" y1="237.29" x2="360.2" y2="647.03" gradientTransform="translate(780.81 837.86) rotate(150)" xlink:href="#linear-gradient"/><linearGradient id="linear-gradient-24" x1="74.33" y1="246.35" x2="346.56" y2="656.09" gradientTransform="translate(712.1 819.45) rotate(150)" xlink:href="#linear-gradient"/><linearGradient id="linear-gradient-25" x1="60.7" y1="255.41" x2="332.92" y2="665.15" gradientTransform="translate(643.38 801.04) rotate(150)" xlink:href="#linear-gradient"/><linearGradient id="linear-gradient-26" x1="318" y1="84.46" x2="590.22" y2="494.2" gradientTransform="translate(577.82 395.83) rotate(-150)" xlink:href="#linear-gradient"/><linearGradient id="linear-gradient-27" x1="287.38" y1="104.8" x2="559.61" y2="514.54" gradientTransform="translate(509.1 414.24) rotate(-150)" xlink:href="#linear-gradient"/><linearGradient id="linear-gradient-28" x1="256.77" y1="125.14" x2="528.99" y2="534.88" gradientTransform="translate(440.38 432.65) rotate(-150)" xlink:href="#linear-gradient"/><linearGradient id="linear-gradient-29" x1="226.16" y1="145.48" x2="498.38" y2="555.22" gradientTransform="translate(371.66 451.07) rotate(-150)" xlink:href="#linear-gradient"/><linearGradient id="linear-gradient-30" x1="195.55" y1="165.82" x2="467.77" y2="575.56" gradientTransform="translate(302.94 469.48) rotate(-150)" xlink:href="#linear-gradient"/><linearGradient id="linear-gradient-31" x1="326.83" y1="78.59" x2="599.05" y2="488.33" gradientTransform="matrix(1, 0, 0, 1, 0, 0)" xlink:href="#linear-gradient"/><linearGradient id="linear-gradient-32" x1="352.38" y1="61.62" x2="624.6" y2="471.36" gradientTransform="matrix(1, 0, 0, 1, 0, 0)" xlink:href="#linear-gradient"/><linearGradient id="linear-gradient-33" x1="377.93" y1="44.65" x2="650.15" y2="454.39" gradientTransform="matrix(1, 0, 0, 1, 0, 0)" xlink:href="#linear-gradient"/><linearGradient id="linear-gradient-34" x1="403.47" y1="27.67" x2="675.7" y2="437.41" gradientTransform="matrix(1, 0, 0, 1, 0, 0)" xlink:href="#linear-gradient"/><linearGradient id="linear-gradient-35" x1="214.08" y1="153.5" x2="486.31" y2="563.24" gradientTransform="matrix(1, 0, 0, 1, 0, 0)" xlink:href="#linear-gradient"/><linearGradient id="linear-gradient-36" x1="239.63" y1="136.53" x2="511.86" y2="546.27" gradientTransform="matrix(1, 0, 0, 1, 0, 0)" xlink:href="#linear-gradient"/><linearGradient id="linear-gradient-37" x1="265.18" y1="119.55" x2="537.4" y2="529.29" gradientTransform="matrix(1, 0, 0, 1, 0, 0)" xlink:href="#linear-gradient"/><linearGradient id="linear-gradient-38" x1="290.73" y1="102.58" x2="562.95" y2="512.32" gradientTransform="matrix(1, 0, 0, 1, 0, 0)" xlink:href="#linear-gradient"/><linearGradient id="linear-gradient-39" x1="336.39" y1="72.24" x2="608.61" y2="481.98" gradientTransform="translate(240.48 526.01) rotate(-90)" xlink:href="#linear-gradient"/><linearGradient id="linear-gradient-40" x1="319.42" y1="83.52" x2="591.64" y2="493.26" gradientTransform="translate(203.65 562.84) rotate(-90)" xlink:href="#linear-gradient"/><linearGradient id="linear-gradient-41" x1="302.44" y1="94.8" x2="574.67" y2="504.54" gradientTransform="translate(166.83 599.66) rotate(-90)" xlink:href="#linear-gradient"/><linearGradient id="linear-gradient-42" x1="285.47" y1="106.07" x2="557.69" y2="515.81" gradientTransform="translate(130 636.49) rotate(-90)" xlink:href="#linear-gradient"/><linearGradient id="linear-gradient-43" x1="268.49" y1="117.35" x2="540.72" y2="527.09" gradientTransform="translate(93.18 673.31) rotate(-90)" xlink:href="#linear-gradient"/><linearGradient id="linear-gradient-44" x1="223.65" y1="147.15" x2="495.87" y2="556.89" gradientTransform="translate(-4.13 770.62) rotate(-90)" xlink:href="#linear-gradient"/><linearGradient id="linear-gradient-45" x1="206.67" y1="158.43" x2="478.89" y2="568.16" gradientTransform="translate(-40.95 807.44) rotate(-90)" xlink:href="#linear-gradient"/><linearGradient id="linear-gradient-46" x1="189.7" y1="169.7" x2="461.92" y2="579.44" gradientTransform="translate(-77.78 844.27) rotate(-90)" xlink:href="#linear-gradient"/><linearGradient id="linear-gradient-47" x1="172.72" y1="180.98" x2="444.95" y2="590.72" gradientTransform="translate(-114.6 881.09) rotate(-90)" xlink:href="#linear-gradient"/><linearGradient id="linear-gradient-48" x1="155.75" y1="192.26" x2="427.97" y2="602" gradientTransform="translate(-151.43 917.92) rotate(-90)" xlink:href="#linear-gradient"/><linearGradient id="linear-gradient-49" x1="293.49" y1="100.74" x2="565.72" y2="510.48" gradientTransform="translate(392.13 1025.54) rotate(-120.01)" xlink:href="#linear-gradient"/><linearGradient id="linear-gradient-50" x1="266.02" y1="119" x2="538.24" y2="528.74" gradientTransform="translate(336.89 1057.43) rotate(-120.01)" xlink:href="#linear-gradient"/><linearGradient id="linear-gradient-51" x1="211.06" y1="155.51" x2="483.29" y2="565.25" gradientTransform="translate(226.4 1121.21) rotate(-120.01)" xlink:href="#linear-gradient"/><linearGradient id="linear-gradient-52" x1="183.59" y1="173.76" x2="455.81" y2="583.5" gradientTransform="translate(171.15 1153.09) rotate(-120.01)" xlink:href="#linear-gradient"/><linearGradient id="linear-gradient-53" x1="403.4" y1="27.72" x2="675.62" y2="437.46" gradientTransform="translate(613.11 897.99) rotate(-120.01)" xlink:href="#linear-gradient"/><linearGradient id="linear-gradient-54" x1="375.92" y1="45.98" x2="648.15" y2="455.72" gradientTransform="translate(557.87 929.87) rotate(-120.01)" xlink:href="#linear-gradient"/><linearGradient id="linear-gradient-55" x1="348.45" y1="64.23" x2="620.67" y2="473.97" gradientTransform="translate(502.62 961.76) rotate(-120.01)" xlink:href="#linear-gradient"/><linearGradient id="linear-gradient-56" x1="320.97" y1="82.49" x2="593.19" y2="492.23" gradientTransform="translate(447.38 993.65) rotate(-120.01)" xlink:href="#linear-gradient"/><linearGradient id="linear-gradient-57" x1="266.22" y1="118.86" x2="538.44" y2="528.6" gradientTransform="translate(-124.01 262.73) rotate(-30)" xlink:href="#linear-gradient"/><linearGradient id="linear-gradient-58" x1="279.86" y1="109.8" x2="552.08" y2="519.54" gradientTransform="translate(-128.94 281.15) rotate(-30)" xlink:href="#linear-gradient"/><linearGradient id="linear-gradient-59" x1="307.13" y1="91.68" x2="579.36" y2="501.42" gradientTransform="translate(-138.81 317.97) rotate(-30)" xlink:href="#linear-gradient"/><linearGradient id="linear-gradient-60" x1="320.77" y1="82.62" x2="592.99" y2="492.36" gradientTransform="translate(-143.74 336.39) rotate(-30)" xlink:href="#linear-gradient"/><linearGradient id="linear-gradient-61" x1="292.44" y1="101.44" x2="564.67" y2="511.18" gradientTransform="translate(213.05 -174.08) rotate(30)" xlink:href="#linear-gradient"/><linearGradient id="linear-gradient-62" x1="323.06" y1="81.1" x2="595.28" y2="490.84" gradientTransform="translate(208.12 -192.49) rotate(30)" xlink:href="#linear-gradient"/><linearGradient id="linear-gradient-63" x1="353.67" y1="60.76" x2="625.89" y2="470.5" gradientTransform="translate(203.18 -210.9) rotate(30)" xlink:href="#linear-gradient"/><linearGradient id="linear-gradient-64" x1="384.28" y1="40.42" x2="656.51" y2="450.16" gradientTransform="translate(198.25 -229.31) rotate(30)" xlink:href="#linear-gradient"/><linearGradient id="linear-gradient-65" x1="414.89" y1="20.09" x2="687.12" y2="429.82" gradientTransform="translate(193.32 -247.73) rotate(30)" xlink:href="#linear-gradient"/><linearGradient id="linear-gradient-66" x1="278.41" y1="110.76" x2="550.63" y2="520.5" gradientTransform="translate(697.21 432.84) rotate(180)" xlink:href="#linear-gradient"/><linearGradient id="linear-gradient-67" x1="252.86" y1="127.74" x2="525.08" y2="537.48" gradientTransform="translate(623.56 432.84) rotate(180)" xlink:href="#linear-gradient"/><linearGradient id="linear-gradient-68" x1="227.31" y1="144.71" x2="499.54" y2="554.45" gradientTransform="translate(549.9 432.84) rotate(180)" xlink:href="#linear-gradient"/><linearGradient id="linear-gradient-69" x1="201.76" y1="161.69" x2="473.99" y2="571.42" gradientTransform="translate(476.25 432.84) rotate(180)" xlink:href="#linear-gradient"/><linearGradient id="linear-gradient-70" x1="165.66" y1="185.67" x2="437.89" y2="595.41" gradientTransform="translate(697.21 922.04) rotate(180)" xlink:href="#linear-gradient"/><linearGradient id="linear-gradient-71" x1="140.12" y1="202.64" x2="412.34" y2="612.38" gradientTransform="translate(623.56 922.04) rotate(180)" xlink:href="#linear-gradient"/><linearGradient id="linear-gradient-72" x1="114.57" y1="219.62" x2="386.79" y2="629.36" gradientTransform="translate(549.9 922.04) rotate(180)" xlink:href="#linear-gradient"/><linearGradient id="linear-gradient-73" x1="89.02" y1="236.59" x2="361.24" y2="646.33" gradientTransform="translate(476.25 922.04) rotate(180)" xlink:href="#linear-gradient"/><linearGradient id="linear-gradient-74" x1="142.88" y1="200.81" x2="415.1" y2="610.55" gradientTransform="translate(-208.59 437.82) rotate(-59.99)" xlink:href="#linear-gradient"/><linearGradient id="linear-gradient-75" x1="140.96" y1="202.08" x2="413.18" y2="611.82" gradientTransform="translate(-227 469.71) rotate(-59.99)" xlink:href="#linear-gradient"/><linearGradient id="linear-gradient-76" x1="137.12" y1="204.63" x2="409.34" y2="614.37" gradientTransform="translate(-263.81 533.49) rotate(-59.99)" xlink:href="#linear-gradient"/><linearGradient id="linear-gradient-77" x1="135.2" y1="205.91" x2="407.42" y2="615.65" gradientTransform="translate(-282.22 565.37) rotate(-59.99)" xlink:href="#linear-gradient"/><linearGradient id="linear-gradient-78" x1="150.56" y1="195.71" x2="422.78" y2="605.44" gradientTransform="translate(-134.97 310.27) rotate(-59.99)" xlink:href="#linear-gradient"/><linearGradient id="linear-gradient-79" x1="148.64" y1="196.98" x2="420.86" y2="606.72" gradientTransform="translate(-153.37 342.16) rotate(-59.99)" xlink:href="#linear-gradient"/><linearGradient id="linear-gradient-80" x1="146.72" y1="198.26" x2="418.94" y2="608" gradientTransform="translate(-171.78 374.04) rotate(-59.99)" xlink:href="#linear-gradient"/><linearGradient id="linear-gradient-81" x1="144.8" y1="199.53" x2="417.02" y2="609.27" gradientTransform="translate(-190.19 405.93) rotate(-59.99)" xlink:href="#linear-gradient"/><linearGradient id="linear-gradient-82" x1="204.11" y1="160.13" x2="476.33" y2="569.87" gradientTransform="translate(450.7 846.31) rotate(-150)" xlink:href="#linear-gradient"/><linearGradient id="linear-gradient-83" x1="173.49" y1="180.47" x2="445.72" y2="590.21" gradientTransform="translate(381.99 864.72) rotate(-150)" xlink:href="#linear-gradient"/><linearGradient id="linear-gradient-84" x1="112.27" y1="221.15" x2="384.49" y2="630.88" gradientTransform="translate(244.55 901.55) rotate(-150)" xlink:href="#linear-gradient"/><linearGradient id="linear-gradient-85" x1="81.65" y1="241.48" x2="353.88" y2="651.22" gradientTransform="translate(175.83 919.96) rotate(-150)" xlink:href="#linear-gradient"/><linearGradient id="linear-gradient-86" x1="226.05" y1="145.55" x2="498.27" y2="555.29" gradientTransform="translate(781.58 411.62) rotate(150)" xlink:href="#linear-gradient"/><linearGradient id="linear-gradient-87" x1="212.41" y1="154.62" x2="484.63" y2="564.35" gradientTransform="translate(712.87 393.2) rotate(150)" xlink:href="#linear-gradient"/><linearGradient id="linear-gradient-88" x1="198.77" y1="163.68" x2="470.99" y2="573.41" gradientTransform="translate(644.15 374.79) rotate(150)" xlink:href="#linear-gradient"/><linearGradient id="linear-gradient-89" x1="185.13" y1="172.74" x2="457.35" y2="582.48" gradientTransform="translate(575.43 356.38) rotate(150)" xlink:href="#linear-gradient"/><linearGradient id="linear-gradient-90" x1="171.49" y1="181.8" x2="443.71" y2="591.54" gradientTransform="translate(506.71 337.96) rotate(150)" xlink:href="#linear-gradient"/></defs><g><g><path class="cls-2" d="M164.59,652.83v103.12h-12.08l-61.87-76.9v76.9h-14.73v-103.12h12.08l61.87,76.9v-76.9h14.73Z"/><path class="cls-2" d="M257.84,721.62h-63.35c1.77,13.7,12.82,22.83,28.28,22.83,9.13,0,16.79-3.09,22.54-9.43l7.81,9.13c-7.07,8.25-17.82,12.67-30.79,12.67-25.19,0-41.98-16.65-41.98-39.92s16.65-39.77,39.18-39.77,38.6,16.2,38.6,40.22c0,1.18-.15,2.95-.29,4.27Zm-63.35-10.16h50.09c-1.47-13.11-11.34-22.39-25.04-22.39s-23.57,9.13-25.04,22.39Z"/><path class="cls-2" d="M321.63,751.38c-4.27,3.68-10.75,5.45-17.09,5.45-15.76,0-24.75-8.69-24.75-24.46v-42.87h-13.26v-11.64h13.26v-17.09h14.14v17.09h22.39v11.64h-22.39v42.28c0,8.4,4.42,13.11,12.23,13.11,4.12,0,8.1-1.33,11.05-3.68l4.42,10.16Z"/><path class="cls-2" d="M458.34,677.87l-29.17,78.08h-13.55l-22.54-59.22-22.83,59.22h-13.55l-29.02-78.08h13.41l22.69,62.17,23.57-62.17h11.93l23.13,62.46,23.28-62.46h12.67Z"/><path class="cls-2" d="M460.25,716.91c0-23.28,17.24-39.77,40.66-39.77s40.51,16.5,40.51,39.77-17.09,39.92-40.51,39.92-40.66-16.65-40.66-39.92Zm66.88,0c0-16.65-11.2-27.4-26.22-27.4s-26.37,10.75-26.37,27.4,11.34,27.55,26.37,27.55,26.22-10.9,26.22-27.55Z"/><path class="cls-2" d="M597.99,677.13v13.7c-1.18-.15-2.21-.15-3.24-.15-15.17,0-24.6,9.28-24.6,26.37v38.89h-14.14v-78.08h13.55v13.11c5.01-9.13,14.73-13.85,28.43-13.85Z"/><path class="cls-2" d="M644.39,719.56l-16.2,15.03v21.36h-14.14v-109.31h14.14v70.12l42.57-38.89h17.09l-32.85,32.26,36.09,45.81h-17.38l-29.32-36.39Z"/></g><g><path class="cls-2" d="M127.32,820.15h14.73v103.12h-14.73v-103.12Z"/><path class="cls-2" d="M234.71,878.34v44.93h-14.14v-43.31c0-15.32-7.66-22.83-21.07-22.83-15.03,0-24.75,8.99-24.75,25.93v40.22h-14.14v-78.08h13.55v11.78c5.75-7.95,15.76-12.52,28.14-12.52,19,0,32.41,10.9,32.41,33.88Z"/><path class="cls-2" d="M330.02,813.96v109.31h-13.55v-12.37c-6.34,8.84-16.35,13.26-27.84,13.26-22.83,0-39.48-16.06-39.48-39.92s16.65-39.77,39.48-39.77c11.05,0,20.77,4.12,27.25,12.52v-43.02h14.14Zm-14,70.27c0-16.65-11.34-27.4-26.22-27.4s-26.37,10.75-26.37,27.4,11.34,27.55,26.37,27.55,26.22-10.9,26.22-27.55Z"/><path class="cls-2" d="M421.95,888.94h-63.35c1.77,13.7,12.82,22.83,28.28,22.83,9.13,0,16.79-3.09,22.54-9.43l7.81,9.13c-7.07,8.25-17.82,12.67-30.79,12.67-25.19,0-41.98-16.65-41.98-39.92s16.65-39.77,39.18-39.77,38.6,16.2,38.6,40.22c0,1.18-.15,2.95-.29,4.27Zm-63.35-10.16h50.09c-1.47-13.11-11.34-22.39-25.04-22.39s-23.57,9.13-25.04,22.39Z"/><path class="cls-2" d="M487.5,923.27l-22.54-29.9-22.83,29.9h-15.76l30.79-39.92-29.32-38.15h15.76l21.51,28.14,21.36-28.14h15.47l-29.46,38.15,31.08,39.92h-16.06Z"/><path class="cls-2" d="M582.23,888.94h-63.35c1.77,13.7,12.82,22.83,28.28,22.83,9.13,0,16.79-3.09,22.54-9.43l7.81,9.13c-7.07,8.25-17.82,12.67-30.79,12.67-25.19,0-41.98-16.65-41.98-39.92s16.65-39.77,39.18-39.77,38.6,16.2,38.6,40.22c0,1.18-.15,2.95-.29,4.27Zm-63.35-10.16h50.09c-1.47-13.11-11.34-22.39-25.04-22.39s-23.57,9.13-25.04,22.39Z"/><path class="cls-2" d="M639.68,844.45v13.7c-1.18-.15-2.21-.15-3.24-.15-15.17,0-24.6,9.28-24.6,26.37v38.89h-14.14v-78.08h13.55v13.11c5.01-9.13,14.73-13.85,28.43-13.85Z"/></g></g><g><g><rect class="cls-1" x="587.2" y="259.42" width="14.73" height="14.73" transform="translate(861.34 -327.78) rotate(90)"/><rect class="cls-7" x="587.2" y="296.24" width="14.73" height="14.73" transform="translate(898.17 -290.95) rotate(90)"/><rect class="cls-5" x="587.2" y="333.07" width="14.73" height="14.73" transform="translate(935 -254.13) rotate(90)"/><rect class="cls-6" x="587.2" y="369.89" width="14.73" height="14.73" transform="translate(971.82 -217.3) rotate(90)"/><rect class="cls-10" x="587.2" y="406.72" width="14.73" height="14.73" transform="translate(1008.65 -180.48) rotate(90)"/><rect class="cls-8" x="417.7" y="553" width="14.73" height="14.73" transform="translate(-223.24 287.61) rotate(-30)"/><rect class="cls-9" x="449.59" y="534.59" width="14.73" height="14.73" transform="translate(-209.76 301.08) rotate(-30)"/><rect class="cls-3" x="481.48" y="516.17" width="14.73" height="14.73" transform="translate(-196.28 314.56) rotate(-30)"/><rect class="cls-4" x="513.37" y="497.76" width="14.73" height="14.73" transform="translate(-182.8 328.04) rotate(-30)"/><rect class="cls-74" x="545.26" y="479.35" width="14.73" height="14.73" transform="translate(-169.32 341.52) rotate(-30)"/><rect class="cls-75" x="417.7" y="113.14" width="14.73" height="14.73" transform="translate(117.2 -196.39) rotate(30)"/><rect class="cls-73" x="449.59" y="131.55" width="14.73" height="14.73" transform="translate(130.68 -209.87) rotate(30)"/><rect class="cls-72" x="481.48" y="149.96" width="14.73" height="14.73" transform="translate(144.16 -223.34) rotate(30)"/><rect class="cls-62" x="513.37" y="168.37" width="14.73" height="14.73" transform="translate(157.64 -236.82) rotate(30)"/><rect class="cls-68" x="545.26" y="186.79" width="14.73" height="14.73" transform="translate(171.11 -250.3) rotate(30)"/><rect class="cls-70" x="165.07" y="259.42" width="14.73" height="14.73" transform="translate(439.22 94.34) rotate(90)"/><rect class="cls-71" x="165.07" y="296.24" width="14.73" height="14.73" transform="translate(476.05 131.17) rotate(90)"/><rect class="cls-63" x="165.07" y="333.07" width="14.73" height="14.73" transform="translate(512.87 168) rotate(90)"/><rect class="cls-69" x="165.07" y="369.89" width="14.73" height="14.73" transform="translate(549.7 204.82) rotate(90)"/><rect class="cls-65" x="165.07" y="406.72" width="14.73" height="14.73" transform="translate(586.52 241.65) rotate(90)"/><rect class="cls-66" x="334.57" y="553" width="14.73" height="14.73" transform="translate(357.88 1216.63) rotate(-150)"/><rect class="cls-64" x="302.68" y="534.59" width="14.73" height="14.73" transform="translate(307.58 1166.32) rotate(-150)"/><rect class="cls-67" x="270.79" y="516.17" width="14.73" height="14.73" transform="translate(257.27 1116.02) rotate(-150)"/><rect class="cls-77" x="238.9" y="497.76" width="14.73" height="14.73" transform="translate(206.97 1065.71) rotate(-150)"/><rect class="cls-85" x="207.01" y="479.35" width="14.73" height="14.73" transform="translate(156.66 1015.41) rotate(-150)"/><rect class="cls-78" x="334.57" y="113.14" width="14.73" height="14.73" transform="translate(698.32 53.89) rotate(150)"/><rect class="cls-76" x="302.68" y="131.55" width="14.73" height="14.73" transform="translate(648.01 104.19) rotate(150)"/><rect class="cls-86" x="270.79" y="149.96" width="14.73" height="14.73" transform="translate(597.71 154.5) rotate(150)"/><rect class="cls-87" x="238.9" y="168.37" width="14.73" height="14.73" transform="translate(547.4 204.8) rotate(150)"/><rect class="cls-89" x="207.01" y="186.79" width="14.73" height="14.73" transform="translate(497.1 255.11) rotate(150)"/></g><g><rect class="cls-91" x="411.03" y="209.05" width="14.73" height="14.73"/><rect class="cls-90" x="447.86" y="209.05" width="14.73" height="14.73"/><rect class="cls-88" x="484.68" y="209.05" width="14.73" height="14.73"/><rect class="cls-82" x="521.51" y="209.05" width="14.73" height="14.73"/><rect class="cls-80" x="411.03" y="453.66" width="14.73" height="14.73"/><rect class="cls-84" x="447.86" y="453.66" width="14.73" height="14.73"/><rect class="cls-81" x="484.68" y="453.66" width="14.73" height="14.73"/><rect class="cls-79" x="521.51" y="453.66" width="14.73" height="14.73"/><rect class="cls-83" x="375.88" y="135.4" width="14.73" height="14.73" transform="translate(526.01 -240.48) rotate(90)"/><rect class="cls-53" x="375.88" y="172.23" width="14.73" height="14.73" transform="translate(562.84 -203.65) rotate(90)"/><rect class="cls-52" x="375.88" y="209.05" width="14.73" height="14.73" transform="translate(599.66 -166.83) rotate(90)"/><rect class="cls-55" x="375.88" y="245.88" width="14.73" height="14.73" transform="translate(636.49 -130) rotate(90)"/><rect class="cls-54" x="375.88" y="282.7" width="14.73" height="14.73" transform="translate(673.31 -93.18) rotate(90)"/><rect class="cls-58" x="375.88" y="380.01" width="14.73" height="14.73" transform="translate(770.62 4.13) rotate(90)"/><rect class="cls-56" x="375.88" y="416.83" width="14.73" height="14.73" transform="translate(807.44 40.95) rotate(90)"/><rect class="cls-57" x="375.88" y="453.66" width="14.73" height="14.73" transform="translate(844.27 77.78) rotate(90)"/><rect class="cls-60" x="375.88" y="490.48" width="14.73" height="14.73" transform="translate(881.09 114.6) rotate(90)"/><rect class="cls-61" x="375.88" y="527.31" width="14.73" height="14.73" transform="translate(917.92 151.43) rotate(90)"/><rect class="cls-59" x="484.68" y="392.23" width="14.73" height="14.73" transform="translate(1084.18 173.38) rotate(120.01)"/><rect class="cls-20" x="466.26" y="424.12" width="14.73" height="14.73" transform="translate(1084.16 237.17) rotate(120.01)"/><rect class="cls-18" x="429.43" y="487.9" width="14.73" height="14.73" transform="translate(1084.12 364.74) rotate(120.01)"/><rect class="cls-19" x="411.01" y="519.79" width="14.73" height="14.73" transform="translate(1084.1 428.53) rotate(120.01)"/><rect class="cls-16" x="558.36" y="264.68" width="14.73" height="14.73" transform="translate(1084.25 -81.77) rotate(120.01)"/><rect class="cls-17" x="539.94" y="296.57" width="14.73" height="14.73" transform="translate(1084.23 -17.98) rotate(120.01)"/><rect class="cls-14" x="521.52" y="328.45" width="14.73" height="14.73" transform="translate(1084.21 45.81) rotate(120.01)"/><rect class="cls-15" x="503.1" y="360.34" width="14.73" height="14.73" transform="translate(1084.19 109.59) rotate(120.01)"/><rect class="cls-12" x="420.9" y="355.41" width="14.73" height="14.73" transform="translate(238.76 -165.53) rotate(30)"/><rect class="cls-13" x="452.79" y="373.82" width="14.73" height="14.73" transform="translate(252.24 -179.01) rotate(30)"/><rect class="cls-11" x="516.57" y="410.64" width="14.73" height="14.73" transform="translate(279.2 -205.97) rotate(30)"/><rect class="cls-38" x="548.47" y="429.06" width="14.73" height="14.73" transform="translate(292.68 -219.45) rotate(30)"/><rect class="cls-40" x="423.99" y="303.15" width="14.73" height="14.73" transform="translate(-97.47 257.28) rotate(-30)"/><rect class="cls-39" x="455.88" y="284.74" width="14.73" height="14.73" transform="translate(-83.99 270.76) rotate(-30)"/><rect class="cls-35" x="487.77" y="266.33" width="14.73" height="14.73" transform="translate(-70.51 284.24) rotate(-30)"/><rect class="cls-34" x="519.66" y="247.92" width="14.73" height="14.73" transform="translate(-57.03 297.72) rotate(-30)"/><rect class="cls-37" x="551.56" y="229.5" width="14.73" height="14.73" transform="translate(-43.55 311.2) rotate(-30)"/><rect class="cls-36" x="341.24" y="209.05" width="14.73" height="14.73" transform="translate(697.21 432.84) rotate(-180)"/><rect class="cls-32" x="304.41" y="209.05" width="14.73" height="14.73" transform="translate(623.56 432.84) rotate(-180)"/><rect class="cls-31" x="267.59" y="209.05" width="14.73" height="14.73" transform="translate(549.9 432.84) rotate(-180)"/><rect class="cls-33" x="230.76" y="209.05" width="14.73" height="14.73" transform="translate(476.25 432.84) rotate(-180)"/><rect class="cls-27" x="341.24" y="453.66" width="14.73" height="14.73" transform="translate(697.21 922.04) rotate(-180)"/><rect class="cls-28" x="304.41" y="453.66" width="14.73" height="14.73" transform="translate(623.56 922.04) rotate(-180)"/><rect class="cls-29" x="267.59" y="453.66" width="14.73" height="14.73" transform="translate(549.9 922.04) rotate(-180)"/><rect class="cls-30" x="230.76" y="453.66" width="14.73" height="14.73" transform="translate(476.25 922.04) rotate(-180)"/><rect class="cls-24" x="267.59" y="392.23" width="14.73" height="14.73" transform="translate(483.45 -38.36) rotate(59.99)"/><rect class="cls-25" x="286.01" y="424.12" width="14.73" height="14.73" transform="translate(520.27 -38.37) rotate(59.99)"/><rect class="cls-26" x="322.84" y="487.9" width="14.73" height="14.73" transform="translate(593.91 -38.39) rotate(59.99)"/><rect class="cls-21" x="341.26" y="519.79" width="14.73" height="14.73" transform="translate(630.73 -38.4) rotate(59.99)"/><rect class="cls-22" x="193.91" y="264.68" width="14.73" height="14.73" transform="translate(336.17 -38.31) rotate(59.99)"/><rect class="cls-23" x="212.33" y="296.57" width="14.73" height="14.73" transform="translate(372.99 -38.33) rotate(59.99)"/><rect class="cls-43" x="230.75" y="328.45" width="14.73" height="14.73" transform="translate(409.81 -38.34) rotate(59.99)"/><rect class="cls-42" x="249.17" y="360.34" width="14.73" height="14.73" transform="translate(446.63 -38.35) rotate(59.99)"/><rect class="cls-51" x="331.37" y="355.41" width="14.73" height="14.73" transform="translate(813.48 507.57) rotate(150)"/><rect class="cls-50" x="299.48" y="373.82" width="14.73" height="14.73" transform="translate(763.17 557.88) rotate(150)"/><rect class="cls-49" x="235.69" y="410.64" width="14.73" height="14.73" transform="translate(662.56 658.49) rotate(150)"/><rect class="cls-48" x="203.8" y="429.06" width="14.73" height="14.73" transform="translate(612.26 708.79) rotate(150)"/><rect class="cls-47" x="328.28" y="303.15" width="14.73" height="14.73" transform="translate(471.06 747.26) rotate(-150)"/><rect class="cls-46" x="296.39" y="284.74" width="14.73" height="14.73" transform="translate(420.76 696.96) rotate(-150)"/><rect class="cls-44" x="264.5" y="266.33" width="14.73" height="14.73" transform="translate(370.45 646.65) rotate(-150)"/><rect class="cls-45" x="232.61" y="247.92" width="14.73" height="14.73" transform="translate(320.15 596.35) rotate(-150)"/><rect class="cls-41" x="200.71" y="229.5" width="14.73" height="14.73" transform="translate(269.85 546.04) rotate(-150)"/></g><g><circle class="cls-2" cx="383.25" cy="94.81" r="18.96"/><circle class="cls-2" cx="383.25" cy="338.95" r="20.76"/><circle class="cls-2" cx="383.25" cy="583.09" r="18.96"/><circle class="cls-2" cx="594.68" cy="461.02" r="18.96"/><circle class="cls-2" cx="594.68" cy="216.88" r="18.96"/><circle class="cls-2" cx="172.32" cy="461.02" r="18.96"/><circle class="cls-2" cx="172.32" cy="216.88" r="18.96"/></g></g></svg>